<REAPER_PROJECT 0.1 "6.21/OSX64-clang" 1672456157
  RIPPLE 0
  GROUPOVERRIDE 0 0 0
  AUTOXFADE 1
  ENVATTACH 1
  POOLEDENVATTACH 0
  MIXERUIFLAGS 11 52
  PEAKGAIN 1.61051
  FEEDBACK 0
  PANLAW 1
  PROJOFFS 0 0 0
  MAXPROJLEN 0 600
  GRID 3199 8 1 8 1 0 0 0
  TIMEMODE 7 5 -1 30 0 0 -1
  VIDEO_CONFIG 0 0 256
  PANMODE 3
  CURSOR 0
  ZOOM 3.8130239158763 0 0
  VZOOMEX 0 0
  USE_REC_CFG 0
  RECMODE 1
  SMPTESYNC 0 30 100 40 1000 300 0 0 1 0 0
  LOOP 0
  LOOPGRAN 0 4
  RECORD_PATH "" ""
  <RECORD_CFG
  >
  <APPLYFX_CFG
  >
  RENDER_FILE ""
  RENDER_PATTERN test-reaper
  RENDER_FMT 0 2 48000
  RENDER_1X 0
  RENDER_RANGE 1 0 0 18 1000
  RENDER_RESAMPLE 9 0 1
  RENDER_ADDTOPROJ 0
  RENDER_STEMS 0
  RENDER_DITHER 0
  TIMELOCKMODE 1
  TEMPOENVLOCKMODE 1
  ITEMMIX 0
  DEFPITCHMODE 589824 0
  TAKELANE 1
  SAMPLERATE 44100 0 0
  <RENDER_CFG
    ZXZhdyEAAA==
  >
  LOCK 1024
  <METRONOME 4 2
    VOL 1 1
    FREQ 800 1600 1
    BEATLEN 4
    SAMPLES "" ""
    PATTERN 2863311530 2863311529
  >
  GLOBAL_AUTO -1
  TEMPO 120 4 4
  PLAYRATE 1 0 0.25 4
  SELECTION 0 0
  SELECTION2 0 0
  MASTERAUTOMODE 0
  MASTERTRACKHEIGHT 0 0
  MASTERPEAKCOL 16576
  MASTERMUTESOLO 0
  MASTERTRACKVIEW 0 0.6667 0.5 0.5 0 0 0 0 0 0 -1 -1 0
  MASTERHWOUT 0 0 1 0 0 0 0 -1
  MASTER_NCH 2 2
  MASTER_VOLUME 0.77573803934932 0 -1 -1 1
  MASTER_FX 1
  MASTER_SEL 0
  <MASTERFXLIST
    WNDRECT 471 83 1199 716
    SHOW 0
    LASTSEL 0
    DOCKED 0
  >
  <MASTERPLAYSPEEDENV
    EGUID {8F2A3379-5F42-6F46-BE2D-3C6A785FD8AC}
    ACT 0 -1
    VIS 0 1 1
    LANEHEIGHT 0 0
    ARM 0
    DEFSHAPE 0 -1 -1
  >
  <TEMPOENVEX
    EGUID {456A793D-3BEC-0F45-84D3-A4E11143861C}
    ACT 0 -1
    VIS 1 0 1
    LANEHEIGHT 0 0
    ARM 0
    DEFSHAPE 1 -1 -1
    PT 0.000000000000 120.0000000000 1 262148 0 9 0 "" 2863311530 2863311529
    PT 4.000000000000 73.7600021636 1
    PT 6.440347000000 73.7600021636 1
    PT 8.880694000000 71.3399909398 1
    PT 10.562780000000 73.7200358771 1
    PT 13.004450000000 71.5299907369 1
    PT 13.843259000000 65.6300042878 1
    PT 14.757475000000 60.8500138434 1
    PT 15.743506000000 48.6500029595 1
    PT 16.976805000000 44.8800132845 1
    PT 18.313703000000 124.3000354255 1
    PT 18.796406000000 129.0500197877 1
    PT 19.261342000000 127.6199308300 1
    PT 19.731488000000 131.4100738963 1
    PT 20.188074000000 127.1498927703 1
    PT 20.659958000000 120.5300913417 1
    PT 21.157759000000 130.4500963157 1
    PT 22.077651000000 126.6699319360 1
    PT 22.551323000000 129.0500197877 1
    PT 23.016259000000 126.6699319360 1
    PT 23.489931000000 131.8600174055 1
    PT 23.944959000000 127.1498927703 1
    PT 24.416843000000 121.9499801831 1
    PT 24.908848000000 128.5699592005 1
    PT 25.842192000000 123.8500011353 1
    PT 26.326649000000 129.5099129046 1
    PT 27.253219000000 126.6699319360 1
    PT 28.200563000000 129.5099129046 1
    PT 29.127133000000 127.6199308300 1
    PT 30.067425000000 128.5699592005 1
    PT 31.000769000000 125.7300199282 1
    PT 33.386834000000 124.3000354255 1
    PT 33.869537000000 129.0500197877 1
    PT 34.334473000000 127.6199308300 1
    PT 34.804619000000 129.0500197877 1
    PT 35.269555000000 127.1498927703 1
    PT 35.741439000000 120.5300913417 1
    PT 36.239240000000 130.4500963157 1
    PT 37.159132000000 126.6699319360 1
    PT 37.632804000000 129.0500197877 1
    PT 38.097740000000 126.6699319360 1
    PT 38.571412000000 129.0500197877 1
    PT 39.036348000000 127.1498927703 1
    PT 39.508232000000 121.9499801831 1
    PT 40.000237000000 128.5699592005 1
    PT 40.933581000000 126.6699319360 1
    PT 41.407253000000 129.5099129046 1
    PT 42.333823000000 127.6199308300 1
    PT 43.274115000000 129.5099129046 1
    PT 44.200685000000 127.1498927703 1
    PT 47.031989000000 129.0500197877 1
    PT 48.426797000000 126.6699319360 1
    PT 48.900469000000 128.5699592005 1
    PT 49.833813000000 126.1999512027 1
    PT 52.210993000000 124.3000354255 1
    PT 52.693696000000 129.0500197877 1
    PT 53.158632000000 127.6199308300 1
    PT 53.628778000000 131.4100738963 1
    PT 54.085364000000 127.1498927703 1
    PT 54.557248000000 120.5300913417 1
    PT 55.055049000000 130.4500963157 1
    PT 55.974941000000 126.6699319360 1
    PT 56.448613000000 129.0500197877 1
    PT 56.913549000000 126.6699319360 1
    PT 57.387221000000 131.8600174055 1
    PT 57.842249000000 127.1498927703 1
    PT 58.314133000000 121.9499801831 1
    PT 58.806138000000 128.5699592005 1
    PT 59.739482000000 123.8500011353 1
    PT 60.223939000000 128.1000204960 1
    PT 61.160707000000 126.6699319360 1
    PT 61.634379000000 124.7899369395 1
    PT 62.115187000000 119.6000574080 1
    PT 62.366023000000 124.7899369395 1
    PT 63.087235000000 127.6199308300 1
    PT 64.027527000000 128.5699592005 1
    PT 64.960871000000 125.7300199282 1
    PT 67.346936000000 124.3000354255 1
    PT 67.829639000000 129.0500197877 1
    PT 68.294575000000 127.6199308300 1
    PT 68.764721000000 129.9899907707 1
    PT 69.226295000000 127.1498927703 1
    PT 69.698179000000 120.5300913417 1
    PT 70.195980000000 130.4500963157 1
    PT 71.115872000000 126.6699319360 1
    PT 71.589544000000 129.0500197877 1
    PT 72.054480000000 126.6699319360 1
    PT 72.528152000000 129.0500197877 1
    PT 72.993088000000 127.1498927703 1
    PT 73.464972000000 121.9499801831 1
    PT 73.956977000000 128.5699592005 1
    PT 74.890321000000 126.6699319360 1
    PT 75.363993000000 129.5099129046 1
    PT 76.290563000000 127.6199308300 1
    PT 77.230855000000 129.5099129046 1
    PT 78.157425000000 127.1498927703 1
    PT 80.988729000000 129.0500197877 1
    PT 82.383537000000 126.6699319360 1
    PT 82.857209000000 128.5699592005 1
    PT 83.790553000000 126.1999512027 1
    PT 85.216861000000 126.1999512027 1
    PT 85.296100333333 125.7300199282 1
    PT 85.335868083333 125.2701136826 1
    PT 85.415695583333 124.7899369395 1
    PT 85.455762916667 124.3000354255 1
    PT 85.536213416667 123.8500011353 1
    PT 85.576584833333 123.3600819111 1
    PT 85.657648333333 122.8898783800 1
    PT 85.698335166667 122.4299904505 1
    PT 85.943373166667 106.3499800594 1
    PT 86.225460666667 124.3000354255 1
    PT 86.694084829167 129.0500197877 1
    PT 87.159020829167 127.6199308300 1
    PT 87.629166829167 131.4100738963 1
    PT 88.085752829167 127.1498927703 1
    PT 88.557636829167 120.5300913417 1
    PT 89.055437829167 130.4500963157 1
    PT 89.988744920833 124.3000354255 1
    PT 90.457369083333 129.0500197877 1
    PT 90.922305083333 127.6199308300 1
    PT 91.392451083333 131.4100738963 1
    PT 91.849037083333 127.1498927703 1
    PT 92.320921083333 120.5300913417 1
    PT 92.818722083333 130.4500963157 1
    PT 93.292083175000 126.6699319360 1
    PT 93.528919175000 113.7900232701 1
    PT 93.792562675000 126.1999512027 1
    PT 94.267998675000 129.5099129046 1
    PT 95.657853675000 127.1498927703 1
    PT 96.129737675000 130.4500963157 1
    PT 97.049629675000 126.1999512027 1
    PT 97.525065675000 126.1999512027 1
    PT 98.000501675000 128.5699592005 1
    PT 99.400517675000 126.1999512027 1
    PT 99.875953675000 127.1498927703 1
    PT 100.819721675000 122.4299904505 1
    PT 101.309797675000 125.7300199282 1
    PT 101.787010675000 127.6199308300 1
    PT 102.257156675000 124.7899369395 1
    PT 102.737964675000 127.6199308300 1
    PT 103.208110675000 126.1999512027 1
    PT 104.158982675000 124.7899369395 1
    PT 104.639790675000 127.6199308300 1
    PT 105.109936675000 125.7300199282 1
    PT 105.587149675000 127.6199308300 1
    PT 106.057295675000 124.7899369395 1
    PT 106.538103675000 127.6199308300 1
    PT 107.008249675000 126.1999512027 1
    PT 107.959121675000 124.7899369395 1
    PT 108.439929675000 127.6199308300 1
    PT 108.910075675000 125.3499352359 1
    PT 109.388735675000 123.8098775520 1
    PT 109.873349675000 125.3499352359 1
    PT 110.352009675000 124.3100790612 1
    PT 110.834673675000 125.3499352359 1
    PT 111.791993675000 125.3499352359 1
    PT 112.749313675000 123.8500011353 1
    PT 113.233770675000 128.1000204960 1
    PT 114.170538675000 125.2701136826 1
    PT 114.649503675000 123.8500011353 1
    PT 115.133960675000 128.1000204960 1
    PT 116.539112675000 125.2701136826 1
    PT 117.018077675000 126.6699319360 1
    PT 117.491749675000 126.6699319360 1
    PT 118.439093675000 125.2701136826 1
    PT 118.918058675000 126.6699319360 1
    PT 120.339074675000 122.8898783800 1
    PT 120.827316675000 125.2701136826 1
    PT 121.306281675000 123.8500011353 1
    PT 121.790738675000 126.6699319360 1
    PT 122.264410675000 124.7899369395 1
    PT 122.745218675000 120.5300913417 1
    PT 123.243019675000 128.5699592005 1
    PT 124.176363675000 128.1000204960 1
    PT 127.923435675000 128.1000204960 1
    PT 138.227883675000 128.5699592005 1
    PT 138.383441008333 128.1000204960 1
    PT 138.500537008333 127.6199308300 1
    PT 138.618073508333 127.1498927703 1
    PT 138.736044508333 126.6699319360 1
    PT 138.854462508333 126.1999512027 1
    PT 138.973321508333 125.7300199282 1
    PT 139.092624758333 125.2701136826 1
    PT 139.172452258333 124.3000354255 1
    PT 139.655155258333 129.0500197877 1
    PT 140.120091258333 127.6199308300 1
    PT 140.590237258333 131.4100738963 1
    PT 141.046823258333 127.1498927703 1
    PT 141.518707258333 120.5300913417 1
    PT 142.016508258333 130.4500963157 1
    PT 142.936400258333 126.6699319360 1
    PT 143.410072258333 129.0500197877 1
    PT 143.875008258333 126.6699319360 1
    PT 144.348680258333 131.8600174055 1
    PT 144.803708258333 127.1498927703 1
    PT 145.275592258333 121.9499801831 1
    PT 145.767597258333 128.5699592005 1
    PT 146.700941258333 123.8500011353 1
    PT 147.185398258333 129.5099129046 1
    PT 148.111968258333 126.6699319360 1
    PT 149.059312258333 129.5099129046 1
    PT 149.985882258333 127.6199308300 1
    PT 150.926174258333 128.5699592005 1
    PT 151.859518258333 125.7300199282 1
    PT 154.245583258333 124.3000354255 1
    PT 154.728286258333 129.0500197877 1
    PT 155.193222258333 127.6199308300 1
    PT 155.663368258333 131.4100738963 1
    PT 156.119954258333 127.1498927703 1
    PT 156.591838258333 120.5300913417 1
    PT 157.089639258333 130.4500963157 1
    PT 158.009531258333 126.6699319360 1
    PT 158.483203258333 129.0500197877 1
    PT 158.948139258333 126.6699319360 1
    PT 159.421811258333 129.4598933250 1
    PT 159.885275258333 127.1498927703 1
    PT 160.357159258333 121.9499801831 1
    PT 160.849164258333 128.5699592005 1
    PT 161.782508258333 126.6699319360 1
    PT 162.256180258333 129.5099129046 1
    PT 163.182750258333 125.2701136826 1
    PT 163.661715258333 127.1498927703 1
    PT 164.133599258333 129.5099129046 1
    PT 165.060169258333 125.2701136826 1
    PT 165.539134258333 124.3000354255 1
    PT 166.021837258333 127.6199308300 1
    PT 166.491983258333 125.7300199282 1
    PT 166.969196258333 128.5699592005 1
    PT 167.435868258333 127.1498927703 1
    PT 167.907752258333 120.5300913417 1
    PT 168.405553258333 130.4500963157 1
    PT 173.924905258333 130.9300397154 1
    PT 173.963093591666 131.4100738963 1
    PT 174.267484258333 130.9300397154 1
    PT 174.572990925000 130.4500963157 1
    PT 174.841292758333 129.9899907707 1
    PT 175.149008758333 129.5099129046 1
    PT 175.457865425000 129.0500197877 1
    PT 175.729078091666 128.5699592005 1
    PT 175.767967425000 114.3900816173 1
    PT 176.292488425000 106.3499800594 1
    PT 176.856663425000 130.4500963157 1
    PT 182.376015425000 128.5699592005 1
    PT 182.842687425000 128.5699592005 1
    PT 182.959355425000 128.1000204960 1
    PT 183.037419425000 127.6199308300 1
    PT 183.115777091666 127.1498927703 1
    PT 183.233748091666 126.6699319360 1
    PT 183.312693425000 126.1999512027 1
    PT 183.391932758333 125.7300199282 1
    PT 183.511236008333 125.2701136826 1
    PT 183.591063508333 124.7899369395 1
    PT 183.671198175000 124.3000354255 1
    PT 183.791873925000 123.8500011353 1
    PT 183.872616758333 123.3600819111 1
    PT 183.953680258333 122.8898783800 1
    PT 184.075740758333 122.4299904505 1
    PT 184.157420091667 121.9499801831 1
    PT 184.239420925000 121.4700303068 1
    PT 184.280583341667 124.7899369395 1
    PT 188.127047341666 170.1698010999 1 262153 0 1
    PT 188.832225341667 194.2898221277 1
    PT 188.857960091667 194.7602987623 1
    PT 188.883632675000 195.2400476386 1
    PT 188.909242175000 196.1797267870 1
    PT 188.934729008333 196.6600567036 1
    PT 188.960153591667 197.1200756941 1
    PT 188.985518841667 198.0596753802 1
    PT 189.010763758333 198.5499237237 1
    PT 189.035946341667 199.0102556618 1
    PT 189.061070675000 199.9800019998 1
    PT 189.086073175000 200.4202143828 1
    PT 189.111020758333 201.3902641233 1
    PT 189.135848175000 207.9996672005 1
    PT 189.232002175000 208.4701418639 1
    PT 189.303954925000 208.9398392556 1
    PT 189.375745925000 209.4196980168 1
    PT 189.447372425000 209.8900176308 1
    PT 189.518838425000 210.3698301614 1
    PT 189.590141425000 210.8303553546 1
    PT 189.661288675000 211.3100164470 1
    PT 189.755936341667 211.7799042049 1
    PT 189.826764591667 212.2398735050 1
    PT 189.897439341667 212.7403079061 1
    PT 189.967947841667 213.1900696066 1
    PT 190.038307591667 213.6698871467 1
    PT 190.108509341667 214.1503406775 1
    PT 190.178553591667 214.6099285707 1
    PT 190.248447841667 215.0899972397 1
    PT 190.341432175000 215.5698949456 1
    PT 190.411015175000 216.0402699063 1
    PT 190.480446675000 216.5002020669 1
    PT 190.549730675000 216.9801427006 1
    PT 190.618861425000 217.4598514749 1
    PT 190.687839675000 217.9298120719 1
    PT 190.756669175000 218.3898841806 1
    PT 190.825353675000 218.8702646506 1 262148 0 1
    PT 190.848198258333 193.3400787539 1
    PT 190.978150620833 204.4996745047 1
  >
  <PROJBAY
  >
  <TRACK {10A51B04-83E1-EE4C-835C-076156C6BE03}
    NAME Triangle1Synth
    PEAKCOL 16576
    BEAT -1
    AUTOMODE 0
    VOLPAN 1.17557512663634 0 -1 -1 1
    MUTESOLO 1 0 0
    IPHASE 0
    PLAYOFFS 0 1
    ISBUS 0 0
    BUSCOMP 0 0 0 0 0
    SHOWINMIX 0 0.6667 0.5 0 0.5 0 -1 0
    FREEMODE 0
    SEL 0
    REC 0 5088 1 0 0 0 0
    VU 2
    TRACKHEIGHT 0 0 0 0 0 0
    INQ 0 0 0 0.5 100 0 0 100
    NCHAN 6
    FX 1
    TRACKID {10A51B04-83E1-EE4C-835C-076156C6BE03}
    PERF 0
    MIDIOUT -1
    MAINSEND 1 0
    <FXCHAIN
      WNDRECT 335 154 1105 598
      SHOW 0
      LASTSEL 0
      DOCKED 0
      BYPASS 0 0 0
      <VST "VST3i: Triangle1Synth   (CabbageAudio    ) (6 out)" Triangle1Synth.vst3 0 "" 97607883{ABCDEF019182FAEB4361626230303131} ""
        y2DRBe5e7f4AAAAABgAAAAEAAAAAAAAAAgAAAAAAAAAEAAAAAAAAAAgAAAAAAAAAEAAAAAAAAAAgAAAAAAAAAJ8DAAABAAAA//8QAA==
        jwMAAAEAAABWQzIhSgMAADw/eG1sIHZlcnNpb249IjEuMCIgZW5jb2Rpbmc9IlVURi04Ij8+IDxDQUJCQUdFX1BSRVNFVFM+PFBSRVNFVDAgUHJlc2V0TmFtZT0iQ0FC
        QkFHRV9QUkVTRVRTIDAiIGluc3RhbmNlTmFtZT0iIiB0cmFja0luZGV4PSIwIiBwbHVnaW5JbmRleD0iMCIgcGx1Z2luVXVpZD0iYmI1MDBhZTk5ZGQ2NDI1Njk5MDJi
        OGIyOGU4ZTY3MWEiIGZpcnN0X3RhYl9idWdfd29ya2Fyb3VuZF90YWI9IjAuMCIgczg4X3RhYj0iMC4wIiBwb3NpdGlvbl90YWI9IjEuMCIgbG9nX3RhYj0iMC4wIiBT
        ODhfa25vYl8xPSIwLjAiIFM4OF9rbm9iXzI9IjAuMCIgUzg4X2tub2JfMz0iMC4wIiBTODhfa25vYl80PSIwLjAiIFM4OF9rbm9iXzU9IjAuMCIgUzg4X2tub2JfNj0i
        MC4wIiBTODhfa25vYl83PSIwLjAiIFM4OF9rbm9iXzg9IjAuMCIgUzg4X3BpdGNoYmVuZD0iMC4wIiBTODhfbW9kd2hlZWw9IjAuMCIgcG9zaXRpb25FbmFibGVkPSIx
        LjAiIHBvc2l0aW9uTWF4QW1wV2hlbkNsb3NlPSIwLjk5OTk5OTk0MDM5NTM1NTIiIHBvc2l0aW9uUmVmZXJlbmNlRGlzdGFuY2U9IjAuMDk5OTk5OTk0MDM5NTM1NTIi
        IHBvc2l0aW9uUm9sbG9mZkZhY3Rvcj0iMC4wMDk5OTk5OTk3NzY0ODI1ODIiIHBvc2l0aW9uT3Bjb2RlQ29tYm9Cb3hJbmRleD0iMy4wIiBwb3NpdGlvbk9wY29kZT0i
        cmF5WFpfMV9wcCIgcG9zaXRpb25YU2NhbGU9IjEuOTk5OTk5NzYxNTgxNDIxIiBwb3NpdGlvbllTY2FsZT0iMS4wIiBwb3NpdGlvblpTY2FsZT0iMS4wIiBwb3NpdGlv
        blhPZmZzZXQ9IjEwLjAwMDI0NDE0MDYyNSIgcG9zaXRpb25ZT2Zmc2V0PSIwLjAiIHBvc2l0aW9uWk9mZnNldD0iMC4wIi8+PC9DQUJCQUdFX1BSRVNFVFM+AAAAAAAA
        AAAASlVDRVByaXZhdGVEYXRhAAEBQnlwYXNzAAEBAwAdAAAAAAAAAEpVQ0VQcml2YXRlRGF0YQAAAAAAAAAA
        AEZhY3RvcnkgUHJlc2V0cwAQAAAA
      >
      PRESETNAME "Factory Presets"
      FLOATPOS 267 58 1000 570
      FXID {A54896D2-D7D3-F046-BD65-59A11BB9AB3A}
      WAK 0 0
    >
    <ITEM
      POSITION 2
      SNAPOFFS 0
      LENGTH 16.313703
      LOOP 1
      ALLTAKES 0
      FADEIN 1 0 0 1 0 0 0
      FADEOUT 1 0 0 1 0 0 0
      MUTE 0 0
      SEL 0
      IGUID {7F279066-77C7-C740-A3CB-36B3543CECB5}
      IID 1
      NAME "Triangle3MonoSynth untitled MIDI item"
      VOLPAN 1 0 1 -1
      SOFFS 0 0
      PLAYRATE 0.2 1 0 -1 0 0.0025
      CHANMODE 0
      GUID {60BA98D3-FEA6-3941-B833-0C1EC2DB2068}
      <SOURCE MIDI
        HASDATA 1 960 QN
        CCINTERP 32
        POOLEDEVTS {E30FD423-316B-0348-830B-942BC16E3750}
        E 0 90 3c 7f
        e 0 90 40 7f
        E 3840 80 3c 00
        e 0 80 40 00
        E 0 b0 7b 00
        CCINTERP 32
        CHASE_CC_TAKEOFFS 1
        GUID {F7BA99BA-EC42-494C-AE5E-EA48E0AAFAF7}
        IGNTEMPO 0 120 4 4
        SRCCOLOR 0
        VELLANE -1 100 0
        CFGEDITVIEW -1123.36 0.082489 61 12 0 -1 0 0 0 0.5
        KEYSNAP 0
        TRACKSEL -252
        EVTFILTER 0 -1 -1 -1 -1 0 0 0 0 -1 -1 -1 -1 0 -1 0 -1 -1
        CFGEDIT 1 1 0 1 0 0 1 1 1 1 1 0.125 392 33 1440 664 0 0 0 0 0 0 0 0 0 0.5 0 0 1 64
      >
    >
  >
  <TRACK {73D128D8-364C-A248-989B-B5A4E9D617DF}
    NAME Csound
    PEAKCOL 16576
    BEAT -1
    AUTOMODE 0
    VOLPAN 0.09782044582927 0 -1 -1 1
    MUTESOLO 0 0 0
    IPHASE 0
    PLAYOFFS 0 1
    ISBUS 0 0
    BUSCOMP 0 0 0 0 0
    SHOWINMIX 1 0.6667 0.5 1 0.5 0 -1 0
    FREEMODE 0
    SEL 0
    REC 0 5088 1 0 0 0 0
    VU 2
    TRACKHEIGHT 167 0 0 0 0 0
    INQ 0 0 0 0.5 100 0 0 100
    NCHAN 6
    FX 1
    TRACKID {73D128D8-364C-A248-989B-B5A4E9D617DF}
    PERF 0
    MIDIOUT -1
    MAINSEND 0 0
    <FXCHAIN
      WNDRECT 267 306 1231 598
      SHOW 0
      LASTSEL 0
      DOCKED 0
      BYPASS 0 0 0
      <VST "VST3i: Triangle1Synth   (CabbageAudio    ) (6 out)" Triangle1Synth.vst3 0 "" 97607883{ABCDEF019182FAEB4361626230303131} ""
        y2DRBe5e7f4AAAAABgAAAAEAAAAAAAAAAgAAAAAAAAAEAAAAAAAAAAgAAAAAAAAAEAAAAAAAAAAgAAAAAAAAAKUDAAABAAAA//8QAA==
        lQMAAAEAAABWQzIhUAMAADw/eG1sIHZlcnNpb249IjEuMCIgZW5jb2Rpbmc9IlVURi04Ij8+IDxDQUJCQUdFX1BSRVNFVFM+PFBSRVNFVDAgUHJlc2V0TmFtZT0iQ0FC
        QkFHRV9QUkVTRVRTIDAiIGluc3RhbmNlTmFtZT0iIiB0cmFja0luZGV4PSIwIiBwbHVnaW5JbmRleD0iMCIgcGx1Z2luVXVpZD0iMTEyZGEwMDIzN2VhNGU5NWIyNWQ5
        Y2JlNGIzZWMyZDAiIGZpcnN0X3RhYl9idWdfd29ya2Fyb3VuZF90YWI9IjAuMCIgczg4X3RhYj0iMS4wIiBwb3NpdGlvbl90YWI9IjAuMCIgbG9nX3RhYj0iMC4wIiBT
        ODhfa25vYl8xPSIwLjAiIFM4OF9rbm9iXzI9IjAuMCIgUzg4X2tub2JfMz0iMC4wIiBTODhfa25vYl80PSIwLjAiIFM4OF9rbm9iXzU9IjAuMCIgUzg4X2tub2JfNj0i
        MC4wIiBTODhfa25vYl83PSIwLjAiIFM4OF9rbm9iXzg9IjAuMCIgUzg4X3BpdGNoYmVuZD0iMC4wIiBTODhfbW9kd2hlZWw9IjAuMCIgcG9zaXRpb25FbmFibGVkPSIw
        LjAiIHBvc2l0aW9uTWF4QW1wV2hlbkNsb3NlPSIwLjk5OTk5OTk0MDM5NTM1NTIiIHBvc2l0aW9uUmVmZXJlbmNlRGlzdGFuY2U9IjAuMDk5OTk5OTk0MDM5NTM1NTIi
        IHBvc2l0aW9uUm9sbG9mZkZhY3Rvcj0iMC4wMDk5OTk5OTk3NzY0ODI1ODIiIHBvc2l0aW9uT3Bjb2RlQ29tYm9Cb3hJbmRleD0iMS4wIiBwb3NpdGlvbk9wY29kZT0i
        IiBwb3NpdGlvblhTY2FsZT0iMTAwLjAwMDEyMjA3MDMxMjUiIHBvc2l0aW9uWVNjYWxlPSIxMDAuMDAwMTIyMDcwMzEyNSIgcG9zaXRpb25aU2NhbGU9IjEwMC4wMDAx
        MjIwNzAzMTI1IiBwb3NpdGlvblhPZmZzZXQ9IjAuMCIgcG9zaXRpb25ZT2Zmc2V0PSIwLjAiIHBvc2l0aW9uWk9mZnNldD0iMC4wIi8+PC9DQUJCQUdFX1BSRVNFVFM+
        AAAAAAAAAAAASlVDRVByaXZhdGVEYXRhAAEBQnlwYXNzAAEBAwAdAAAAAAAAAEpVQ0VQcml2YXRlRGF0YQAAAAAAAAAA
        AEZhY3RvcnkgUHJlc2V0cwAQAAAA
      >
      PRESETNAME "Factory Presets"
      FLOATPOS 32 477 1000 570
      FXID {392022F9-49CB-5644-9435-2F6A14784623}
      WAK 0 0
    >
    <ITEM
      POSITION 4
      SNAPOFFS 0
      LENGTH 186.97815062083311
      LOOP 1
      ALLTAKES 0
      FADEIN 1 0 0 1 0 0 0
      FADEOUT 1 0 0 1 0 0 0
      MUTE 0 0
      SEL 1
      IGUID {CEFCD608-02CA-6C41-99ED-E8DED9477066}
      IID 477
      NAME "Etüde Opus 25, No. 11 - chpn_op25_e11.midi"
      VOLPAN 1 0 1 -1
      SOFFS 0 0
      PLAYRATE 1 1 0 -1 0 0.0025
      CHANMODE 0
      GUID {5D12703E-F34F-A44C-A1FB-844409E0B9DE}
      <SOURCE MIDI
        HASDATA 1 480 QN
        CCINTERP 32
        POOLEDEVTS {07288FA9-440B-1447-9615-60C8455B4BD5}
        <X 0 0 0 0 3 "Etüde Opus 25, No. 11"
          /wNFdMO8ZGUgT3B1cyAyNSwgTm8uIDEx
        >
        <X 0 0 0 0 3 Sturmetüde
          /wNTdHVybWV0w7xkZQ==
        >
        <X 0 0 0 0 3 "Piano right"
          /wNQaWFubyByaWdodA==
        >
        <X 0 0 0 0 3 "Piano left"
          /wNQaWFubyBsZWZ0
        >
        <X 0 0 0 0 3 "Chopin: Etude Op, 25, No. 11"
          /wNDaG9waW46IEV0dWRlIE9wLCAyNSwgTm8uIDEx
        >
        <X 0 0 0 0 3 "Copyright © 1999 by Bernd Krüger"
          /wNDb3B5cmlnaHQgwqkgMTk5OSBieSBCZXJuZCBLcsO8Z2Vy
        >
        <X 0 0 0 0 3 http://www.piano-midi.de
          /wNodHRwOi8vd3d3LnBpYW5vLW1pZGkuZGU=
        >
        <X 0 0 0 0 3 "Edition: 2014-02-18"
          /wNFZGl0aW9uOiAyMDE0LTAyLTE4
        >
        <X 0 0 0 0 3 "Spur 7"
          /wNTcHVyIDc=
        >
        <X 0 0 0 0 2 "Copyright © 1999 von Bernd Krüger. http://www.piano-midi.de"
          /wJDb3B5cmlnaHQgwqkgMTk5OSB2b24gQmVybmQgS3LDvGdlci4gaA==
          dHRwOi8vd3d3LnBpYW5vLW1pZGkuZGU=
        >
        <X 0 0 0 0 1 Chopin
          /wFDaG9waW4=
        >
        <X 0 0 0 0 1 "Allecro con brio"
          /wFBbGxlY3JvIGNvbiBicmlv
        >
        <X 0 0 0 0 1 "Fertiggestellt am 8.3.99 "
          /wFGZXJ0aWdnZXN0ZWxsdCBhbSA4LjMuOTkg
        >
        <X 0 0 0 0 1 "Update am 9.3.99 "
          /wFVcGRhdGUgYW0gOS4zLjk5IA==
        >
        <X 0 0 0 0 1 "Update am 15.3.99 "
          /wFVcGRhdGUgYW0gMTUuMy45OSA=
        >
        <X 0 0 0 0 1 "Update am 16.3.99 "
          /wFVcGRhdGUgYW0gMTYuMy45OSA=
        >
        <X 0 0 0 0 1 "Normierung: 23.12.2002 "
          /wFOb3JtaWVydW5nOiAyMy4xMi4yMDAyIA==
        >
        <X 0 0 0 0 1 "Update am 18.2.2014 "
          /wFVcGRhdGUgYW0gMTguMi4yMDE0IA==
        >
        <X 0 0 0 0 1 "Dauer3:06  Minuten "
          /wFEYXVlcjM6MDYgIE1pbnV0ZW4g
        >
        <X 0 0
          /1kCAAA=
        >
        <X 0 0 0 0 6 Lento
          /wZMZW50bw==
        >
        <X 0 0 0 0 1 bdca426d104a26ac9dcb070447587523
          /wFiZGNhNDI2ZDEwNGEyNmFjOWRjYjA3MDQ0NzU4NzUyMw==
        >
        E 0 c0 00 00
        E 0 b0 07 64
        E 0 b0 0a 40
        E 0 b0 5b 7f
        E 0 b0 07 64
        E 0 b0 0a 40
        E 0 b0 5b 7f
        E 0 90 40 3c
        E 480 90 40 00
        E 0 90 40 3c
        E 360 90 40 00
        E 0 90 40 39
        E 120 90 40 00
        E 0 90 40 3c
        E 480 90 40 00
        E 0 90 41 3a
        E 480 90 41 00
        E 0 90 40 3c
        E 480 90 40 00
        E 0 90 3c 3a
        E 480 90 3c 00
        E 0 90 40 3c
        E 960 90 40 00
        E 0 90 40 26
        E 0 90 37 1c
        E 0 90 3c 1c
        E 0 90 30 18
        E 480 90 40 00
        E 0 90 37 00
        E 0 90 3c 00
        E 0 90 30 00
        E 0 90 40 26
        E 0 90 37 1c
        E 0 90 3c 1c
        E 0 90 30 18
        E 360 90 40 00
        E 0 90 37 00
        E 0 90 3c 00
        E 0 90 30 00
        E 0 90 37 1a
        E 0 90 40 24
        E 0 90 3c 1a
        E 0 90 30 16
        E 120 90 37 00
        E 0 90 40 00
        E 0 90 3c 00
        E 0 90 30 00
        E 0 90 3c 1c
        E 0 90 37 1c
        E 0 90 40 26
        E 0 90 30 19
        E 480 90 3c 00
        E 0 90 37 00
        E 0 90 40 00
        E 0 90 30 00
        E 0 90 41 24
        E 0 90 39 1a
        E 0 90 3c 1a
        E 0 90 29 18
        E 480 90 41 00
        E 0 90 39 00
        E 0 90 3c 00
        E 0 90 29 00
        E 0 90 3c 1a
        E 0 90 37 1a
        E 0 90 40 24
        E 0 90 24 18
        E 480 90 3c 00
        E 0 90 37 00
        E 0 90 40 00
        E 0 90 24 00
        E 0 90 39 19
        E 0 90 3c 22
        E 0 90 29 16
        E 480 90 39 00
        E 0 90 3c 00
        E 0 90 29 00
        E 0 90 3c 16
        E 0 90 40 1f
        E 0 90 37 16
        E 0 90 24 14
        E 480 90 3c 00
        E 0 90 37 00
        E 0 90 24 00
        E 0 90 3e 13
        E 0 90 38 13
        E 0 90 23 12
        E 478 90 65 60
        <X 2 0 0 0 6 "Allegro con brio"
          /wZBbGxlZ3JvIGNvbiBicmlv
        >
        E 0 90 40 00
        E 0 90 3e 00
        E 0 90 38 00
        E 0 90 23 00
        E 0 90 21 70
        E 78 90 65 00
        E 3 90 60 47
        E 78 90 64 5b
        E 2 90 60 00
        E 78 90 64 00
        E 1 90 21 00
        E 2 90 5d 47
        E 79 90 63 54
        E 1 90 5d 00
        E 78 90 60 47
        E 1 90 63 00
        E 79 90 60 00
        E 0 90 62 52
        E 0 90 40 58
        E 0 90 3c 4a
        E 0 90 39 4a
        E 80 90 62 00
        E 3 90 5d 45
        E 79 90 61 4f
        E 1 90 5d 00
        E 79 90 61 00
        E 0 90 5d 45
        E 77 90 60 4f
        E 3 90 5d 00
        E 38 90 40 00
        E 0 90 3c 00
        E 0 90 39 00
        E 0 90 39 46
        E 0 90 3c 46
        E 0 90 40 52
        E 39 90 60 00
        E 4 90 58 45
        E 77 90 39 00
        E 0 90 3c 00
        E 0 90 40 00
        E 0 90 40 58
        E 0 90 3c 4a
        E 0 90 39 4a
        E 2 90 5f 4e
        E 1 90 58 00
        E 78 90 58 47
        E 1 90 5f 00
        E 77 90 5e 4e
        E 2 90 58 00
        E 77 90 54 47
        E 1 90 5e 00
        E 79 90 54 00
        E 0 90 5d 4e
        E 80 90 5d 00
        E 2 90 58 47
        E 78 90 5c 4e
        E 2 90 40 00
        E 0 90 3c 00
        E 0 90 39 00
        E 0 90 58 00
        E 0 90 39 4d
        E 0 90 3c 4d
        E 0 90 41 5c
        E 78 90 5c 00
        E 0 90 54 45
        E 80 90 54 00
        E 5 90 5b 47
        E 77 90 54 45
        E 3 90 5b 00
        E 75 90 5a 47
        E 2 90 54 00
        E 78 90 5a 00
        E 0 90 51 45
        E 80 90 51 00
        E 0 90 59 4e
        E 2 90 39 00
        E 0 90 3c 00
        E 0 90 41 00
        E 0 90 39 4a
        E 0 90 3c 4a
        E 0 90 40 58
        E 78 90 59 00
        E 2 90 54 47
        E 80 90 54 00
        E 1 90 58 4e
        E 80 90 58 00
        E 0 90 51 47
        E 80 90 51 00
        E 0 90 57 4e
        E 80 90 57 00
        E 0 90 54 47
        E 77 90 56 4e
        E 2 90 39 00
        E 0 90 3c 00
        E 0 90 40 00
        E 0 90 34 46
        E 0 90 39 46
        E 0 90 3c 52
        E 1 90 54 00
        E 77 90 56 00
        E 3 90 51 45
        E 79 90 55 47
        E 1 90 51 00
        E 79 90 55 00
        E 0 90 51 45
        E 78 90 54 47
        E 2 90 51 00
        E 78 90 54 00
        E 3 90 4c 45
        E 79 90 34 00
        E 0 90 39 00
        E 0 90 3c 00
        E 0 90 39 46
        E 0 90 3c 46
        E 0 90 40 52
        E 1 90 4c 00
        E 1 90 53 47
        E 80 90 53 00
        E 0 90 4c 45
        E 79 90 52 47
        E 1 90 4c 00
        E 77 90 48 45
        E 2 90 52 00
        E 78 90 48 00
        E 4 90 51 47
        E 79 90 4c 45
        E 1 90 51 00
        E 79 90 4c 00
        E 1 90 50 47
        E 80 90 50 00
        E 0 90 48 45
        E 78 90 4f 47
        E 2 90 48 00
        E 75 90 48 45
        E 3 90 4f 00
        E 77 90 48 00
        E 2 90 4e 47
        E 79 90 45 45
        E 1 90 4e 00
        E 79 90 45 00
        E 1 90 39 00
        E 0 90 3c 00
        E 0 90 40 00
        E 0 90 21 63
        E 3 90 4d 38
        E 76 90 48 33
        E 4 90 4d 00
        E 76 90 48 00
        E 3 90 4c 38
        E 78 90 21 00
        E 2 90 4c 00
        E 1 90 45 38
        E 80 90 45 00
        E 0 90 4b 38
        E 80 90 4b 00
        E 0 90 48 33
        E 77 90 2d 3a
        E 0 90 34 45
        E 1 90 4a 38
        E 2 90 48 00
        E 77 90 45 33
        E 1 90 4a 00
        E 78 90 49 38
        E 1 90 45 00
        E 79 90 49 00
        E 0 90 45 33
        E 80 90 45 00
        E 4 90 48 38
        E 37 90 2d 00
        E 0 90 34 00
        E 0 90 2d 32
        E 0 90 34 3d
        E 38 90 40 33
        E 5 90 48 00
        E 75 90 40 00
        E 2 90 2d 00
        E 0 90 34 00
        E 0 90 47 38
        E 0 90 2d 3c
        E 0 90 34 46
        E 78 90 40 32
        E 2 90 47 00
        E 78 90 40 00
        E 4 90 46 37
        E 76 90 3c 31
        E 4 90 46 00
        E 76 90 3c 00
        E 0 90 45 35
        E 80 90 45 00
        E 5 90 40 2f
        E 76 90 44 32
        E 1 90 2d 00
        E 0 90 34 00
        E 0 90 2d 34
        E 0 90 35 3e
        E 3 90 40 00
        E 76 90 44 00
        E 0 90 3c 2e
        E 80 90 3c 00
        E 2 90 43 31
        E 80 90 43 00
        E 1 90 3c 2e
        E 80 90 3c 00
        E 1 90 42 2f
        E 79 90 39 2d
        E 1 90 42 00
        E 77 90 2d 00
        E 0 90 35 00
        E 0 90 41 2f
        E 0 90 2d 37
        E 0 90 34 3f
        E 2 90 39 00
        E 77 90 3c 2d
        E 1 90 41 00
        E 79 90 3c 00
        E 3 90 40 2f
        E 78 90 39 2d
        E 2 90 40 00
        E 78 90 39 00
        E 0 90 3f 2e
        E 80 90 3f 00
        E 3 90 3c 2c
        E 77 90 2d 00
        E 0 90 34 00
        E 0 90 21 3c
        E 2 90 3e 2d
        E 1 90 3c 00
        E 75 90 39 2a
        E 4 90 3e 00
        E 76 90 39 00
        E 3 90 3d 2d
        E 79 90 39 28
        E 1 90 3d 00
        E 79 90 39 00
        E 2 90 3c 2c
        E 79 90 34 2a
        E 1 90 3c 00
        E 78 90 28 44
        E 1 90 34 00
        E 0 90 3b 2c
        E 79 90 34 2a
        E 1 90 3b 00
        E 77 90 3a 2f
        E 2 90 34 00
        E 78 90 3a 00
        E 1 90 30 2d
        E 80 90 30 00
        E 1 90 39 31
        E 80 90 39 00
        E 2 90 34 2f
        E 79 90 38 35
        E 1 90 34 00
        E 79 90 38 00
        E 2 90 30 31
        E 79 90 39 38
        E 1 90 30 00
        E 77 90 34 35
        E 2 90 39 00
        E 77 90 3c 3b
        E 1 90 34 00
        E 79 90 3c 00
        E 2 90 35 3b
        E 79 90 21 00
        E 0 90 28 00
        E 0 90 40 3b
        E 0 90 20 63
        E 1 90 35 00
        E 77 90 3b 3b
        E 2 90 40 00
        E 78 90 3b 00
        E 4 90 3e 3b
        E 78 90 20 00
        E 1 90 41 3b
        E 1 90 3e 00
        E 76 90 4c 3b
        E 3 90 41 00
        E 77 90 4c 00
        E 5 90 47 3b
        E 75 90 4a 3e
        E 2 90 35 42
        E 0 90 3e 4d
        E 3 90 47 00
        E 75 90 4a 00
        E 5 90 4d 40
        E 79 90 58 43
        E 1 90 4d 00
        E 76 90 53 44
        E 3 90 58 00
        E 77 90 53 00
        E 1 90 56 45
        E 40 90 35 00
        E 0 90 3e 00
        E 0 90 35 3d
        E 0 90 3e 49
        E 38 90 4d 46
        E 2 90 56 00
        E 78 90 4d 00
        E 2 90 35 00
        E 0 90 3e 00
        E 0 90 35 42
        E 0 90 3c 4d
        E 3 90 56 45
        E 79 90 51 44
        E 1 90 56 00
        E 75 90 54 43
        E 4 90 51 00
        E 76 90 54 00
        E 5 90 4d 42
        E 79 90 4a 40
        E 1 90 4d 00
        E 78 90 45 3e
        E 1 90 4a 00
        E 77 90 48 3a
        E 1 90 35 00
        E 0 90 3c 00
        E 0 90 21 46
        E 0 90 2d 54
        E 1 90 45 00
        E 78 90 48 00
        E 0 90 41 3a
        E 80 90 41 00
        E 3 90 3e 3a
        E 78 90 39 3a
        E 2 90 3e 00
        E 76 90 3c 3a
        E 2 90 39 00
        E 78 90 3c 00
        E 3 90 35 3a
        E 79 90 21 00
        E 0 90 2d 00
        E 0 90 20 49
        E 0 90 2c 56
        E 1 90 35 00
        E 1 90 40 3b
        E 78 90 3b 3b
        E 2 90 40 00
        E 77 90 3e 3b
        E 1 90 3b 00
        E 79 90 3e 00
        E 1 90 20 00
        E 0 90 2c 00
        E 1 90 41 3b
        E 80 90 41 00
        E 1 90 4c 3b
        E 80 90 4c 00
        E 0 90 47 3b
        E 78 90 37 4d
        E 0 90 3e 42
        E 2 90 47 00
        E 0 90 4a 40
        E 78 90 4d 40
        E 2 90 4a 00
        E 76 90 58 42
        E 2 90 37 00
        E 0 90 3e 00
        E 0 90 4d 00
        E 0 90 35 48
        E 0 90 3e 3c
        E 78 90 58 00
        E 2 90 53 43
        E 80 90 35 00
        E 0 90 3e 00
        E 0 90 53 00
        E 0 90 34 49
        E 0 90 3e 3d
        E 3 90 56 45
        E 75 90 4c 45
        E 5 90 56 00
        E 75 90 4c 00
        E 2 90 34 00
        E 0 90 3e 00
        E 0 90 34 4d
        E 0 90 3c 42
        E 1 90 56 43
        E 80 90 56 00
        E 0 90 51 42
        E 79 90 54 40
        E 1 90 51 00
        E 77 90 4c 3e
        E 2 90 54 00
        E 78 90 4c 00
        E 5 90 4a 3d
        E 80 90 4a 00
        E 0 90 45 3c
        E 77 90 34 00
        E 0 90 3c 00
        E 0 90 21 44
        E 0 90 2d 51
        E 1 90 48 3b
        E 2 90 45 00
        E 77 90 40 3b
        E 1 90 48 00
        E 79 90 40 00
        E 0 90 3e 3b
        E 80 90 3e 00
        E 0 90 39 3b
        E 80 90 39 00
        E 3 90 3c 3b
        E 76 90 3b 3b
        E 4 90 3c 00
        E 76 90 3b 00
        E 1 90 21 00
        E 0 90 2d 00
        E 0 90 45 3b
        E 0 90 23 42
        E 0 90 2f 4d
        E 79 90 40 3a
        E 1 90 45 00
        E 79 90 40 00
        E 4 90 44 3a
        E 76 90 47 3a
        E 1 90 23 00
        E 0 90 2f 00
        E 3 90 44 00
        E 76 90 47 00
        E 3 90 51 3a
        E 79 90 4c 3a
        E 1 90 51 00
        E 77 90 50 3a
        E 1 90 38 3c
        E 0 90 3b 3c
        E 0 90 40 46
        E 1 90 4c 00
        E 78 90 50 00
        E 3 90 53 39
        E 78 90 40 00
        E 0 90 44 42
        E 2 90 53 00
        E 1 90 5d 3a
        E 77 90 58 3b
        E 3 90 5d 00
        E 77 90 44 00
        E 0 90 58 00
        E 0 90 49 46
        E 1 90 5c 3b
        E 80 90 5c 00
        E 2 90 53 3b
        E 75 90 5c 3c
        E 2 90 38 00
        E 0 90 3b 00
        E 0 90 49 00
        E 0 90 3b 3c
        E 0 90 3f 3c
        E 0 90 47 46
        E 0 90 45 46
        E 3 90 53 00
        E 75 90 5c 00
        E 5 90 57 3c
        E 78 90 5a 3b
        E 2 90 57 00
        E 75 90 53 3b
        E 3 90 5a 00
        E 77 90 53 00
        E 3 90 50 3b
        E 78 90 4b 3a
        E 2 90 50 00
        E 78 90 4b 00
        E 1 90 3b 00
        E 0 90 3f 00
        E 0 90 47 00
        E 0 90 45 00
        E 0 90 2f 42
        E 0 90 3b 4d
        E 3 90 4e 37
        E 78 90 47 37
        E 2 90 4e 00
        E 78 90 47 00
        E 0 90 44 37
        E 78 90 3f 37
        E 2 90 44 00
        E 78 90 3f 00
        E 4 90 42 37
        E 75 90 3b 37
        E 5 90 42 00
        E 75 90 3b 00
        E 0 90 45 37
        E 2 90 2f 00
        E 0 90 3b 00
        E 0 90 28 42
        E 0 90 34 4d
        E 78 90 45 00
        E 4 90 40 37
        E 77 90 44 37
        E 3 90 40 00
        E 77 90 44 00
        E 1 90 28 00
        E 0 90 34 00
        E 3 90 47 37
        E 76 90 51 37
        E 4 90 47 00
        E 76 90 51 00
        E 1 90 4c 37
        E 78 90 50 37
        E 2 90 4c 00
        E 0 90 44 43
        E 0 90 3b 38
        E 78 90 50 00
        E 4 90 53 3b
        E 78 90 44 00
        E 0 90 3b 00
        E 0 90 43 3a
        E 0 90 3a 31
        E 2 90 53 00
        E 1 90 5d 3b
        E 79 90 58 3b
        E 1 90 5d 00
        E 77 90 43 00
        E 0 90 3a 00
        E 0 90 44 3f
        E 0 90 3b 37
        E 1 90 5c 3b
        E 1 90 58 00
        E 79 90 5c 00
        E 1 90 53 3b
        E 78 90 44 00
        E 0 90 3b 00
        E 0 90 64 51
        E 0 90 34 3f
        E 0 90 38 3f
        E 0 90 40 48
        E 2 90 53 00
        E 238 90 64 00
        E 0 90 34 00
        E 0 90 38 00
        E 0 90 40 00
        E 719 90 65 5e
        E 1 90 21 64
        E 78 90 60 45
        E 1 90 65 00
        E 79 90 60 00
        E 0 90 64 5a
        E 80 90 64 00
        E 0 90 5d 45
        E 2 90 21 00
        E 78 90 5d 00
        E 4 90 63 54
        E 80 90 63 00
        E 1 90 60 45
        E 76 90 62 52
        E 1 90 40 54
        E 0 90 3c 46
        E 0 90 39 46
        E 3 90 60 00
        E 75 90 5d 43
        E 1 90 62 00
        E 79 90 5d 00
        E 3 90 61 4f
        E 77 90 5d 43
        E 3 90 61 00
        E 77 90 5d 00
        E 0 90 60 4e
        E 42 90 40 00
        E 0 90 3c 00
        E 0 90 39 00
        E 0 90 39 43
        E 0 90 3c 43
        E 0 90 40 4f
        E 38 90 60 00
        E 2 90 58 43
        E 80 90 39 00
        E 0 90 3c 00
        E 0 90 40 00
        E 0 90 58 00
        E 0 90 40 54
        E 0 90 3c 46
        E 0 90 39 46
        E 2 90 5f 4d
        E 80 90 5f 00
        E 0 90 58 45
        E 79 90 5e 4b
        E 1 90 58 00
        E 76 90 54 45
        E 3 90 5e 00
        E 77 90 54 00
        E 2 90 5d 49
        E 79 90 58 45
        E 1 90 5d 00
        E 79 90 58 00
        E 1 90 40 00
        E 0 90 3c 00
        E 0 90 39 00
        E 0 90 39 4a
        E 0 90 3c 4a
        E 0 90 41 58
        E 2 90 5c 49
        E 77 90 54 43
        E 3 90 5c 00
        E 77 90 54 00
        E 1 90 5b 45
        E 79 90 54 43
        E 1 90 5b 00
        E 79 90 54 00
        E 2 90 5a 45
        E 80 90 5a 00
        E 0 90 51 43
        E 79 90 39 00
        E 0 90 3c 00
        E 0 90 41 00
        E 0 90 39 46
        E 0 90 3c 46
        E 0 90 40 54
        E 1 90 51 00
        E 0 90 59 49
        E 77 90 54 45
        E 3 90 59 00
        E 77 90 54 00
        E 3 90 58 49
        E 80 90 58 00
        E 2 90 51 45
        E 79 90 57 49
        E 1 90 51 00
        E 79 90 57 00
        E 1 90 54 45
        E 76 90 56 49
        E 1 90 39 00
        E 0 90 3c 00
        E 0 90 40 00
        E 0 90 34 43
        E 0 90 39 43
        E 0 90 3c 4f
        E 3 90 54 00
        E 76 90 56 00
        E 1 90 51 43
        E 79 90 55 45
        E 1 90 51 00
        E 79 90 55 00
        E 4 90 51 43
        E 77 90 54 45
        E 3 90 51 00
        E 77 90 54 00
        E 3 90 4c 43
        E 75 90 53 45
        E 2 90 34 00
        E 0 90 39 00
        E 0 90 3c 00
        E 0 90 39 43
        E 0 90 3c 43
        E 0 90 40 4f
        E 3 90 4c 00
        E 75 90 53 00
        E 3 90 4c 43
        E 77 90 52 45
        E 3 90 4c 00
        E 77 90 52 00
        E 2 90 48 43
        E 80 90 48 00
        E 3 90 51 45
        E 75 90 4c 43
        E 5 90 51 00
        E 75 90 4c 00
        E 5 90 50 45
        E 76 90 48 43
        E 4 90 50 00
        E 76 90 48 00
        E 0 90 4f 45
        E 80 90 4f 00
        E 3 90 48 43
        E 78 90 4e 45
        E 2 90 48 00
        E 77 90 45 43
        E 1 90 4e 00
        E 79 90 45 00
        E 1 90 39 00
        E 0 90 3c 00
        E 0 90 40 00
        E 0 90 18 46
        E 0 90 24 50
        E 1 90 4d 38
        E 80 90 4d 00
        E 0 90 46 38
        E 79 90 4c 38
        E 1 90 46 00
        E 79 90 18 00
        E 0 90 24 00
        E 0 90 4c 00
        E 0 90 43 33
        E 80 90 43 00
        E 1 90 4b 38
        E 80 90 4b 00
        E 0 90 46 33
        E 79 90 2b 3a
        E 0 90 34 45
        E 1 90 46 00
        E 2 90 4a 38
        E 79 90 43 33
        E 1 90 4a 00
        E 78 90 49 38
        E 1 90 43 00
        E 79 90 49 00
        E 1 90 46 33
        E 79 90 48 38
        E 1 90 46 00
        E 38 90 2b 00
        E 0 90 34 00
        E 0 90 2b 32
        E 0 90 34 3d
        E 40 90 43 33
        E 1 90 48 00
        E 78 90 47 38
        E 1 90 2b 00
        E 0 90 34 00
        E 0 90 43 00
        E 0 90 2b 3c
        E 0 90 34 46
        E 79 90 47 00
        E 3 90 43 32
        E 79 90 46 37
        E 1 90 43 00
        E 79 90 46 00
        E 2 90 40 31
        E 76 90 45 35
        E 4 90 40 00
        E 76 90 45 00
        E 0 90 3c 2f
        E 80 90 3c 00
        E 1 90 2b 00
        E 0 90 34 00
        E 0 90 2b 34
        E 0 90 35 3e
        E 1 90 44 32
        E 80 90 44 00
        E 1 90 3a 2e
        E 79 90 43 31
        E 1 90 3a 00
        E 78 90 3c 2e
        E 1 90 43 00
        E 79 90 3c 00
        E 0 90 42 2f
        E 78 90 3a 2d
        E 2 90 42 00
        E 78 90 3a 00
        E 2 90 2b 00
        E 0 90 35 00
        E 0 90 2b 31
        E 0 90 34 3a
        E 2 90 41 2f
        E 79 90 3c 2d
        E 1 90 41 00
        E 79 90 3c 00
        E 0 90 40 2f
        E 80 90 40 00
        E 1 90 3a 2d
        E 80 90 3a 00
        E 0 90 3f 2e
        E 76 90 3c 2c
        E 4 90 3f 00
        E 76 90 3c 00
        E 2 90 2b 00
        E 0 90 34 00
        E 0 90 30 3a
        E 0 90 24 37
        E 1 90 3e 2d
        E 80 90 3e 00
        E 2 90 37 2a
        E 80 90 37 00
        E 0 90 3d 2d
        E 78 90 3a 28
        E 2 90 3d 00
        E 78 90 3a 00
        E 1 90 3c 2c
        E 76 90 37 27
        E 4 90 3c 00
        E 76 90 37 00
        E 2 90 30 00
        E 0 90 34 3a
        E 0 90 2b 31
        E 2 90 3b 2c
        E 80 90 3b 00
        E 1 90 37 2a
        E 76 90 3c 2f
        E 4 90 37 00
        E 76 90 3c 00
        E 2 90 3a 2d
        E 78 90 3d 31
        E 2 90 3a 00
        E 78 90 3d 00
        E 0 90 37 2f
        E 79 90 3e 35
        E 1 90 37 00
        E 79 90 3e 00
        E 5 90 3a 31
        E 80 90 3a 00
        E 0 90 3f 38
        E 79 90 37 35
        E 1 90 3f 00
        E 75 90 40 3b
        E 4 90 37 00
        E 76 90 40 00
        E 1 90 3a 38
        E 79 90 45 3b
        E 1 90 3a 00
        E 1 90 24 00
        E 0 90 34 00
        E 0 90 2b 00
        E 0 90 24 4a
        E 78 90 45 00
        E 0 90 40 3b
        E 80 90 40 00
        E 3 90 43 3b
        E 79 90 24 00
        E 1 90 43 00
        E 1 90 46 3b
        E 79 90 51 3b
        E 1 90 46 00
        E 78 90 4c 3b
        E 1 90 51 00
        E 79 90 4c 00
        E 0 90 4f 3b
        E 0 90 40 37
        E 0 90 3a 37
        E 0 90 37 3d
        E 79 90 52 3b
        E 1 90 4f 00
        E 79 90 52 00
        E 1 90 40 00
        E 0 90 3a 00
        E 0 90 37 00
        E 0 90 5d 3c
        E 0 90 2f 3e
        E 80 90 5d 00
        E 1 90 58 3e
        E 77 90 5b 40
        E 2 90 2f 00
        E 0 90 30 3f
        E 1 90 58 00
        E 77 90 5b 00
        E 1 90 52 42
        E 80 90 52 00
        E 1 90 30 00
        E 0 90 31 45
        E 0 90 3f 3a
        E 0 90 3a 3a
        E 0 90 37 3a
        E 2 90 5d 43
        E 77 90 57 43
        E 3 90 5d 00
        E 77 90 57 00
        E 3 90 5b 42
        E 80 90 5b 00
        E 1 90 52 40
        E 80 90 52 00
        E 0 90 51 40
        E 79 90 4b 3e
        E 1 90 51 00
        E 76 90 4f 3e
        E 1 90 31 00
        E 0 90 3f 00
        E 0 90 3a 00
        E 0 90 37 00
        E 0 90 25 3c
        E 0 90 31 48
        E 2 90 4b 00
        E 77 90 4f 00
        E 4 90 46 3b
        E 75 90 45 3b
        E 5 90 46 00
        E 75 90 45 00
        E 0 90 3f 3b
        E 80 90 3f 00
        E 4 90 43 3b
        E 79 90 3a 3b
        E 1 90 43 00
        E 78 90 25 00
        E 0 90 31 00
        E 0 90 26 42
        E 0 90 32 4d
        E 1 90 3a 00
        E 0 90 45 3b
        E 80 90 45 00
        E 2 90 3e 3b
        E 75 90 43 3b
        E 5 90 3e 00
        E 75 90 43 00
        E 2 90 26 00
        E 0 90 32 00
        E 3 90 46 3b
        E 78 90 51 3b
        E 2 90 46 00
        E 76 90 4a 3b
        E 2 90 51 00
        E 77 90 4f 3b
        E 1 90 4a 00
        E 1 90 40 37
        E 0 90 3a 37
        E 0 90 37 3f
        E 78 90 4f 00
        E 3 90 52 3b
        E 78 90 5d 3c
        E 1 90 40 00
        E 0 90 3a 00
        E 0 90 37 00
        E 0 90 2f 3f
        E 1 90 52 00
        E 78 90 5d 00
        E 0 90 56 3e
        E 80 90 56 00
        E 1 90 2f 00
        E 0 90 31 3f
        E 3 90 5b 42
        E 78 90 52 44
        E 2 90 5b 00
        E 32 90 33 46
        E 5 90 31 00
        E 10 90 37 46
        E 15 90 3a 3a
        E 15 90 3f 3a
        E 1 90 52 00
        E 0 90 5d 45
        E 77 90 55 45
        E 3 90 5d 00
        E 77 90 55 00
        E 2 90 5b 44
        E 80 90 5b 00
        E 0 90 52 43
        E 80 90 52 00
        E 0 90 51 42
        E 80 90 51 00
        E 2 90 49 40
        E 78 90 33 00
        E 0 90 37 00
        E 0 90 3a 00
        E 0 90 3f 00
        E 0 90 27 3c
        E 0 90 33 48
        E 1 90 4f 3b
        E 1 90 49 00
        E 78 90 46 3b
        E 1 90 4f 00
        E 79 90 46 00
        E 2 90 45 3b
        E 79 90 3d 3b
        E 1 90 45 00
        E 79 90 3d 00
        E 0 90 43 3b
        E 79 90 3a 3b
        E 1 90 43 00
        E 77 90 45 3b
        E 2 90 27 00
        E 0 90 33 00
        E 0 90 3a 00
        E 0 90 28 50
        E 0 90 34 50
        E 78 90 45 00
        E 4 90 3c 3b
        E 76 90 43 3b
        E 4 90 3c 00
        E 76 90 43 00
        E 2 90 28 00
        E 0 90 34 00
        E 1 90 3a 3b
        E 80 90 3a 00
        E 2 90 48 3b
        E 77 90 45 3b
        E 3 90 48 00
        E 77 90 45 00
        E 0 90 3c 58
        E 2 90 46 3d
        E 78 90 43 3e
        E 2 90 46 00
        E 78 90 43 00
        E 0 90 51 40
        E 80 90 51 00
        E 2 90 48 40
        E 79 90 4f 40
        E 1 90 48 00
        E 38 90 3c 00
        E 0 90 3c 4f
        E 40 90 46 40
        E 1 90 4f 00
        E 79 90 3c 00
        E 0 90 46 00
        E 0 90 3c 58
        E 3 90 54 40
        E 78 90 51 40
        E 2 90 54 00
        E 76 90 52 3e
        E 2 90 51 00
        E 78 90 52 00
        E 1 90 4f 3d
        E 78 90 5d 3d
        E 2 90 4f 00
        E 78 90 5d 00
        E 4 90 54 3c
        E 78 90 3c 00
        E 0 90 24 37
        E 0 90 30 3f
        E 2 90 54 00
        E 1 90 5b 3b
        E 78 90 52 3b
        E 2 90 5b 00
        E 75 90 60 3b
        E 3 90 52 00
        E 77 90 60 00
        E 1 90 5d 3b
        E 79 90 5e 3b
        E 1 90 5d 00
        E 79 90 5e 00
        E 3 90 5b 3b
        E 77 90 62 3b
        E 2 90 24 00
        E 0 90 30 00
        E 0 90 29 3a
        E 0 90 35 46
        E 1 90 5b 00
        E 77 90 62 00
        E 5 90 5d 3b
        E 80 90 5d 00
        E 0 90 60 3b
        E 77 90 29 00
        E 0 90 35 00
        E 1 90 59 3b
        E 2 90 60 00
        E 78 90 59 00
        E 1 90 5c 3b
        E 80 90 5c 00
        E 1 90 59 3b
        E 75 90 5d 3b
        E 2 90 45 4a
        E 3 90 59 00
        E 75 90 5d 00
        E 0 90 54 3b
        E 80 90 54 00
        E 4 90 58 3b
        E 79 90 54 3b
        E 1 90 58 00
        E 77 90 59 3b
        E 2 90 54 00
        E 39 90 45 00
        E 0 90 39 43
        E 38 90 51 3b
        E 1 90 59 00
        E 79 90 51 00
        E 1 90 55 3b
        E 1 90 3e 46
        E 0 90 35 46
        E 79 90 55 00
        E 2 90 51 3b
        E 79 90 56 3b
        E 1 90 51 00
        E 78 90 4d 3b
        E 1 90 56 00
        E 79 90 4d 00
        E 1 90 50 3b
        E 40 90 3e 00
        E 0 90 40 43
        E 40 90 50 00
        E 1 90 4d 3b
        E 79 90 40 00
        E 0 90 41 46
        E 1 90 4d 00
        E 1 90 51 3b
        E 80 90 51 00
        E 0 90 4a 3b
        E 79 90 4c 3b
        E 1 90 4a 00
        E 79 90 4c 00
        E 0 90 4a 3b
        E 80 90 4a 00
        E 1 90 4d 3b
        E 80 90 4d 00
        E 1 90 45 3b
        E 75 90 4c 3b
        E 2 90 39 00
        E 0 90 35 00
        E 0 90 41 00
        E 0 90 1f 4d
        E 0 90 2b 4d
        E 3 90 45 00
        E 75 90 4c 00
        E 3 90 47 3b
        E 79 90 4a 3b
        E 1 90 47 00
        E 78 90 4d 3b
        E 1 90 1f 00
        E 0 90 2b 00
        E 0 90 4a 00
        E 78 90 58 3b
        E 1 90 4d 00
        E 79 90 58 00
        E 5 90 53 3b
        E 75 90 56 37
        E 2 90 37 46
        E 0 90 3b 46
        E 3 90 53 00
        E 75 90 56 00
        E 2 90 59 35
        E 80 90 3b 00
        E 0 90 59 00
        E 0 90 41 3f
        E 1 90 64 37
        E 78 90 5f 38
        E 2 90 64 00
        E 78 90 5f 00
        E 1 90 41 00
        E 0 90 45 3f
        E 1 90 62 39
        E 78 90 59 3a
        E 2 90 62 00
        E 78 90 59 00
        E 0 90 5d 39
        E 1 90 37 00
        E 0 90 45 00
        E 0 90 43 46
        E 78 90 59 39
        E 1 90 5d 00
        E 79 90 59 00
        E 4 90 5b 38
        E 76 90 53 38
        E 4 90 5b 00
        E 76 90 53 00
        E 1 90 51 37
        E 80 90 51 00
        E 3 90 4d 37
        E 78 90 43 00
        E 0 90 37 44
        E 0 90 3b 44
        E 0 90 41 44
        E 2 90 4d 00
        E 1 90 4f 37
        E 79 90 47 3b
        E 1 90 4f 00
        E 79 90 47 00
        E 0 90 58 3b
        E 79 90 4f 3b
        E 1 90 58 00
        E 78 90 56 3b
        E 1 90 4f 00
        E 79 90 56 00
        E 3 90 4d 3b
        E 76 90 53 3b
        E 1 90 37 00
        E 0 90 3b 00
        E 0 90 41 00
        E 0 90 24 48
        E 0 90 30 48
        E 3 90 4d 00
        E 76 90 53 00
        E 4 90 4f 3b
        E 76 90 54 3b
        E 4 90 4f 00
        E 76 90 54 00
        E 0 90 4c 3b
        E 1 90 24 00
        E 0 90 30 00
        E 79 90 4c 00
        E 2 90 57 3b
        E 39 90 30 37
        E 41 90 57 00
        E 2 90 54 3b
        E 17 90 37 37
        E 58 90 58 3b
        E 2 90 40 3f
        E 3 90 54 00
        E 75 90 58 00
        E 0 90 4f 3b
        E 80 90 4f 00
        E 3 90 5a 3b
        E 79 90 58 37
        E 1 90 5a 00
        E 77 90 5b 3b
        E 2 90 58 00
        E 78 90 5b 00
        E 1 90 54 37
        E 80 90 54 00
        E 1 90 30 00
        E 0 90 37 00
        E 0 90 40 00
        E 3 90 5e 3b
        E 76 90 5b 33
        E 4 90 5e 00
        E 75 90 5f 3a
        E 1 90 5b 00
        E 79 90 5f 00
        E 0 90 58 37
        E 80 90 58 00
        E 5 90 60 3b
        E 75 90 5b 3a
        E 5 90 60 00
        E 75 90 5b 00
        E 0 90 61 3d
        E 80 90 61 00
        E 0 90 58 3b
        E 80 90 58 00
        E 2 90 62 40
        E 80 90 62 00
        E 3 90 5b 3e
        E 77 90 63 45
        E 3 90 5b 00
        E 77 90 63 00
        E 0 90 58 43
        E 80 90 58 00
        E 0 90 28 5a
        E 0 90 1c 5a
        E 3 90 64 59
        E 80 90 64 00
        E 0 90 5f 40
        E 78 90 63 4b
        E 2 90 5f 00
        E 77 90 28 00
        E 0 90 1c 00
        E 1 90 63 00
        E 2 90 5b 40
        E 79 90 62 49
        E 1 90 5b 00
        E 77 90 5f 40
        E 2 90 62 00
        E 77 90 61 3d
        E 1 90 5f 00
        E 0 90 3b 4d
        E 0 90 37 42
        E 0 90 34 42
        E 78 90 5b 3b
        E 1 90 61 00
        E 79 90 5b 00
        E 3 90 60 3d
        E 80 90 60 00
        E 2 90 5b 3b
        E 77 90 5f 3d
        E 3 90 5b 00
        E 37 90 3b 00
        E 0 90 37 00
        E 0 90 34 00
        E 0 90 34 3c
        E 0 90 37 3c
        E 0 90 3b 48
        E 39 90 58 3b
        E 1 90 5f 00
        E 79 90 58 00
        E 1 90 34 00
        E 0 90 37 00
        E 0 90 3b 00
        E 0 90 3b 4d
        E 0 90 37 42
        E 0 90 34 42
        E 1 90 5e 45
        E 78 90 5b 40
        E 2 90 5e 00
        E 78 90 5b 00
        E 3 90 5d 45
        E 80 90 5d 00
        E 1 90 58 40
        E 77 90 5c 45
        E 3 90 58 00
        E 77 90 5c 00
        E 3 90 58 40
        E 75 90 5b 45
        E 2 90 3b 00
        E 0 90 37 00
        E 0 90 34 00
        E 0 90 34 43
        E 0 90 37 43
        E 0 90 3c 50
        E 3 90 58 00
        E 75 90 5b 00
        E 5 90 54 3b
        E 78 90 5a 3d
        E 2 90 54 00
        E 78 90 5a 00
        E 1 90 54 3b
        E 79 90 59 3d
        E 1 90 54 00
        E 76 90 4f 3b
        E 3 90 59 00
        E 77 90 4f 00
        E 1 90 58 45
        E 1 90 34 00
        E 0 90 37 00
        E 0 90 3c 00
        E 0 90 34 42
        E 0 90 37 42
        E 0 90 3b 4d
        E 79 90 58 00
        E 1 90 53 40
        E 78 90 57 45
        E 2 90 53 00
        E 78 90 57 00
        E 2 90 4f 40
        E 78 90 56 45
        E 2 90 4f 00
        E 78 90 56 00
        E 3 90 53 40
        E 79 90 34 00
        E 0 90 37 00
        E 0 90 3b 00
        E 0 90 34 3c
        E 0 90 37 48
        E 0 90 2f 3c
        E 1 90 53 00
        E 2 90 55 3d
        E 75 90 4f 3b
        E 5 90 55 00
        E 75 90 4f 00
        E 4 90 54 3d
        E 79 90 4f 3b
        E 1 90 54 00
        E 79 90 4f 00
        E 1 90 53 3d
        E 80 90 53 00
        E 0 90 4c 3b
        E 78 90 34 00
        E 0 90 37 00
        E 0 90 2f 00
        E 0 90 34 3c
        E 0 90 3b 48
        E 0 90 37 3c
        E 1 90 52 45
        E 1 90 4c 00
        E 79 90 52 00
        E 1 90 4f 40
        E 76 90 51 45
        E 4 90 4f 00
        E 76 90 51 00
        E 4 90 4c 40
        E 80 90 4c 00
        E 0 90 50 45
        E 80 90 50 00
        E 0 90 4c 40
        E 76 90 4f 45
        E 4 90 4c 00
        E 76 90 4f 00
        E 5 90 47 3b
        E 78 90 4e 3d
        E 2 90 47 00
        E 78 90 4e 00
        E 1 90 47 3b
        E 76 90 4d 3d
        E 4 90 47 00
        E 76 90 4d 00
        E 3 90 43 3b
        E 79 90 34 00
        E 0 90 3b 00
        E 0 90 37 00
        E 0 90 1c 4a
        E 1 90 43 00
        E 2 90 4c 3b
        E 75 90 47 37
        E 5 90 4c 00
        E 75 90 47 00
        E 1 90 4b 3b
        E 79 90 43 37
        E 1 90 4b 00
        E 1 90 1c 00
        E 78 90 43 00
        E 5 90 4a 3b
        E 78 90 47 37
        E 2 90 4a 00
        E 76 90 49 3b
        E 1 90 28 3a
        E 0 90 2f 45
        E 1 90 47 00
        E 78 90 49 00
        E 4 90 43 37
        E 77 90 48 3b
        E 3 90 43 00
        E 77 90 48 00
        E 2 90 43 37
        E 77 90 47 3b
        E 3 90 43 00
        E 38 90 28 00
        E 0 90 2f 00
        E 0 90 2f 3d
        E 0 90 28 32
        E 38 90 40 37
        E 1 90 47 00
        E 79 90 40 00
        E 1 90 46 3b
        E 1 90 2f 00
        E 0 90 28 00
        E 0 90 28 3c
        E 0 90 2f 46
        E 79 90 46 00
        E 2 90 43 37
        E 80 90 43 00
        E 2 90 45 3b
        E 75 90 40 37
        E 5 90 45 00
        E 75 90 40 00
        E 5 90 44 3b
        E 77 90 40 37
        E 3 90 44 00
        E 75 90 43 3b
        E 2 90 28 00
        E 0 90 2f 00
        E 0 90 40 00
        E 0 90 28 34
        E 0 90 30 3e
        E 78 90 43 00
        E 4 90 3c 37
        E 77 90 42 3b
        E 3 90 3c 00
        E 77 90 42 00
        E 4 90 3c 37
        E 79 90 41 3b
        E 1 90 3c 00
        E 79 90 41 00
        E 1 90 37 37
        E 76 90 40 37
        E 1 90 28 00
        E 0 90 30 00
        E 0 90 28 37
        E 0 90 2f 3f
        E 3 90 37 00
        E 76 90 40 00
        E 1 90 3b 32
        E 78 90 3f 35
        E 2 90 3b 00
        E 78 90 3f 00
        E 4 90 37 2f
        E 76 90 3e 32
        E 4 90 37 00
        E 76 90 3e 00
        E 2 90 3b 2e
        E 79 90 3d 31
        E 1 90 28 00
        E 0 90 2f 00
        E 0 90 3b 00
        E 0 90 1c 37
        E 79 90 3d 00
        E 4 90 37 2d
        E 75 90 3c 2f
        E 5 90 37 00
        E 75 90 3c 00
        E 1 90 37 2d
        E 80 90 37 00
        E 0 90 3b 2e
        E 80 90 3b 00
        E 0 90 34 2a
        E 79 90 3a 2d
        E 1 90 34 00
        E 1 90 23 3a
        E 78 90 3a 00
        E 3 90 37 2d
        E 80 90 37 00
        E 2 90 39 2f
        E 80 90 39 00
        E 0 90 2f 2d
        E 76 90 38 2f
        E 4 90 2f 00
        E 76 90 38 00
        E 3 90 34 2e
        E 79 90 37 31
        E 1 90 34 00
        E 79 90 37 00
        E 0 90 2f 2e
        E 80 90 2f 00
        E 2 90 36 31
        E 77 90 34 2e
        E 3 90 36 00
        E 77 90 34 00
        E 3 90 37 32
        E 78 90 30 32
        E 2 90 37 00
        E 75 90 3b 3b
        E 2 90 1c 00
        E 0 90 23 00
        E 0 90 1b 46
        E 1 90 30 00
        E 77 90 3b 00
        E 3 90 36 3b
        E 80 90 36 00
        E 0 90 39 3b
        E 79 90 1b 00
        E 0 90 3c 3b
        E 1 90 39 00
        E 79 90 3c 00
        E 3 90 47 3b
        E 78 90 42 3b
        E 2 90 47 00
        E 77 90 3c 4d
        E 0 90 33 4d
        E 1 90 42 00
        E 0 90 45 3e
        E 80 90 45 00
        E 0 90 48 42
        E 78 90 53 43
        E 2 90 48 00
        E 78 90 53 00
        E 1 90 4e 45
        E 80 90 4e 00
        E 0 90 51 45
        E 40 90 3c 00
        E 0 90 33 00
        E 0 90 3c 49
        E 0 90 33 49
        E 38 90 48 45
        E 2 90 51 00
        E 78 90 48 00
        E 2 90 3c 00
        E 0 90 33 00
        E 0 90 34 4d
        E 0 90 3c 4d
        E 2 90 51 44
        E 77 90 4c 43
        E 3 90 51 00
        E 76 90 4f 42
        E 1 90 4c 00
        E 79 90 4f 00
        E 2 90 48 3e
        E 80 90 48 00
        E 1 90 45 3d
        E 77 90 40 3c
        E 3 90 45 00
        E 77 90 40 00
        E 1 90 43 3a
        E 1 90 34 00
        E 0 90 3c 00
        E 0 90 1c 42
        E 0 90 28 4d
        E 78 90 3c 3a
        E 1 90 43 00
        E 79 90 3c 00
        E 3 90 39 3a
        E 79 90 34 3a
        E 1 90 39 00
        E 79 90 34 00
        E 1 90 37 3a
        E 80 90 37 00
        E 1 90 30 3a
        E 78 90 1c 00
        E 0 90 28 00
        E 0 90 3b 3b
        E 0 90 1b 43
        E 0 90 27 43
        E 2 90 30 00
        E 78 90 3b 00
        E 2 90 36 3b
        E 78 90 39 3b
        E 2 90 36 00
        E 78 90 1b 00
        E 0 90 27 00
        E 0 90 39 00
        E 3 90 3c 3b
        E 78 90 47 3b
        E 2 90 3c 00
        E 76 90 42 3b
        E 2 90 47 00
        E 78 90 42 00
        E 1 90 3e 4d
        E 0 90 33 4d
        E 3 90 45 40
        E 80 90 45 00
        E 0 90 48 42
        E 77 90 3e 00
        E 0 90 33 00
        E 0 90 53 43
        E 0 90 3c 48
        E 0 90 33 48
        E 3 90 48 00
        E 77 90 53 00
        E 3 90 4e 44
        E 76 90 51 45
        E 4 90 4e 00
        E 76 90 51 00
        E 1 90 3c 00
        E 0 90 33 00
        E 0 90 33 49
        E 0 90 3b 49
        E 3 90 47 46
        E 77 90 33 00
        E 0 90 3b 00
        E 0 90 3b 4d
        E 0 90 34 4d
        E 1 90 51 46
        E 2 90 47 00
        E 77 90 4c 45
        E 1 90 51 00
        E 79 90 4c 00
        E 1 90 4f 44
        E 80 90 4f 00
        E 1 90 47 43
        E 76 90 45 42
        E 4 90 47 00
        E 76 90 45 00
        E 1 90 40 40
        E 80 90 40 00
        E 0 90 43 3b
        E 1 90 3b 00
        E 0 90 34 00
        E 0 90 1c 43
        E 0 90 28 4f
        E 79 90 43 00
        E 1 90 3b 3b
        E 80 90 3b 00
        E 3 90 39 3b
        E 79 90 34 3b
        E 1 90 39 00
        E 79 90 34 00
        E 0 90 37 3b
        E 80 90 37 00
        E 1 90 36 3b
        E 77 90 1c 00
        E 0 90 28 00
        E 0 90 40 3b
        E 0 90 2a 45
        E 0 90 1e 45
        E 3 90 36 00
        E 77 90 40 00
        E 0 90 3b 3a
        E 80 90 3b 00
        E 3 90 3f 3a
        E 76 90 42 3a
        E 1 90 2a 00
        E 0 90 1e 00
        E 3 90 3f 00
        E 76 90 42 00
        E 1 90 4c 3a
        E 80 90 4c 00
        E 1 90 47 3a
        E 79 90 4b 3a
        E 0 90 3b 46
        E 0 90 36 3c
        E 1 90 47 00
        E 79 90 4b 00
        E 2 90 4e 3a
        E 78 90 3b 00
        E 0 90 3f 42
        E 2 90 4e 00
        E 0 90 58 3b
        E 80 90 58 00
        E 0 90 53 3b
        E 78 90 3f 00
        E 0 90 44 46
        E 2 90 53 00
        E 0 90 57 3d
        E 76 90 4e 3e
        E 4 90 57 00
        E 76 90 4e 00
        E 1 90 57 40
        E 1 90 36 00
        E 0 90 44 00
        E 0 90 3a 3c
        E 0 90 42 46
        E 0 90 40 46
        E 0 90 36 3c
        E 79 90 57 00
        E 0 90 52 40
        E 80 90 52 00
        E 3 90 55 3d
        E 80 90 55 00
        E 1 90 4e 3c
        E 77 90 4b 3b
        E 3 90 4e 00
        E 77 90 4b 00
        E 1 90 46 3b
        E 77 90 49 37
        E 2 90 3a 00
        E 0 90 42 00
        E 0 90 40 00
        E 0 90 36 00
        E 0 90 2a 4d
        E 0 90 1e 42
        E 1 90 46 00
        E 77 90 49 00
        E 5 90 42 37
        E 76 90 3f 37
        E 4 90 42 00
        E 76 90 3f 00
        E 2 90 3a 37
        E 80 90 3a 00
        E 0 90 3d 37
        E 79 90 36 37
        E 1 90 3d 00
        E 79 90 2a 00
        E 0 90 1e 00
        E 0 90 36 00
        E 0 90 23 42
        E 0 90 2f 4d
        E 2 90 3f 37
        E 76 90 3b 37
        E 4 90 3f 00
        E 76 90 3b 00
        E 0 90 3f 37
        E 80 90 3f 00
        E 0 90 42 37
        E 2 90 23 00
        E 0 90 2f 00
        E 78 90 42 00
        E 0 90 4c 37
        E 80 90 4c 00
        E 2 90 47 37
        E 79 90 4b 37
        E 1 90 47 00
        E 0 90 36 38
        E 0 90 3f 43
        E 79 90 4b 00
        E 3 90 4e 3b
        E 76 90 58 3b
        E 2 90 36 00
        E 0 90 3f 00
        E 0 90 35 31
        E 0 90 3e 3a
        E 2 90 4e 00
        E 76 90 58 00
        E 2 90 53 3b
        E 78 90 57 3b
        E 2 90 35 00
        E 0 90 3e 00
        E 0 90 53 00
        E 0 90 3f 3f
        E 0 90 36 37
        E 78 90 57 00
        E 4 90 4e 3b
        E 78 90 3f 00
        E 0 90 36 00
        E 0 90 5f 53
        E 0 90 33 41
        E 0 90 3b 4c
        E 0 90 2f 41
        E 2 90 4e 00
        E 238 90 5f 00
        E 0 90 33 00
        E 0 90 3b 00
        E 0 90 2f 00
        E 720 90 28 5a
        E 2 90 60 5e
        E 77 90 5b 46
        E 3 90 60 00
        E 77 90 5b 00
        E 3 90 5f 5a
        E 78 90 28 00
        E 1 90 58 46
        E 1 90 5f 00
        E 79 90 58 00
        E 0 90 5e 58
        E 80 90 5e 00
        E 0 90 5b 46
        E 77 90 5d 55
        E 2 90 3b 4d
        E 0 90 37 42
        E 0 90 34 42
        E 1 90 5b 00
        E 77 90 5d 00
        E 3 90 58 44
        E 77 90 5c 54
        E 3 90 58 00
        E 77 90 5c 00
        E 5 90 58 44
        E 77 90 5b 50
        E 3 90 58 00
        E 37 90 3b 00
        E 0 90 37 00
        E 0 90 34 00
        E 0 90 34 3c
        E 0 90 37 3c
        E 0 90 3b 48
        E 40 90 5b 00
        E 3 90 53 44
        E 77 90 34 00
        E 0 90 37 00
        E 0 90 3b 00
        E 0 90 3b 4d
        E 0 90 37 42
        E 0 90 34 42
        E 2 90 5a 51
        E 1 90 53 00
        E 78 90 53 46
        E 1 90 5a 00
        E 79 90 53 00
        E 1 90 59 4d
        E 80 90 59 00
        E 0 90 4f 46
        E 78 90 58 4d
        E 2 90 4f 00
        E 78 90 58 00
        E 0 90 53 46
        E 78 90 57 4d
        E 2 90 3b 00
        E 0 90 37 00
        E 0 90 34 00
        E 0 90 53 00
        E 0 90 34 43
        E 0 90 37 43
        E 0 90 3c 50
        E 78 90 57 00
        E 4 90 4f 44
        E 77 90 56 49
        E 3 90 4f 00
        E 76 90 4f 44
        E 1 90 56 00
        E 79 90 4f 00
        E 1 90 55 46
        E 80 90 55 00
        E 3 90 4c 44
        E 77 90 54 4d
        E 1 90 34 00
        E 0 90 37 00
        E 0 90 3c 00
        E 0 90 34 42
        E 0 90 37 42
        E 0 90 3b 4d
        E 2 90 4c 00
        E 77 90 54 00
        E 0 90 4f 46
        E 80 90 4f 00
        E 1 90 53 4d
        E 78 90 4c 46
        E 2 90 53 00
        E 78 90 4c 00
        E 2 90 52 4d
        E 80 90 52 00
        E 1 90 4f 46
        E 79 90 34 00
        E 0 90 37 00
        E 0 90 3b 00
        E 0 90 2f 3c
        E 0 90 34 3c
        E 0 90 37 48
        E 1 90 4f 00
        E 0 90 51 4d
        E 80 90 51 00
        E 1 90 4c 44
        E 78 90 50 46
        E 2 90 4c 00
        E 78 90 50 00
        E 0 90 4c 44
        E 80 90 4c 00
        E 3 90 4f 46
        E 80 90 4f 00
        E 0 90 47 46
        E 77 90 2f 00
        E 0 90 34 00
        E 0 90 37 00
        E 0 90 34 3c
        E 0 90 37 3c
        E 0 90 3b 48
        E 1 90 4e 46
        E 2 90 47 00
        E 78 90 4e 00
        E 2 90 47 44
        E 75 90 4d 46
        E 5 90 47 00
        E 75 90 4d 00
        E 3 90 43 44
        E 80 90 43 00
        E 2 90 4c 46
        E 77 90 47 44
        E 3 90 4c 00
        E 76 90 4b 46
        E 1 90 47 00
        E 79 90 4b 00
        E 0 90 43 44
        E 79 90 4a 46
        E 1 90 43 00
        E 79 90 4a 00
        E 3 90 43 44
        E 79 90 49 46
        E 1 90 43 00
        E 77 90 40 44
        E 2 90 49 00
        E 78 90 40 00
        E 0 90 48 3d
        E 2 90 34 00
        E 0 90 37 00
        E 0 90 3b 00
        E 0 90 1f 3e
        E 78 90 48 00
        E 2 90 43 3b
        E 80 90 43 00
        E 3 90 47 3d
        E 77 90 1f 00
        E 3 90 47 00
        E 0 90 40 3b
        E 77 90 46 3d
        E 3 90 40 00
        E 77 90 46 00
        E 2 90 43 3b
        E 78 90 26 3a
        E 0 90 2f 45
        E 1 90 45 3d
        E 1 90 43 00
        E 79 90 45 00
        E 1 90 40 3b
        E 80 90 40 00
        E 1 90 44 3d
        E 78 90 40 3b
        E 2 90 44 00
        E 78 90 40 00
        E 0 90 43 3d
        E 39 90 2f 00
        E 0 90 2f 3d
        E 38 90 3b 3b
        E 3 90 43 00
        E 77 90 3b 00
        E 2 90 2f 00
        E 0 90 2f 46
        E 2 90 42 3d
        E 78 90 3b 3a
        E 2 90 42 00
        E 78 90 3b 00
        E 1 90 41 3c
        E 80 90 41 00
        E 0 90 37 38
        E 80 90 37 00
        E 0 90 40 3b
        E 80 90 40 00
        E 1 90 3b 37
        E 78 90 2f 00
        E 0 90 30 3e
        E 2 90 3b 00
        E 0 90 3f 3b
        E 78 90 36 35
        E 2 90 3f 00
        E 76 90 3e 38
        E 2 90 36 00
        E 78 90 3e 00
        E 1 90 37 33
        E 80 90 37 00
        E 1 90 3d 37
        E 79 90 35 31
        E 1 90 3d 00
        E 79 90 35 00
        E 1 90 30 00
        E 0 90 2f 49
        E 2 90 3c 37
        E 78 90 37 32
        E 2 90 3c 00
        E 78 90 37 00
        E 3 90 3b 35
        E 75 90 35 31
        E 5 90 3b 00
        E 75 90 35 00
        E 4 90 3a 32
        E 79 90 37 2f
        E 1 90 3a 00
        E 78 90 26 00
        E 0 90 2f 00
        E 0 90 1f 45
        E 1 90 37 00
        E 2 90 39 31
        E 76 90 32 2e
        E 4 90 39 00
        E 76 90 32 00
        E 2 90 38 31
        E 80 90 38 00
        E 2 90 35 2e
        E 79 90 37 31
        E 1 90 35 00
        E 79 90 37 00
        E 1 90 2f 2d
        E 76 90 36 31
        E 1 90 26 42
        E 3 90 2f 00
        E 76 90 36 00
        E 4 90 35 2e
        E 79 90 37 35
        E 1 90 35 00
        E 79 90 37 00
        E 1 90 2f 32
        E 80 90 2f 00
        E 0 90 38 38
        E 80 90 38 00
        E 0 90 35 37
        E 78 90 39 3b
        E 2 90 35 00
        E 76 90 32 38
        E 2 90 39 00
        E 78 90 32 00
        E 2 90 3a 3d
        E 78 90 37 3b
        E 2 90 3a 00
        E 78 90 37 00
        E 0 90 3b 40
        E 80 90 3b 00
        E 3 90 35 40
        E 78 90 1f 00
        E 0 90 26 00
        E 0 90 1f 4b
        E 2 90 35 00
        E 0 90 40 45
        E 77 90 3b 45
        E 3 90 40 00
        E 77 90 3b 00
        E 3 90 3e 45
        E 78 90 1f 00
        E 0 90 41 45
        E 2 90 3e 00
        E 76 90 4c 45
        E 2 90 41 00
        E 78 90 4c 00
        E 4 90 47 45
        E 78 90 3b 52
        E 0 90 32 46
        E 2 90 47 00
        E 1 90 4a 42
        E 75 90 4d 43
        E 5 90 4a 00
        E 75 90 4d 00
        E 1 90 58 45
        E 1 90 3b 00
        E 0 90 32 00
        E 0 90 2a 49
        E 79 90 58 00
        E 2 90 53 46
        E 79 90 2a 00
        E 0 90 56 48
        E 0 90 2b 4f
        E 1 90 53 00
        E 79 90 56 00
        E 2 90 4d 49
        E 77 90 58 4d
        E 1 90 2b 00
        E 0 90 2c 52
        E 0 90 3a 52
        E 0 90 32 46
        E 2 90 4d 00
        E 77 90 58 00
        E 3 90 52 49
        E 80 90 52 00
        E 1 90 56 48
        E 75 90 4d 47
        E 5 90 56 00
        E 75 90 4d 00
        E 3 90 4c 45
        E 80 90 4c 00
        E 1 90 46 45
        E 77 90 4a 40
        E 1 90 2c 00
        E 0 90 3a 00
        E 0 90 32 00
        E 0 90 20 56
        E 2 90 46 00
        E 76 90 41 40
        E 1 90 4a 00
        E 79 90 41 00
        E 1 90 40 40
        E 80 90 40 00
        E 3 90 3a 40
        E 80 90 3a 00
        E 1 90 3e 40
        E 78 90 35 40
        E 2 90 3e 00
        E 77 90 20 00
        E 0 90 40 45
        E 0 90 21 51
        E 1 90 35 00
        E 79 90 40 00
        E 2 90 39 45
        E 77 90 3e 45
        E 3 90 39 00
        E 77 90 3e 00
        E 1 90 21 00
        E 1 90 41 45
        E 78 90 4c 45
        E 2 90 41 00
        E 78 90 4c 00
        E 0 90 45 45
        E 80 90 45 00
        E 1 90 3e 50
        E 0 90 35 43
        E 3 90 4a 44
        E 76 90 4d 44
        E 4 90 4a 00
        E 75 90 58 45
        E 1 90 4d 00
        E 1 90 3e 00
        E 0 90 35 00
        E 0 90 2c 49
        E 78 90 58 00
        E 4 90 51 46
        E 76 90 56 47
        E 2 90 2c 00
        E 0 90 2d 4f
        E 2 90 51 00
        E 76 90 56 00
        E 0 90 4d 48
        E 80 90 4d 00
        E 0 90 58 49
        E 2 90 2d 00
        E 0 90 2e 52
        E 0 90 3e 52
        E 0 90 38 46
        E 0 90 35 46
        E 78 90 58 00
        E 2 90 50 48
        E 80 90 50 00
        E 1 90 56 47
        E 79 90 4d 46
        E 1 90 56 00
        E 79 90 4d 00
        E 0 90 4c 45
        E 80 90 4c 00
        E 0 90 44 45
        E 78 90 4a 40
        E 2 90 2e 00
        E 0 90 3e 00
        E 0 90 38 00
        E 0 90 35 00
        E 0 90 44 00
        E 0 90 22 5e
        E 78 90 4a 00
        E 3 90 41 40
        E 80 90 41 00
        E 1 90 40 40
        E 78 90 38 40
        E 2 90 40 00
        E 78 90 38 00
        E 1 90 3e 40
        E 80 90 3e 00
        E 2 90 35 40
        E 77 90 22 00
        E 0 90 23 5a
        E 1 90 40 45
        E 2 90 35 00
        E 78 90 40 00
        E 0 90 37 45
        E 77 90 3e 45
        E 3 90 37 00
        E 77 90 3e 00
        E 2 90 23 00
        E 0 90 35 45
        E 79 90 43 45
        E 1 90 35 00
        E 79 90 43 00
        E 1 90 40 45
        E 80 90 40 00
        E 0 90 37 60
        E 3 90 41 46
        E 77 90 3e 46
        E 3 90 41 00
        E 75 90 4c 46
        E 2 90 3e 00
        E 78 90 4c 00
        E 3 90 43 46
        E 80 90 43 00
        E 1 90 4a 46
        E 38 90 37 00
        E 0 90 37 56
        E 42 90 4a 00
        E 0 90 41 46
        E 78 90 37 00
        E 0 90 37 60
        E 2 90 41 00
        E 1 90 4f 45
        E 80 90 4f 00
        E 0 90 4c 45
        E 76 90 4d 45
        E 4 90 4c 00
        E 76 90 4d 00
        E 4 90 4a 45
        E 78 90 58 45
        E 2 90 4a 00
        E 78 90 58 00
        E 1 90 4f 45
        E 78 90 37 00
        E 0 90 1f 37
        E 0 90 2b 37
        E 2 90 4f 00
        E 0 90 56 40
        E 80 90 56 00
        E 0 90 4d 3b
        E 80 90 4d 00
        E 1 90 5b 3b
        E 80 90 5b 00
        E 0 90 58 3b
        E 80 90 58 00
        E 0 90 59 3b
        E 78 90 56 3b
        E 2 90 59 00
        E 77 90 1f 00
        E 0 90 2b 00
        E 0 90 5d 3e
        E 0 90 24 3c
        E 0 90 30 3c
        E 1 90 56 00
        E 77 90 58 3e
        E 2 90 5d 00
        E 78 90 58 00
        E 2 90 5b 3e
        E 80 90 24 00
        E 0 90 30 00
        E 0 90 5b 00
        E 2 90 54 3e
        E 78 90 64 44
        E 2 90 54 00
        E 77 90 5b 3e
        E 1 90 64 00
        E 78 90 62 42
        E 1 90 5b 00
        E 1 90 34 39
        E 78 90 62 00
        E 3 90 58 3b
        E 79 90 34 00
        E 0 90 3c 39
        E 1 90 58 00
        E 1 90 60 3f
        E 76 90 5c 3b
        E 4 90 60 00
        E 76 90 5c 00
        E 0 90 5f 3f
        E 2 90 3c 00
        E 0 90 44 39
        E 78 90 5f 00
        E 2 90 58 3b
        E 80 90 44 00
        E 0 90 58 00
        E 0 90 29 39
        E 2 90 5e 3e
        E 80 90 5e 00
        E 0 90 59 3b
        E 76 90 5c 3e
        E 4 90 59 00
        E 76 90 5c 00
        E 0 90 55 3b
        E 2 90 29 00
        E 78 90 55 00
        E 0 90 5a 3e
        E 80 90 5a 00
        E 2 90 55 3b
        E 78 90 59 3e
        E 2 90 55 00
        E 0 90 35 30
        E 0 90 38 39
        E 78 90 59 00
        E 5 90 50 3b
        E 77 90 35 00
        E 0 90 38 00
        E 0 90 3d 39
        E 1 90 57 3e
        E 2 90 50 00
        E 75 90 50 3b
        E 3 90 57 00
        E 77 90 50 00
        E 2 90 3d 00
        E 0 90 44 39
        E 3 90 55 3e
        E 78 90 4d 3b
        E 2 90 55 00
        E 77 90 44 00
        E 0 90 55 3b
        E 0 90 2b 44
        E 1 90 4d 00
        E 77 90 4e 3b
        E 2 90 55 00
        E 78 90 4e 00
        E 1 90 54 3b
        E 80 90 54 00
        E 1 90 2b 00
        E 0 90 4c 3b
        E 80 90 4c 00
        E 1 90 4f 3b
        E 80 90 4f 00
        E 1 90 48 3b
        E 76 90 50 37
        E 2 90 37 34
        E 0 90 3c 3e
        E 2 90 48 00
        E 76 90 50 00
        E 4 90 4c 37
        E 76 90 4e 37
        E 2 90 37 00
        E 0 90 3c 00
        E 0 90 40 39
        E 2 90 4c 00
        E 76 90 4e 00
        E 3 90 48 37
        E 79 90 40 00
        E 0 90 43 39
        E 1 90 48 00
        E 0 90 4f 37
        E 80 90 4f 00
        E 2 90 4c 37
        E 77 90 43 00
        E 0 90 51 37
        E 0 90 2b 3e
        E 3 90 4c 00
        E 76 90 47 37
        E 1 90 51 00
        E 79 90 47 00
        E 0 90 4e 37
        E 80 90 4e 00
        E 1 90 2b 00
        E 2 90 4d 37
        E 78 90 4f 37
        E 2 90 4d 00
        E 78 90 4f 00
        E 0 90 47 37
        E 80 90 47 00
        E 0 90 41 39
        E 0 90 37 39
        E 0 90 3e 39
        E 0 90 43 39
        E 1 90 53 37
        E 77 90 4d 35
        E 3 90 53 00
        E 77 90 4d 00
        E 5 90 58 35
        E 79 90 4f 35
        E 1 90 58 00
        E 75 90 56 35
        E 4 90 4f 00
        E 76 90 56 00
        E 2 90 4d 35
        E 50 90 30 3c
        E 15 90 37 3c
        E 15 90 41 00
        E 0 90 37 00
        E 0 90 3e 00
        E 0 90 43 00
        E 0 90 4d 00
        E 0 90 40 3c
        E 2 90 56 37
        E 80 90 56 00
        E 1 90 4f 2e
        E 79 90 54 37
        E 1 90 4f 00
        E 78 90 4c 2e
        E 1 90 54 00
        E 79 90 4c 00
        E 0 90 51 37
        E 80 90 51 00
        E 2 90 4c 2f
        E 77 90 30 00
        E 0 90 37 00
        E 0 90 40 00
        E 2 90 4f 37
        E 1 90 4c 00
        E 76 90 48 2f
        E 3 90 4f 00
        E 77 90 48 00
        E 2 90 4d 37
        E 78 90 48 2f
        E 2 90 4d 00
        E 78 90 48 00
        E 2 90 4c 37
        E 80 90 4c 00
        E 1 90 43 2f
        E 77 90 51 37
        E 3 90 43 00
        E 77 90 51 00
        E 2 90 4c 31
        E 79 90 4f 37
        E 1 90 4c 00
        E 79 90 4f 00
        E 3 90 48 31
        E 79 90 4d 37
        E 1 90 48 00
        E 79 90 4d 00
        E 0 90 48 2f
        E 79 90 4c 37
        E 1 90 48 00
        E 78 90 43 31
        E 1 90 4c 00
        E 79 90 43 00
        E 2 90 51 37
        E 80 90 51 00
        E 0 90 4c 2f
        E 80 90 4c 00
        E 1 90 4f 37
        E 76 90 48 2f
        E 4 90 4f 00
        E 76 90 48 00
        E 1 90 4c 45
        E 0 90 4f 52
        E 1 90 45 42
        E 80 90 45 00
        E 2 90 40 3d
        E 78 90 43 42
        E 2 90 40 00
        E 78 90 43 00
        E 2 90 3d 3d
        E 78 90 41 42
        E 2 90 3d 00
        E 77 90 3d 3d
        E 1 90 41 00
        E 79 90 4c 00
        E 0 90 4f 00
        E 0 90 3d 00
        E 0 90 4c 45
        E 0 90 4f 52
        E 0 90 43 45
        E 0 90 40 42
        E 80 90 40 00
        E 3 90 3a 3d
        E 80 90 3a 00
        E 0 90 3e 42
        E 76 90 3a 3d
        E 4 90 3e 00
        E 76 90 3a 00
        E 0 90 3d 42
        E 41 90 4c 00
        E 0 90 4f 00
        E 0 90 43 00
        E 0 90 4c 3f
        E 0 90 43 3f
        E 0 90 4f 4d
        E 39 90 3d 00
        E 0 90 37 3d
        E 80 90 37 00
        E 1 90 4c 00
        E 0 90 43 00
        E 0 90 4f 00
        E 0 90 43 45
        E 0 90 4f 52
        E 0 90 4c 45
        E 2 90 3c 42
        E 80 90 3c 00
        E 1 90 37 3d
        E 78 90 3a 42
        E 2 90 37 00
        E 75 90 34 3d
        E 3 90 3a 00
        E 77 90 34 00
        E 3 90 39 42
        E 77 90 34 3d
        E 3 90 39 00
        E 77 90 34 00
        E 2 90 43 00
        E 0 90 4f 00
        E 0 90 4c 00
        E 0 90 4c 48
        E 0 90 45 48
        E 0 90 51 55
        E 1 90 37 42
        E 80 90 37 00
        E 0 90 31 3d
        E 79 90 35 3d
        E 1 90 31 00
        E 77 90 31 39
        E 2 90 35 00
        E 78 90 31 00
        E 5 90 34 3d
        E 75 90 2e 39
        E 5 90 34 00
        E 75 90 2e 00
        E 2 90 4c 00
        E 0 90 45 00
        E 0 90 51 00
        E 0 90 4f 52
        E 0 90 43 45
        E 0 90 4c 45
        E 1 90 32 3d
        E 77 90 2e 3d
        E 3 90 32 00
        E 77 90 2e 00
        E 1 90 31 42
        E 80 90 31 00
        E 2 90 2b 3d
        E 78 90 30 42
        E 2 90 2b 00
        E 78 90 30 00
        E 0 90 2b 3d
        E 80 90 2b 00
        E 1 90 4f 00
        E 0 90 43 00
        E 0 90 4c 00
        E 0 90 49 3f
        E 0 90 43 3f
        E 0 90 4c 4d
        E 1 90 2e 42
        E 79 90 28 39
        E 1 90 2e 00
        E 79 90 28 00
        E 0 90 2d 3d
        E 79 90 28 39
        E 1 90 2d 00
        E 79 90 28 00
        E 3 90 2b 3d
        E 76 90 25 39
        E 4 90 2b 00
        E 76 90 25 00
        E 2 90 49 00
        E 0 90 43 00
        E 0 90 4c 00
        E 0 90 43 3f
        E 0 90 4f 4d
        E 0 90 4c 3f
        E 0 90 29 3d
        E 80 90 29 00
        E 1 90 25 39
        E 80 90 25 00
        E 1 90 28 3d
        E 78 90 22 39
        E 2 90 28 00
        E 76 90 26 3d
        E 2 90 22 00
        E 78 90 26 00
        E 2 90 22 39
        E 80 90 22 00
        E 0 90 25 3d
        E 78 90 1f 39
        E 2 90 25 00
        E 78 90 1f 00
        E 4 90 24 3d
        E 80 90 24 00
        E 0 90 1f 39
        E 80 90 1f 00
        E 1 90 22 3d
        E 78 90 1c 39
        E 2 90 22 00
        E 77 90 43 00
        E 0 90 4f 00
        E 0 90 4c 00
        E 0 90 4f 45
        E 0 90 52 52
        E 1 90 1c 00
        E 0 90 48 42
        E 80 90 48 00
        E 0 90 43 3d
        E 80 90 43 00
        E 1 90 46 42
        E 80 90 46 00
        E 0 90 40 3d
        E 80 90 40 00
        E 1 90 45 42
        E 77 90 40 3d
        E 3 90 45 00
        E 77 90 4f 00
        E 0 90 52 00
        E 0 90 40 00
        E 0 90 46 45
        E 0 90 4f 45
        E 0 90 52 52
        E 0 90 43 42
        E 78 90 3d 3d
        E 2 90 43 00
        E 78 90 3d 00
        E 5 90 41 42
        E 79 90 3d 3d
        E 1 90 41 00
        E 77 90 40 42
        E 2 90 3d 00
        E 38 90 46 00
        E 0 90 4f 00
        E 0 90 52 00
        E 0 90 46 3f
        E 0 90 4f 3f
        E 0 90 52 4d
        E 38 90 3a 3d
        E 2 90 40 00
        E 78 90 3a 00
        E 2 90 46 00
        E 0 90 4f 00
        E 0 90 52 00
        E 0 90 52 52
        E 0 90 46 45
        E 0 90 4f 45
        E 3 90 3e 42
        E 79 90 3a 3d
        E 1 90 3e 00
        E 75 90 3d 42
        E 4 90 3a 00
        E 76 90 3d 00
        E 2 90 37 3d
        E 80 90 37 00
        E 3 90 3c 42
        E 75 90 37 3d
        E 5 90 3c 00
        E 75 90 37 00
        E 0 90 3a 42
        E 2 90 52 00
        E 0 90 46 00
        E 0 90 4f 00
        E 0 90 48 48
        E 0 90 54 55
        E 0 90 4f 48
        E 78 90 3a 00
        E 1 90 34 39
        E 79 90 39 3d
        E 1 90 34 00
        E 79 90 39 00
        E 3 90 34 39
        E 77 90 37 3d
        E 3 90 34 00
        E 77 90 37 00
        E 3 90 31 39
        E 79 90 48 00
        E 0 90 54 00
        E 0 90 4f 00
        E 0 90 46 45
        E 0 90 4f 45
        E 0 90 52 52
        E 1 90 31 00
        E 0 90 35 3d
        E 80 90 35 00
        E 1 90 31 3d
        E 80 90 31 00
        E 0 90 34 42
        E 80 90 34 00
        E 1 90 2e 3d
        E 79 90 32 42
        E 1 90 2e 00
        E 76 90 2e 3d
        E 3 90 32 00
        E 77 90 2e 00
        E 1 90 46 00
        E 0 90 4f 00
        E 0 90 52 00
        E 0 90 4f 51
        E 0 90 46 44
        E 0 90 4c 44
        E 2 90 31 42
        E 78 90 2b 39
        E 2 90 31 00
        E 78 90 2b 00
        E 3 90 30 3d
        E 79 90 2b 39
        E 1 90 30 00
        E 76 90 2e 3d
        E 3 90 2b 00
        E 77 90 2e 00
        E 0 90 28 39
        E 80 90 28 00
        E 1 90 4f 00
        E 0 90 46 00
        E 0 90 4c 00
        E 0 90 4f 46
        E 0 90 46 46
        E 0 90 52 54
        E 0 90 2d 3d
        E 79 90 28 39
        E 1 90 2d 00
        E 79 90 28 00
        E 2 90 2b 3d
        E 78 90 25 39
        E 2 90 2b 00
        E 78 90 25 00
        E 4 90 29 3d
        E 76 90 25 39
        E 4 90 29 00
        E 76 90 25 00
        E 1 90 28 3d
        E 79 90 22 39
        E 1 90 28 00
        E 78 90 26 3d
        E 1 90 22 00
        E 79 90 26 00
        E 1 90 22 39
        E 79 90 25 3d
        E 1 90 22 00
        E 79 90 25 00
        E 4 90 1f 39
        E 78 90 4f 00
        E 0 90 46 00
        E 0 90 52 00
        E 0 90 27 4a
        E 2 90 1f 00
        E 0 90 60 43
        E 5 90 1b 4a
        E 75 90 60 00
        E 1 90 57 3a
        E 75 90 5e 3d
        E 5 90 57 00
        E 75 90 5e 00
        E 2 90 27 00
        E 0 90 55 3a
        E 7 90 1b 00
        E 73 90 55 00
        E 0 90 5c 3d
        E 80 90 5c 00
        E 2 90 57 3a
        E 78 90 5b 38
        E 0 90 3f 40
        E 2 90 57 00
        E 78 90 5b 00
        E 0 90 55 34
        E 80 90 55 00
        E 2 90 59 38
        E 77 90 55 34
        E 3 90 59 00
        E 77 90 55 00
        E 2 90 57 38
        E 39 90 3f 00
        E 0 90 3f 3d
        E 38 90 4f 34
        E 3 90 57 00
        E 77 90 4f 00
        E 2 90 3f 00
        E 0 90 33 37
        E 0 90 3c 37
        E 0 90 3f 42
        E 3 90 59 3d
        E 80 90 59 00
        E 0 90 54 3a
        E 80 90 54 00
        E 0 90 57 3d
        E 75 90 50 3a
        E 5 90 57 00
        E 75 90 50 00
        E 2 90 55 3d
        E 80 90 55 00
        E 1 90 50 3a
        E 79 90 33 00
        E 0 90 3c 00
        E 0 90 3f 00
        E 0 90 44 40
        E 1 90 50 00
        E 1 90 54 3d
        E 80 90 54 00
        E 0 90 4b 34
        E 77 90 52 38
        E 3 90 4b 00
        E 77 90 52 00
        E 4 90 4b 34
        E 79 90 50 38
        E 1 90 4b 00
        E 37 90 44 00
        E 0 90 3c 3d
        E 39 90 48 34
        E 3 90 50 00
        E 77 90 48 00
        E 1 90 3c 00
        E 0 90 33 32
        E 0 90 3f 3d
        E 1 90 54 3d
        E 77 90 4b 3a
        E 3 90 54 00
        E 77 90 4b 00
        E 3 90 52 3d
        E 80 90 52 00
        E 1 90 49 3a
        E 80 90 49 00
        E 0 90 51 3d
        E 76 90 4b 3a
        E 4 90 51 00
        E 76 90 4b 00
        E 2 90 3f 00
        E 0 90 3a 40
        E 2 90 52 38
        E 79 90 49 34
        E 1 90 52 00
        E 79 90 49 00
        E 2 90 55 38
        E 80 90 55 00
        E 0 90 4b 34
        E 79 90 4f 38
        E 1 90 4b 00
        E 37 90 3a 00
        E 0 90 3f 3d
        E 39 90 49 34
        E 3 90 4f 00
        E 77 90 49 00
        E 1 90 3f 00
        E 0 90 52 3d
        E 0 90 2c 32
        E 0 90 3c 3d
        E 80 90 52 00
        E 0 90 4b 3a
        E 78 90 50 3d
        E 2 90 4b 00
        E 78 90 50 00
        E 3 90 48 3a
        E 77 90 4f 3d
        E 3 90 48 00
        E 77 90 4f 00
        E 4 90 4b 3a
        E 78 90 33 00
        E 0 90 2c 00
        E 0 90 3c 00
        E 2 90 4b 00
        E 0 90 50 3d
        E 77 90 48 34
        E 3 90 50 00
        E 76 90 52 38
        E 1 90 48 00
        E 79 90 52 00
        E 0 90 4b 34
        E 80 90 4b 00
        E 4 90 50 38
        E 76 90 48 34
        E 4 90 50 00
        E 76 90 48 00
        E 2 90 5c 32
        E 0 90 23 30
        E 0 90 2f 30
        E 80 90 5c 00
        E 2 90 53 30
        E 80 90 53 00
        E 0 90 5a 32
        E 78 90 23 00
        E 0 90 2f 00
        E 0 90 51 30
        E 2 90 5a 00
        E 78 90 51 00
        E 3 90 58 32
        E 78 90 53 30
        E 2 90 58 00
        E 76 90 57 30
        E 1 90 3b 35
        E 1 90 53 00
        E 78 90 57 00
        E 1 90 51 2c
        E 80 90 51 00
        E 3 90 55 30
        E 75 90 51 2c
        E 5 90 55 00
        E 75 90 51 00
        E 0 90 53 30
        E 42 90 3b 00
        E 0 90 3b 32
        E 38 90 53 00
        E 0 90 4e 2c
        E 80 90 4e 00
        E 0 90 58 32
        E 2 90 3b 00
        E 0 90 2f 2e
        E 0 90 38 2e
        E 0 90 3b 37
        E 78 90 58 00
        E 5 90 50 30
        E 76 90 57 32
        E 4 90 50 00
        E 76 90 57 00
        E 1 90 4c 30
        E 80 90 4c 00
        E 2 90 55 32
        E 76 90 50 30
        E 4 90 55 00
        E 76 90 50 00
        E 2 90 2f 00
        E 0 90 38 00
        E 0 90 3b 00
        E 0 90 40 35
        E 2 90 53 32
        E 77 90 4c 2c
        E 3 90 53 00
        E 77 90 4c 00
        E 4 90 51 30
        E 76 90 4c 2c
        E 1 90 40 00
        E 3 90 51 00
        E 76 90 4c 00
        E 0 90 50 30
        E 41 90 38 32
        E 39 90 50 00
        E 0 90 47 2c
        E 80 90 47 00
        E 0 90 50 32
        E 1 90 38 00
        E 0 90 2f 2a
        E 0 90 3b 32
        E 79 90 50 00
        E 4 90 4b 30
        E 80 90 4b 00
        E 0 90 4e 32
        E 80 90 4e 00
        E 0 90 45 30
        E 80 90 45 00
        E 0 90 4d 32
        E 78 90 4b 30
        E 2 90 4d 00
        E 75 90 4e 30
        E 2 90 3b 00
        E 0 90 36 32
        E 1 90 4b 00
        E 77 90 4e 00
        E 1 90 45 2c
        E 80 90 45 00
        E 0 90 51 30
        E 1 90 36 00
        E 0 90 38 2a
        E 79 90 51 00
        E 1 90 47 2c
        E 80 90 38 00
        E 0 90 47 00
        E 0 90 4b 30
        E 0 90 39 30
        E 79 90 45 2c
        E 1 90 4b 00
        E 50 90 39 00
        E 0 90 28 26
        E 15 90 2f 26
        E 14 90 45 00
        E 1 90 2f 00
        E 0 90 38 2d
        E 3 90 4e 30
        E 78 90 47 2c
        E 2 90 4e 00
        E 78 90 47 00
        E 0 90 4d 2d
        E 80 90 4d 00
        E 2 90 44 2a
        E 78 90 4c 2c
        E 2 90 44 00
        E 78 90 4c 00
        E 1 90 47 29
        E 78 90 28 00
        E 0 90 2f 00
        E 0 90 38 00
        E 2 90 47 00
        E 1 90 4b 2c
        E 80 90 4b 00
        E 0 90 44 29
        E 80 90 44 00
        E 0 90 4a 2a
        E 80 90 4a 00
        E 0 90 47 28
        E 75 90 49 2a
        E 5 90 47 00
        E 75 90 49 00
        E 2 90 44 28
        E 79 90 49 3e
        E 1 90 44 00
        E 0 90 28 46
        E 0 90 34 46
        E 79 90 49 00
        E 0 90 44 3b
        E 80 90 44 00
        E 4 90 47 3b
        E 79 90 3e 3b
        E 1 90 47 00
        E 79 90 3e 00
        E 0 90 49 3c
        E 76 90 44 3d
        E 4 90 49 00
        E 76 90 44 00
        E 2 90 28 00
        E 0 90 34 00
        E 0 90 23 3a
        E 0 90 2f 46
        E 1 90 47 3e
        E 80 90 47 00
        E 1 90 4a 40
        E 78 90 23 00
        E 0 90 2f 00
        E 0 90 20 37
        E 0 90 2c 42
        E 2 90 4a 00
        E 0 90 55 43
        E 80 90 55 00
        E 0 90 50 44
        E 76 90 53 45
        E 2 90 20 00
        E 0 90 2c 00
        E 0 90 23 3e
        E 0 90 2f 4a
        E 2 90 50 00
        E 76 90 53 00
        E 4 90 56 46
        E 78 90 23 00
        E 0 90 2f 00
        E 0 90 61 48
        E 0 90 1c 43
        E 0 90 28 4f
        E 2 90 56 00
        E 78 90 61 00
        E 1 90 5c 49
        E 80 90 5c 00
        E 2 90 5f 47
        E 17 90 1c 00
        E 0 90 28 00
        E 63 90 5f 00
        E 0 90 56 47
        E 75 90 55 47
        E 5 90 56 00
        E 37 90 28 42
        E 0 90 34 4d
        E 38 90 55 00
        E 4 90 50 47
        E 78 90 28 00
        E 0 90 34 00
        E 0 90 53 47
        E 0 90 2a 46
        E 0 90 36 54
        E 2 90 50 00
        E 76 90 4a 45
        E 2 90 53 00
        E 78 90 4a 00
        E 1 90 49 45
        E 80 90 49 00
        E 1 90 44 45
        E 78 90 47 45
        E 2 90 44 00
        E 40 90 2a 00
        E 0 90 36 00
        E 0 90 28 43
        E 0 90 34 4f
        E 38 90 47 00
        E 5 90 3e 45
        E 77 90 28 00
        E 0 90 34 00
        E 0 90 27 49
        E 0 90 33 56
        E 1 90 4a 45
        E 2 90 3e 00
        E 76 90 43 45
        E 2 90 4a 00
        E 78 90 43 00
        E 3 90 48 45
        E 80 90 48 00
        E 1 90 3c 45
        E 76 90 4d 45
        E 4 90 3c 00
        E 75 90 48 45
        E 1 90 4d 00
        E 79 90 48 00
        E 2 90 27 00
        E 0 90 33 00
        E 0 90 24 3e
        E 0 90 30 4a
        E 2 90 4b 45
        E 77 90 43 3d
        E 3 90 4b 00
        E 77 90 43 00
        E 2 90 50 3d
        E 80 90 50 00
        E 1 90 4b 3d
        E 80 90 4b 00
        E 1 90 4f 3d
        E 76 90 48 3d
        E 4 90 4f 00
        E 76 90 48 00
        E 1 90 24 00
        E 0 90 30 00
        E 0 90 27 45
        E 0 90 33 52
        E 1 90 54 3d
        E 80 90 54 00
        E 2 90 4f 3d
        E 80 90 4f 00
        E 0 90 53 3d
        E 78 90 4b 3d
        E 2 90 53 00
        E 76 90 52 3d
        E 2 90 4b 00
        E 78 90 52 00
        E 3 90 4f 3d
        E 78 90 27 00
        E 0 90 33 00
        E 0 90 51 3d
        E 0 90 29 42
        E 0 90 35 4d
        E 2 90 4f 00
        E 78 90 51 00
        E 0 90 4c 3e
        E 78 90 50 40
        E 2 90 29 00
        E 0 90 35 00
        E 0 90 4c 00
        E 0 90 2a 3a
        E 0 90 36 46
        E 78 90 50 00
        E 3 90 4c 43
        E 79 90 2a 00
        E 0 90 36 00
        E 0 90 4f 44
        E 0 90 2b 3e
        E 0 90 37 4a
        E 1 90 4c 00
        E 77 90 48 45
        E 2 90 4f 00
        E 78 90 48 00
        E 1 90 4d 42
        E 1 90 2b 00
        E 0 90 37 00
        E 0 90 2c 42
        E 0 90 38 4d
        E 79 90 4d 00
        E 4 90 48 3b
        E 76 90 4b 3b
        E 4 90 48 00
        E 76 90 4b 00
        E 4 90 42 3b
        E 75 90 4d 3c
        E 5 90 42 00
        E 75 90 4d 00
        E 5 90 48 3d
        E 77 90 2c 00
        E 0 90 38 00
        E 0 90 27 43
        E 0 90 33 4f
        E 3 90 48 00
        E 0 90 4b 3e
        E 77 90 4e 40
        E 3 90 4b 00
        E 76 90 59 43
        E 1 90 27 00
        E 0 90 33 00
        E 0 90 4e 00
        E 0 90 24 3a
        E 0 90 30 46
        E 79 90 59 00
        E 2 90 54 45
        E 79 90 24 00
        E 0 90 30 00
        E 0 90 27 3e
        E 0 90 33 4a
        E 1 90 54 00
        E 0 90 57 46
        E 80 90 57 00
        E 0 90 5a 48
        E 79 90 27 00
        E 0 90 33 00
        E 0 90 65 46
        E 0 90 20 43
        E 0 90 2c 4f
        E 1 90 5a 00
        E 77 90 60 3d
        E 2 90 65 00
        E 78 90 60 00
        E 5 90 63 45
        E 17 90 20 00
        E 0 90 2c 00
        E 58 90 5a 45
        E 5 90 63 00
        E 75 90 5a 00
        E 1 90 59 45
        E 41 90 2c 42
        E 0 90 38 4d
        E 39 90 59 00
        E 0 90 54 45
        E 80 90 54 00
        E 1 90 2c 00
        E 0 90 38 00
        E 0 90 2e 46
        E 0 90 3a 54
        E 2 90 57 45
        E 79 90 4e 45
        E 1 90 57 00
        E 79 90 4e 00
        E 2 90 4d 45
        E 78 90 48 45
        E 2 90 4d 00
        E 78 90 48 00
        E 1 90 4b 45
        E 38 90 2e 00
        E 0 90 3a 00
        E 0 90 2c 43
        E 0 90 38 4f
        E 40 90 42 45
        E 2 90 4b 00
        E 78 90 2c 00
        E 0 90 38 00
        E 0 90 42 00
        E 0 90 2b 49
        E 0 90 37 56
        E 2 90 4e 45
        E 80 90 4e 00
        E 0 90 47 45
        E 76 90 4c 45
        E 4 90 47 00
        E 76 90 4c 00
        E 3 90 40 45
        E 77 90 51 45
        E 3 90 40 00
        E 77 90 51 00
        E 0 90 4c 45
        E 80 90 4c 00
        E 2 90 2b 00
        E 0 90 37 00
        E 0 90 28 3e
        E 0 90 34 4a
        E 2 90 4f 45
        E 78 90 47 3d
        E 2 90 4f 00
        E 78 90 47 00
        E 3 90 54 3d
        E 77 90 4f 3d
        E 3 90 54 00
        E 77 90 4f 00
        E 2 90 53 3d
        E 76 90 4c 3d
        E 4 90 53 00
        E 76 90 4c 00
        E 2 90 28 00
        E 0 90 34 00
        E 0 90 2b 45
        E 0 90 37 52
        E 1 90 58 42
        E 77 90 53 42
        E 3 90 58 00
        E 77 90 53 00
        E 4 90 57 43
        E 80 90 57 00
        E 1 90 4f 44
        E 78 90 56 45
        E 2 90 4f 00
        E 78 90 56 00
        E 1 90 53 45
        E 77 90 55 46
        E 1 90 2b 00
        E 0 90 37 00
        E 0 90 2d 42
        E 0 90 39 4d
        E 2 90 53 00
        E 77 90 55 00
        E 3 90 4f 47
        E 78 90 2d 00
        E 0 90 39 00
        E 0 90 2e 43
        E 0 90 3a 4f
        E 1 90 54 48
        E 1 90 4f 00
        E 79 90 54 00
        E 0 90 4f 49
        E 78 90 53 49
        E 1 90 2e 00
        E 0 90 3a 00
        E 0 90 2f 45
        E 0 90 3b 52
        E 1 90 4f 00
        E 78 90 53 00
        E 4 90 4c 4b
        E 77 90 2f 00
        E 0 90 3b 00
        E 0 90 52 44
        E 0 90 30 4b
        E 0 90 3c 5a
        E 3 90 4c 00
        E 77 90 52 00
        E 2 90 4c 40
        E 78 90 51 45
        E 2 90 4c 00
        E 76 90 46 40
        E 2 90 51 00
        E 78 90 46 00
        E 2 90 50 45
        E 80 90 50 00
        E 1 90 4c 40
        E 49 90 24 3f
        E 15 90 2b 3f
        E 15 90 30 00
        E 0 90 3c 00
        E 0 90 4f 45
        E 0 90 34 52
        E 1 90 4c 00
        E 79 90 4f 00
        E 0 90 46 40
        E 78 90 51 45
        E 2 90 46 00
        E 78 90 51 00
        E 1 90 4c 40
        E 80 90 4c 00
        E 2 90 4f 45
        E 80 90 4f 00
        E 2 90 46 40
        E 47 90 29 43
        E 15 90 30 44
        E 15 90 24 00
        E 0 90 2b 00
        E 0 90 34 00
        E 0 90 4f 45
        E 0 90 39 59
        E 3 90 46 00
        E 77 90 4f 00
        E 3 90 48 40
        E 77 90 4e 45
        E 3 90 48 00
        E 77 90 4e 00
        E 1 90 45 40
        E 77 90 4d 45
        E 3 90 45 00
        E 77 90 4d 00
        E 5 90 48 40
        E 62 90 23 3c
        E 15 90 29 00
        E 0 90 30 00
        E 0 90 39 00
        E 0 90 36 52
        E 3 90 48 00
        E 0 90 4e 45
        E 77 90 45 40
        E 3 90 4e 00
        E 77 90 45 00
        E 2 90 4f 45
        E 77 90 47 40
        E 3 90 4f 00
        E 77 90 47 00
        E 2 90 4e 45
        E 79 90 45 40
        E 1 90 4e 00
        E 49 90 28 3e
        E 15 90 2f 3f
        E 15 90 23 00
        E 0 90 36 00
        E 0 90 45 00
        E 0 90 37 5a
        E 1 90 4e 45
        E 77 90 47 40
        E 3 90 4e 00
        E 77 90 47 00
        E 2 90 4d 45
        E 79 90 43 40
        E 1 90 4d 00
        E 79 90 43 00
        E 4 90 4c 45
        E 80 90 4c 00
        E 0 90 47 40
        E 47 90 2d 37
        E 15 90 34 38
        E 15 90 28 00
        E 0 90 2f 00
        E 0 90 37 00
        E 0 90 3d 52
        E 3 90 47 00
        E 0 90 4c 45
        E 78 90 43 40
        E 2 90 4c 00
        E 78 90 43 00
        E 0 90 4d 45
        E 77 90 45 40
        E 3 90 4d 00
        E 77 90 45 00
        E 2 90 4c 45
        E 79 90 43 40
        E 1 90 4c 00
        E 50 90 32 3e
        E 15 90 39 42
        E 14 90 43 00
        E 1 90 2d 00
        E 0 90 34 00
        E 0 90 3d 00
        E 0 90 4c 45
        E 0 90 3e 59
        E 78 90 45 40
        E 2 90 4c 00
        E 78 90 45 00
        E 5 90 49 45
        E 76 90 41 40
        E 4 90 49 00
        E 76 90 41 00
        E 3 90 4a 45
        E 80 90 4a 00
        E 1 90 45 40
        E 47 90 2d 37
        E 15 90 34 37
        E 15 90 32 00
        E 0 90 39 00
        E 0 90 3e 00
        E 0 90 3c 52
        E 1 90 4a 45
        E 2 90 45 00
        E 76 90 40 40
        E 2 90 4a 00
        E 78 90 40 00
        E 0 90 47 45
        E 80 90 47 00
        E 2 90 45 40
        E 80 90 45 00
        E 2 90 48 45
        E 76 90 40 40
        E 4 90 48 00
        E 76 90 40 00
        E 0 90 48 46
        E 1 90 2d 00
        E 0 90 34 00
        E 0 90 3c 00
        E 0 90 26 50
        E 0 90 32 5e
        E 79 90 48 00
        E 3 90 45 46
        E 80 90 45 00
        E 1 90 47 46
        E 76 90 41 46
        E 1 90 26 00
        E 0 90 32 00
        E 3 90 47 00
        E 76 90 41 00
        E 0 90 48 46
        E 80 90 48 00
        E 1 90 45 46
        E 80 90 45 00
        E 0 90 35 4d
        E 0 90 41 5a
        E 3 90 47 46
        E 78 90 4d 47
        E 2 90 47 00
        E 75 90 54 48
        E 3 90 4d 00
        E 77 90 54 00
        E 5 90 51 49
        E 75 90 53 4b
        E 5 90 51 00
        E 75 90 53 00
        E 3 90 59 4d
        E 78 90 60 4d
        E 1 90 35 00
        E 0 90 41 00
        E 0 90 2e 4a
        E 0 90 3a 58
        E 1 90 59 00
        E 78 90 60 00
        E 0 90 5d 4d
        E 79 90 5f 4b
        E 1 90 5d 00
        E 79 90 5f 00
        E 1 90 59 49
        E 1 90 2e 00
        E 0 90 3a 00
        E 79 90 59 00
        E 1 90 54 49
        E 40 90 30 4f
        E 0 90 3c 5d
        E 40 90 54 00
        E 3 90 51 48
        E 75 90 53 46
        E 2 90 30 00
        E 0 90 3c 00
        E 0 90 2f 4a
        E 0 90 3b 59
        E 3 90 51 00
        E 75 90 53 00
        E 0 90 4d 46
        E 80 90 4d 00
        E 2 90 48 46
        E 79 90 45 46
        E 1 90 48 00
        E 79 90 45 00
        E 2 90 47 46
        E 79 90 41 46
        E 1 90 47 00
        E 79 90 2f 00
        E 0 90 3b 00
        E 0 90 41 00
        E 0 90 47 46
        E 0 90 27 50
        E 0 90 33 5e
        E 80 90 47 00
        E 3 90 42 46
        E 78 90 45 46
        E 2 90 42 00
        E 76 90 3c 46
        E 1 90 27 00
        E 0 90 33 00
        E 1 90 45 00
        E 78 90 3c 00
        E 1 90 47 46
        E 80 90 47 00
        E 0 90 42 46
        E 80 90 42 00
        E 0 90 36 4d
        E 0 90 42 5a
        E 3 90 45 46
        E 78 90 48 47
        E 2 90 45 00
        E 78 90 48 00
        E 2 90 53 48
        E 79 90 4e 49
        E 1 90 53 00
        E 79 90 4e 00
        E 0 90 51 4b
        E 79 90 54 4d
        E 1 90 51 00
        E 78 90 36 00
        E 0 90 42 00
        E 0 90 2d 4a
        E 0 90 39 58
        E 1 90 54 00
        E 2 90 5f 4f
        E 76 90 5a 4e
        E 4 90 5f 00
        E 76 90 5a 00
        E 4 90 5d 4d
        E 76 90 54 4b
        E 1 90 2d 00
        E 0 90 39 00
        E 3 90 5d 00
        E 76 90 54 00
        E 4 90 53 48
        E 37 90 32 4f
        E 0 90 3e 5d
        E 42 90 4e 47
        E 1 90 53 00
        E 75 90 51 46
        E 2 90 32 00
        E 0 90 3e 00
        E 0 90 30 4a
        E 0 90 3c 59
        E 2 90 4e 00
        E 76 90 51 00
        E 4 90 48 46
        E 78 90 47 46
        E 2 90 48 00
        E 77 90 42 46
        E 1 90 47 00
        E 78 90 45 46
        E 1 90 42 00
        E 79 90 45 00
        E 0 90 3c 46
        E 80 90 3c 00
        E 2 90 30 00
        E 0 90 3c 00
        E 0 90 45 3b
        E 0 90 34 3e
        E 0 90 28 3e
        E 80 90 45 00
        E 3 90 40 3b
        E 75 90 44 3b
        E 5 90 40 00
        E 75 90 44 00
        E 0 90 47 3c
        E 2 90 28 00
        E 78 90 47 00
        E 1 90 51 3c
        E 80 90 51 00
        E 3 90 4c 3d
        E 78 90 3b 50
        E 2 90 4c 00
        E 0 90 50 3e
        E 80 90 50 00
        E 0 90 53 3e
        E 79 90 5d 3f
        E 1 90 53 00
        E 77 90 58 3f
        E 2 90 5d 00
        E 78 90 58 00
        E 3 90 5c 40
        E 38 90 3b 00
        E 0 90 40 4d
        E 42 90 5c 00
        E 1 90 53 3f
        E 77 90 40 00
        E 0 90 3e 4d
        E 3 90 53 00
        E 0 90 5c 3f
        E 76 90 56 3f
        E 4 90 5c 00
        E 76 90 56 00
        E 1 90 5a 3f
        E 78 90 53 3f
        E 2 90 5a 00
        E 78 90 53 00
        E 0 90 50 3e
        E 80 90 50 00
        E 0 90 4a 3e
        E 80 90 4a 00
        E 2 90 4e 3e
        E 80 90 4e 00
        E 2 90 47 3d
        E 78 90 44 3d
        E 2 90 47 00
        E 77 90 3e 3d
        E 1 90 44 00
        E 79 90 3e 00
        E 0 90 42 3d
        E 80 90 42 00
        E 0 90 3b 3d
        E 80 90 3b 00
        E 1 90 34 00
        E 0 90 3e 00
        E 0 90 1c 3d
        E 0 90 28 3d
        E 2 90 42 3c
        E 76 90 3d 3b
        E 4 90 42 00
        E 76 90 3d 00
        E 0 90 40 3b
        E 80 90 40 00
        E 2 90 1c 00
        E 0 90 28 00
        E 1 90 44 3c
        E 79 90 4e 3c
        E 1 90 44 00
        E 79 90 4e 00
        E 2 90 49 3d
        E 76 90 4c 3e
        E 2 90 38 50
        E 2 90 49 00
        E 76 90 4c 00
        E 5 90 50 42
        E 75 90 5a 42
        E 5 90 50 00
        E 75 90 5a 00
        E 0 90 55 42
        E 80 90 55 00
        E 1 90 58 42
        E 41 90 38 00
        E 0 90 3d 4d
        E 39 90 58 00
        E 3 90 50 42
        E 77 90 58 42
        E 1 90 3d 00
        E 0 90 3b 4d
        E 2 90 50 00
        E 77 90 58 00
        E 2 90 53 40
        E 79 90 56 40
        E 1 90 53 00
        E 79 90 56 00
        E 1 90 4e 3f
        E 80 90 4e 00
        E 0 90 4c 3f
        E 80 90 4c 00
        E 2 90 47 3e
        E 80 90 47 00
        E 0 90 4a 3e
        E 80 90 4a 00
        E 0 90 42 43
        E 75 90 40 40
        E 5 90 42 00
        E 75 90 40 00
        E 0 90 3b 3e
        E 80 90 3b 00
        E 3 90 3e 3e
        E 80 90 3e 00
        E 1 90 36 3d
        E 78 90 3b 00
        E 0 90 28 4a
        E 2 90 36 00
        E 1 90 3d 47
        E 75 90 38 42
        E 5 90 3d 00
        E 75 90 38 00
        E 5 90 3b 47
        E 79 90 35 43
        E 1 90 3b 00
        E 77 90 40 47
        E 2 90 35 00
        E 78 90 40 00
        E 1 90 3b 44
        E 79 90 35 4f
        E 1 90 3b 00
        E 1 90 3e 47
        E 78 90 38 42
        E 2 90 3e 00
        E 77 90 43 47
        E 1 90 38 00
        E 79 90 43 00
        E 4 90 3e 44
        E 80 90 3e 00
        E 0 90 41 47
        E 37 90 35 00
        E 0 90 35 4d
        E 42 90 3b 44
        E 1 90 41 00
        E 77 90 35 00
        E 0 90 35 4d
        E 1 90 45 47
        E 1 90 3b 00
        E 77 90 41 47
        E 2 90 45 00
        E 77 90 44 47
        E 1 90 41 00
        E 79 90 44 00
        E 1 90 3e 47
        E 80 90 3e 00
        E 2 90 48 47
        E 79 90 44 47
        E 1 90 48 00
        E 79 90 35 00
        E 0 90 44 00
        E 0 90 47 47
        E 0 90 37 50
        E 79 90 41 47
        E 1 90 47 00
        E 79 90 41 00
        E 1 90 4c 47
        E 80 90 4c 00
        E 2 90 47 47
        E 80 90 47 00
        E 1 90 4a 47
        E 79 90 44 47
        E 1 90 4a 00
        E 77 90 37 00
        E 0 90 35 4f
        E 2 90 44 00
        E 1 90 4f 47
        E 76 90 4a 47
        E 4 90 4f 00
        E 76 90 4a 00
        E 2 90 4d 49
        E 78 90 47 4b
        E 2 90 4d 00
        E 78 90 47 00
        E 4 90 51 4d
        E 77 90 4d 4d
        E 3 90 51 00
        E 76 90 50 4d
        E 1 90 35 00
        E 0 90 4d 00
        E 0 90 32 4f
        E 79 90 50 00
        E 2 90 4a 4e
        E 80 90 4a 00
        E 0 90 54 4e
        E 79 90 50 4e
        E 1 90 54 00
        E 79 90 50 00
        E 0 90 53 4f
        E 79 90 4d 4f
        E 1 90 53 00
        E 79 90 4d 00
        E 0 90 58 4d
        E 1 90 32 00
        E 0 90 35 4d
        E 79 90 58 00
        E 0 90 53 4d
        E 80 90 53 00
        E 4 90 56 4d
        E 79 90 50 4d
        E 1 90 56 00
        E 79 90 50 00
        E 0 90 5b 4d
        E 79 90 56 4d
        E 1 90 5b 00
        E 79 90 56 00
        E 1 90 59 4b
        E 77 90 53 4d
        E 3 90 59 00
        E 77 90 53 00
        E 3 90 5d 4f
        E 76 90 59 50
        E 4 90 5d 00
        E 76 90 59 00
        E 4 90 5c 52
        E 80 90 5c 00
        E 1 90 56 54
        E 76 90 28 52
        E 1 90 28 00
        E 0 90 35 00
        E 0 90 65 61
        E 3 90 56 00
        E 75 90 5f 58
        E 1 90 28 00
        E 0 90 2f 46
        E 17 90 65 00
        E 63 90 2c 4f
        E 1 90 64 5e
        E 14 90 5f 00
        E 1 90 2f 00
        E 63 90 5c 55
        E 4 90 32 44
        E 13 90 2c 00
        E 1 90 64 00
        E 65 90 2c 4a
        E 2 90 63 5e
        E 11 90 5c 00
        E 4 90 32 00
        E 60 90 32 44
        E 3 90 5f 55
        E 16 90 2c 00
        E 2 90 63 00
        E 60 90 2f 4a
        E 2 90 62 5a
        E 13 90 32 00
        E 3 90 5f 00
        E 64 90 5c 55
        E 0 90 35 42
        E 14 90 2f 00
        E 2 90 62 00
        E 62 90 2f 4a
        E 2 90 61 59
        E 16 90 5c 00
        E 0 90 35 00
        E 64 90 35 43
        E 1 90 5c 54
        E 13 90 2f 00
        E 2 90 61 00
        E 61 90 32 4a
        E 3 90 60 59
        E 16 90 35 00
        E 1 90 5c 00
        E 62 90 38 42
        E 2 90 59 54
        E 12 90 32 00
        E 3 90 60 00
        E 63 90 32 4a
        E 2 90 5f 59
        E 14 90 38 00
        E 2 90 59 00
        E 61 90 38 42
        E 4 90 59 54
        E 13 90 32 00
        E 2 90 5f 00
        E 60 90 5e 59
        E 4 90 35 4a
        E 13 90 38 00
        E 4 90 59 00
        E 61 90 56 54
        E 3 90 3b 42
        E 11 90 5e 00
        E 4 90 35 00
        E 63 90 35 49
        E 1 90 5d 59
        E 14 90 56 00
        E 3 90 3b 00
        E 59 90 59 52
        E 5 90 3b 3f
        E 14 90 35 00
        E 1 90 5d 00
        E 62 90 5c 58
        E 2 90 38 49
        E 12 90 59 00
        E 5 90 3b 00
        E 59 90 53 52
        E 3 90 3e 3f
        E 15 90 5c 00
        E 2 90 38 00
        E 63 90 5b 58
        E 0 90 38 48
        E 13 90 53 00
        E 3 90 3e 00
        E 62 90 56 52
        E 2 90 3e 3f
        E 16 90 5b 00
        E 0 90 38 00
        E 61 90 5a 58
        E 3 90 3b 48
        E 14 90 56 00
        E 2 90 3e 00
        E 62 90 50 52
        E 0 90 41 3f
        E 15 90 5a 00
        E 3 90 3b 00
        E 62 90 3b 48
        E 4 90 59 58
        E 12 90 50 00
        E 0 90 41 00
        E 64 90 41 40
        E 2 90 53 52
        E 14 90 3b 00
        E 4 90 59 00
        E 60 90 3e 48
        E 2 90 58 58
        E 14 90 41 00
        E 2 90 53 00
        E 61 90 50 52
        E 2 90 44 3f
        E 15 90 3e 00
        E 2 90 58 00
        E 63 90 57 58
        E 2 90 3e 48
        E 12 90 50 00
        E 2 90 44 00
        E 63 90 44 3f
        E 4 90 53 52
        E 13 90 57 00
        E 2 90 3e 00
        E 64 90 41 48
        E 1 90 56 58
        E 12 90 44 00
        E 4 90 53 00
        E 60 90 47 3f
        E 1 90 4f 52
        E 18 90 41 00
        E 1 90 56 00
        E 59 90 41 48
        E 1 90 55 58
        E 16 90 47 00
        E 1 90 4f 00
        E 63 90 4f 52
        E 2 90 47 3f
        E 13 90 41 00
        E 1 90 55 00
        E 63 90 54 58
        E 2 90 44 48
        E 15 90 4f 00
        E 2 90 47 00
        E 63 90 4a 3f
        E 3 90 4d 51
        E 11 90 54 00
        E 2 90 44 00
        E 64 90 53 67
        E 0 90 50 58
        E 120 90 53 00
        E 0 90 50 00
        E 40 90 4a 00
        E 3 90 4d 00
        E 797 90 23 52
        E 2 90 5f 67
        E 80 90 29 43
        E 1 90 59 55
        E 13 90 23 00
        E 2 90 5f 00
        E 61 90 5e 63
        E 0 90 26 4f
        E 19 90 29 00
        E 1 90 59 00
        E 60 90 2c 43
        E 4 90 56 55
        E 12 90 5e 00
        E 0 90 26 00
        E 64 90 26 4f
        E 1 90 5d 5a
        E 15 90 2c 00
        E 4 90 56 00
        E 60 90 2c 43
        E 4 90 59 55
        E 12 90 26 00
        E 1 90 5d 00
        E 65 90 5c 5a
        E 1 90 29 4a
        E 13 90 2c 00
        E 4 90 59 00
        E 60 90 56 55
        E 1 90 2f 43
        E 17 90 5c 00
        E 1 90 29 00
        E 60 90 29 4a
        E 1 90 5b 59
        E 16 90 56 00
        E 1 90 2f 00
        E 64 90 56 55
        E 3 90 2f 44
        E 11 90 29 00
        E 1 90 5b 00
        E 63 90 2c 4a
        E 3 90 5a 59
        E 15 90 56 00
        E 3 90 2f 00
        E 60 90 53 54
        E 2 90 32 43
        E 13 90 2c 00
        E 3 90 5a 00
        E 62 90 59 59
        E 2 90 2c 4a
        E 14 90 53 00
        E 2 90 32 00
        E 61 90 53 54
        E 2 90 32 42
        E 15 90 59 00
        E 2 90 2c 00
        E 61 90 58 59
        E 2 90 2f 4a
        E 14 90 53 00
        E 2 90 32 00
        E 64 90 35 40
        E 2 90 50 54
        E 12 90 58 00
        E 2 90 2f 00
        E 65 90 2f 49
        E 2 90 57 59
        E 13 90 35 00
        E 2 90 50 00
        E 64 90 53 52
        E 0 90 35 42
        E 15 90 2f 00
        E 2 90 57 00
        E 60 90 32 49
        E 3 90 56 58
        E 16 90 53 00
        E 0 90 35 00
        E 60 90 4d 52
        E 3 90 38 40
        E 14 90 32 00
        E 3 90 56 00
        E 60 90 32 48
        E 2 90 55 58
        E 14 90 4d 00
        E 3 90 38 00
        E 64 90 50 52
        E 0 90 38 40
        E 13 90 32 00
        E 2 90 55 00
        E 64 90 35 48
        E 3 90 54 58
        E 14 90 50 00
        E 0 90 38 00
        E 62 90 4a 54
        E 4 90 3b 40
        E 13 90 35 00
        E 3 90 54 00
        E 61 90 35 49
        E 1 90 53 58
        E 14 90 4a 00
        E 4 90 3b 00
        E 61 90 3b 40
        E 2 90 4d 54
        E 14 90 35 00
        E 1 90 53 00
        E 64 90 38 48
        E 2 90 52 58
        E 13 90 3b 00
        E 2 90 4d 00
        E 64 90 3e 40
        E 1 90 4a 52
        E 14 90 38 00
        E 2 90 52 00
        E 59 90 38 48
        E 4 90 51 58
        E 16 90 3e 00
        E 1 90 4a 00
        E 59 90 3e 3f
        E 3 90 4d 54
        E 13 90 38 00
        E 4 90 51 00
        E 61 90 50 56
        E 0 90 3b 48
        E 15 90 3e 00
        E 3 90 4d 00
        E 65 90 4a 52
        E 0 90 41 3f
        E 13 90 50 00
        E 0 90 3b 00
        E 63 90 4f 55
        E 5 90 3b 48
        E 15 90 4a 00
        E 0 90 41 00
        E 61 90 41 3f
        E 2 90 4a 51
        E 13 90 4f 00
        E 5 90 3b 00
        E 60 90 3e 48
        E 3 90 4e 55
        E 13 90 41 00
        E 2 90 4a 00
        E 63 90 47 51
        E 1 90 44 3f
        E 17 90 4e 00
        E 60 90 47 00
        E 0 90 4d 64
        E 2 90 4a 5a
        E 0 90 41 47
        E 0 90 47 51
        E 1 90 44 00
        E 2 90 44 5a
        E 117 90 4a 00
        E 0 90 41 00
        E 0 90 47 00
        E 3 90 44 00
        E 19 90 4d 00
        E 33 90 3e 00
        E 785 90 4d 3c
        E 0 90 41 3c
        E 80 90 4d 00
        E 0 90 41 00
        E 0 90 4a 37
        E 0 90 3e 35
        E 80 90 4a 00
        E 0 90 3e 00
        E 0 90 4c 3c
        E 0 90 40 3c
        E 80 90 4c 00
        E 0 90 40 00
        E 0 90 44 3c
        E 0 90 3b 3c
        E 240 90 44 00
        E 0 90 3b 00
        E 480 90 4d 3c
        E 0 90 41 3c
        E 80 90 4d 00
        E 0 90 41 00
        E 0 90 4a 35
        E 0 90 3e 34
        E 80 90 4a 00
        E 0 90 3e 00
        E 0 90 4c 3c
        E 0 90 40 3c
        E 80 90 4c 00
        E 0 90 40 00
        E 0 90 44 3c
        E 0 90 3b 3c
        E 240 90 44 00
        E 0 90 3b 00
        E 480 90 4d 33
        E 1 90 41 30
        E 79 90 4d 00
        E 0 90 4a 33
        E 1 90 41 00
        E 2 90 3e 30
        E 77 90 4a 00
        E 0 90 4c 33
        E 2 90 40 30
        E 1 90 3e 00
        E 77 90 4c 00
        E 0 90 3b 31
        E 1 90 44 34
        E 1 90 40 00
        E 78 90 3b 00
        E 1 90 44 00
        E 2 90 4d 34
        E 0 90 41 31
        E 76 90 3e 32
        E 1 90 4a 35
        E 3 90 4d 00
        E 0 90 41 00
        E 76 90 3e 00
        E 1 90 4a 00
        E 0 90 4c 35
        E 0 90 40 32
        E 80 90 4c 00
        E 0 90 40 00
        E 0 90 3b 32
        E 3 90 44 35
        E 77 90 3b 00
        E 1 90 4d 37
        E 1 90 41 33
        E 1 90 44 00
        E 76 90 3e 33
        E 1 90 4a 37
        E 1 90 4d 00
        E 1 90 41 00
        E 77 90 3e 00
        E 1 90 4a 00
        E 1 90 4c 38
        E 2 90 40 34
        E 76 90 3b 34
        E 2 90 4c 00
        E 1 90 44 38
        E 1 90 40 00
        E 75 90 4d 39
        E 1 90 3b 00
        E 0 90 41 35
        E 3 90 44 00
        E 76 90 4d 00
        E 0 90 4a 39
        E 1 90 41 00
        E 3 90 3e 35
        E 76 90 4a 00
        E 1 90 4c 39
        E 3 90 3e 00
        E 0 90 40 35
        E 76 90 44 3a
        E 1 90 4c 00
        E 2 90 3b 37
        E 1 90 40 00
        E 76 90 44 00
        E 1 90 4d 3a
        E 2 90 3b 00
        E 1 90 41 37
        E 76 90 3e 38
        E 1 90 4d 00
        E 1 90 4a 3b
        E 2 90 41 00
        E 76 90 3e 00
        E 1 90 40 38
        E 1 90 4a 00
        E 1 90 4c 3b
        E 78 90 40 00
        E 0 90 44 3c
        E 0 90 3b 38
        E 2 90 4c 00
        E 77 90 4d 3c
        E 1 90 44 00
        E 0 90 3b 00
        E 4 90 41 39
        E 75 90 4d 00
        E 3 90 4a 3c
        E 2 90 41 00
        E 0 90 3e 39
        E 75 90 4c 3d
        E 3 90 4a 00
        E 0 90 40 3a
        E 2 90 3e 00
        E 75 90 4c 00
        E 1 90 44 3d
        E 2 90 40 00
        E 1 90 3b 3a
        E 77 90 44 00
        E 0 90 41 3b
        E 3 90 3b 00
        E 0 90 4d 3e
        E 78 90 4a 3e
        E 2 90 4d 00
        E 1 90 40 3b
        E 12 90 41 00
        E 65 90 4a 00
        E 0 90 3f 3b
        E 3 90 4c 3e
        E 16 90 40 00
        E 59 90 3e 3c
        E 1 90 44 3f
        E 4 90 4c 00
        E 13 90 3f 00
        E 62 90 4d 3f
        E 1 90 44 00
        E 3 90 3d 3c
        E 12 90 3e 00
        E 64 90 4d 00
        E 0 90 3c 3d
        E 3 90 4a 40
        E 17 90 3d 00
        E 61 90 4c 40
        E 0 90 3b 3d
        E 2 90 4a 00
        E 13 90 3c 00
        E 64 90 44 42
        E 1 90 4c 00
        E 1 90 3a 3e
        E 15 90 3b 00
        E 63 90 44 00
        E 3 90 4d 42
        E 0 90 39 3e
        E 15 90 3a 00
        E 65 90 4d 00
        E 0 90 38 3e
        E 1 90 4a 42
        E 15 90 39 00
        E 61 90 4c 43
        E 2 90 37 3f
        E 2 90 4a 00
        E 15 90 38 00
        E 61 90 4c 00
        E 0 90 36 3f
        E 5 90 44 43
        E 13 90 37 00
        E 64 90 4d 44
        E 3 90 44 00
        E 0 90 35 40
        E 11 90 36 00
        E 64 90 34 40
        E 2 90 4d 00
        E 3 90 4a 44
        E 16 90 35 00
        E 59 90 33 40
        E 3 90 4c 45
        E 2 90 4a 00
        E 11 90 34 00
        E 65 90 44 45
        E 2 90 4c 00
        E 2 90 32 42
        E 11 90 33 00
        E 65 90 44 00
        E 0 90 4d 45
        E 1 90 31 42
        E 19 90 32 00
        E 60 90 4d 00
        E 1 90 4a 46
        E 2 90 30 43
        E 14 90 31 00
        E 63 90 4c 46
        E 0 90 2f 43
        E 1 90 4a 00
        E 18 90 30 00
        E 60 90 2e 44
        E 1 90 4c 00
        E 1 90 44 47
        E 15 90 2f 00
        E 65 90 44 00
        E 0 90 2d 44
        E 2 90 4d 47
        E 12 90 2e 00
        E 68 90 4d 00
        E 0 90 2c 44
        E 1 90 4a 48
        E 13 90 2d 00
        E 64 90 4c 48
        E 1 90 2b 45
        E 2 90 4a 00
        E 15 90 2c 00
        E 62 90 4c 00
        E 0 90 44 48
        E 2 90 2a 45
        E 15 90 2b 00
        E 63 90 44 00
        E 2 90 4d 49
        E 1 90 29 46
        E 15 90 2a 00
        E 61 90 28 46
        E 3 90 4d 00
        E 0 90 4a 49
        E 1 90 29 00
        E 75 90 4c 4a
        E 1 90 28 00
        E 1 90 27 46
        E 2 90 4a 00
        E 76 90 4c 00
        E 0 90 44 4a
        E 2 90 27 00
        E 3 90 28 47
        E 75 90 44 00
        E 0 90 29 47
        E 4 90 4d 4a
        E 1 90 28 00
        E 75 90 29 00
        E 4 90 4d 00
        E 1 90 4a 4b
        E 0 90 28 48
        E 78 90 4c 4b
        E 0 90 27 48
        E 2 90 4a 00
        E 0 90 28 00
        E 76 90 28 49
        E 1 90 50 4d
        E 1 90 4c 00
        E 0 90 27 00
        E 77 90 29 49
        E 1 90 28 00
        E 1 90 50 00
        E 0 90 59 4d
        E 78 90 29 00
        E 0 90 56 4e
        E 1 90 28 49
        E 1 90 59 00
        E 78 90 56 00
        E 1 90 28 00
        E 0 90 27 4a
        E 1 90 58 4e
        E 79 90 27 00
        E 0 90 5c 4e
        E 0 90 28 4a
        E 1 90 58 00
        E 79 90 5c 00
        E 0 90 28 00
        E 0 90 29 4b
        E 1 90 65 4f
        E 79 90 29 00
        E 1 90 65 00
        E 3 90 62 4f
        E 0 90 28 4b
        E 76 90 64 50
        E 2 90 27 4d
        E 2 90 62 00
        E 0 90 28 00
        E 76 90 64 00
        E 0 90 5c 50
        E 2 90 27 00
        E 1 90 28 4d
        E 76 90 65 51
        E 1 90 5c 00
        E 0 90 29 4d
        E 3 90 28 00
        E 76 90 65 00
        E 1 90 29 00
        E 1 90 62 51
        E 2 90 28 4e
        E 77 90 64 51
        E 1 90 62 00
        E 2 90 28 00
        E 0 90 27 4e
        E 77 90 64 00
        E 0 90 5c 52
        E 3 90 27 00
        E 1 90 28 4f
        E 76 90 5c 00
        E 0 90 65 52
        E 4 90 28 00
        E 0 90 29 4f
        E 76 90 65 00
        E 0 90 62 53
        E 4 90 29 00
        E 0 90 28 4f
        E 76 90 62 00
        E 0 90 27 50
        E 1 90 64 53
        E 3 90 28 00
        E 75 90 5c 54
        E 0 90 28 50
        E 1 90 27 00
        E 1 90 64 00
        E 78 90 5c 00
        E 0 90 28 00
        E 0 90 65 61
        E 2 90 21 77
        E 78 90 65 00
        E 5 90 60 51
        E 75 90 64 5a
        E 5 90 60 00
        E 75 90 64 00
        E 2 90 21 00
        E 3 90 5d 49
        E 77 90 63 5d
        E 3 90 5d 00
        E 77 90 63 00
        E 3 90 60 49
        E 77 90 62 53
        E 0 90 40 5c
        E 0 90 3c 4d
        E 0 90 39 4d
        E 3 90 60 00
        E 76 90 5d 43
        E 1 90 62 00
        E 79 90 5d 00
        E 3 90 61 4f
        E 80 90 61 00
        E 1 90 5d 43
        E 77 90 60 4e
        E 3 90 5d 00
        E 37 90 40 00
        E 0 90 3c 00
        E 0 90 39 00
        E 0 90 39 49
        E 0 90 3c 49
        E 0 90 40 56
        E 40 90 60 00
        E 0 90 58 43
        E 80 90 39 00
        E 0 90 3c 00
        E 0 90 40 00
        E 0 90 58 00
        E 0 90 40 5c
        E 0 90 3c 4d
        E 0 90 39 4d
        E 2 90 5f 4f
        E 77 90 58 49
        E 3 90 5f 00
        E 77 90 58 00
        E 1 90 5e 4f
        E 80 90 5e 00
        E 1 90 54 49
        E 80 90 54 00
        E 1 90 5d 4f
        E 80 90 5d 00
        E 0 90 58 49
        E 78 90 40 00
        E 0 90 3c 00
        E 0 90 39 00
        E 0 90 39 52
        E 0 90 3c 52
        E 0 90 41 61
        E 2 90 58 00
        E 0 90 5c 4f
        E 78 90 54 43
        E 2 90 5c 00
        E 78 90 54 00
        E 2 90 5b 47
        E 79 90 54 43
        E 1 90 5b 00
        E 77 90 5a 47
        E 2 90 54 00
        E 78 90 5a 00
        E 1 90 51 43
        E 78 90 59 4f
        E 2 90 39 00
        E 0 90 3c 00
        E 0 90 41 00
        E 0 90 51 00
        E 0 90 39 4d
        E 0 90 3c 4d
        E 0 90 40 5c
        E 78 90 59 00
        E 5 90 54 49
        E 79 90 58 4f
        E 1 90 54 00
        E 77 90 51 49
        E 2 90 58 00
        E 77 90 57 4f
        E 1 90 51 00
        E 79 90 57 00
        E 0 90 54 49
        E 80 90 54 00
        E 0 90 56 4f
        E 1 90 39 00
        E 0 90 3c 00
        E 0 90 40 00
        E 0 90 34 49
        E 0 90 39 49
        E 0 90 3c 56
        E 78 90 51 43
        E 1 90 56 00
        E 79 90 51 00
        E 5 90 55 47
        E 76 90 51 43
        E 4 90 55 00
        E 76 90 51 00
        E 1 90 54 47
        E 78 90 4c 43
        E 2 90 54 00
        E 78 90 4c 00
        E 2 90 34 00
        E 0 90 39 00
        E 0 90 3c 00
        E 0 90 39 49
        E 0 90 3c 49
        E 0 90 40 56
        E 3 90 53 47
        E 78 90 4c 43
        E 2 90 53 00
        E 78 90 4c 00
        E 1 90 52 47
        E 77 90 48 43
        E 3 90 52 00
        E 77 90 48 00
        E 1 90 51 47
        E 80 90 51 00
        E 2 90 4c 43
        E 78 90 50 47
        E 2 90 4c 00
        E 78 90 50 00
        E 1 90 48 43
        E 80 90 48 00
        E 1 90 4f 47
        E 77 90 48 43
        E 3 90 4f 00
        E 77 90 48 00
        E 0 90 4e 47
        E 80 90 4e 00
        E 4 90 45 43
        E 77 90 39 00
        E 0 90 3c 00
        E 0 90 40 00
        E 0 90 21 48
        E 2 90 4d 35
        E 1 90 45 00
        E 76 90 48 31
        E 3 90 4d 00
        E 77 90 48 00
        E 4 90 4c 35
        E 75 90 45 31
        E 2 90 21 00
        E 3 90 4c 00
        E 75 90 45 00
        E 4 90 4b 35
        E 76 90 48 31
        E 4 90 4b 00
        E 76 90 48 00
        E 0 90 4a 35
        E 2 90 2d 31
        E 0 90 34 45
        E 78 90 4a 00
        E 0 90 45 31
        E 80 90 45 00
        E 3 90 49 35
        E 80 90 49 00
        E 0 90 45 31
        E 80 90 45 00
        E 0 90 48 35
        E 39 90 2d 00
        E 0 90 34 00
        E 0 90 2d 2a
        E 0 90 34 3d
        E 39 90 40 31
        E 2 90 48 00
        E 77 90 47 35
        E 1 90 40 00
        E 1 90 2d 00
        E 0 90 34 00
        E 0 90 2d 32
        E 0 90 34 46
        E 78 90 47 00
        E 1 90 40 31
        E 79 90 46 33
        E 1 90 40 00
        E 79 90 46 00
        E 2 90 3c 30
        E 78 90 45 32
        E 2 90 3c 00
        E 78 90 45 00
        E 1 90 40 2d
        E 80 90 40 00
        E 1 90 2d 00
        E 0 90 34 00
        E 0 90 2d 2a
        E 0 90 35 3e
        E 2 90 44 31
        E 79 90 3c 2c
        E 1 90 44 00
        E 77 90 43 2f
        E 2 90 3c 00
        E 78 90 43 00
        E 4 90 3c 2c
        E 80 90 3c 00
        E 0 90 42 2d
        E 75 90 39 2d
        E 5 90 42 00
        E 75 90 39 00
        E 1 90 41 2d
        E 1 90 2d 00
        E 0 90 35 00
        E 0 90 2d 29
        E 0 90 34 3a
        E 79 90 41 00
        E 3 90 3c 2a
        E 78 90 40 2d
        E 2 90 3c 00
        E 77 90 39 2a
        E 1 90 40 00
        E 79 90 39 00
        E 1 90 3f 2c
        E 80 90 3f 00
        E 1 90 3c 28
        E 79 90 2d 00
        E 0 90 34 00
        E 0 90 21 37
        E 1 90 3c 00
        E 1 90 3e 2a
        E 79 90 39 27
        E 1 90 3e 00
        E 76 90 3d 2a
        E 3 90 39 00
        E 77 90 3d 00
        E 4 90 39 27
        E 79 90 3c 28
        E 1 90 39 00
        E 76 90 34 26
        E 3 90 3c 00
        E 77 90 34 00
        E 2 90 28 3a
        E 1 90 3b 28
        E 80 90 3b 00
        E 2 90 34 27
        E 79 90 3a 2d
        E 1 90 34 00
        E 77 90 30 2a
        E 2 90 3a 00
        E 78 90 30 00
        E 0 90 39 2f
        E 80 90 39 00
        E 3 90 34 2d
        E 78 90 38 32
        E 2 90 34 00
        E 77 90 30 30
        E 1 90 38 00
        E 79 90 30 00
        E 3 90 39 35
        E 78 90 34 32
        E 2 90 39 00
        E 75 90 3c 38
        E 3 90 34 00
        E 77 90 3c 00
        E 3 90 35 35
        E 77 90 40 39
        E 2 90 21 00
        E 0 90 28 00
        E 0 90 20 45
        E 1 90 35 00
        E 77 90 40 00
        E 1 90 3b 39
        E 80 90 3b 00
        E 2 90 3e 39
        E 79 90 20 00
        E 1 90 3e 00
        E 1 90 41 39
        E 78 90 4c 39
        E 2 90 41 00
        E 78 90 4c 00
        E 3 90 47 39
        E 77 90 35 42
        E 0 90 3e 4d
        E 2 90 4a 3b
        E 1 90 47 00
        E 77 90 4d 3c
        E 2 90 4a 00
        E 78 90 4d 00
        E 0 90 58 3d
        E 80 90 58 00
        E 0 90 53 3e
        E 80 90 53 00
        E 1 90 56 40
        E 39 90 35 00
        E 0 90 3e 00
        E 0 90 35 3d
        E 0 90 3e 49
        E 40 90 4d 42
        E 1 90 56 00
        E 79 90 35 00
        E 0 90 3e 00
        E 0 90 4d 00
        E 0 90 35 42
        E 0 90 3c 4d
        E 1 90 56 43
        E 80 90 56 00
        E 0 90 51 40
        E 79 90 54 3d
        E 1 90 51 00
        E 79 90 54 00
        E 3 90 4d 3b
        E 76 90 4a 3b
        E 4 90 4d 00
        E 75 90 45 39
        E 1 90 4a 00
        E 79 90 45 00
        E 0 90 48 37
        E 2 90 35 00
        E 0 90 3c 00
        E 0 90 21 4d
        E 0 90 2d 4d
        E 78 90 48 00
        E 0 90 41 37
        E 80 90 41 00
        E 1 90 3e 37
        E 80 90 3e 00
        E 0 90 39 37
        E 80 90 39 00
        E 1 90 3c 37
        E 80 90 3c 00
        E 2 90 35 37
        E 78 90 21 00
        E 0 90 2d 00
        E 0 90 40 39
        E 0 90 20 42
        E 0 90 2c 42
        E 2 90 35 00
        E 76 90 3b 39
        E 2 90 40 00
        E 78 90 3b 00
        E 3 90 3e 39
        E 79 90 20 00
        E 0 90 2c 00
        E 1 90 3e 00
        E 2 90 41 39
        E 79 90 4c 39
        E 1 90 41 00
        E 76 90 47 39
        E 3 90 4c 00
        E 77 90 47 00
        E 1 90 37 49
        E 0 90 3e 42
        E 3 90 4a 3c
        E 76 90 4d 3c
        E 4 90 4a 00
        E 75 90 58 3d
        E 1 90 4d 00
        E 1 90 37 00
        E 0 90 3e 00
        E 0 90 35 48
        E 0 90 3e 3c
        E 78 90 58 00
        E 3 90 53 40
        E 77 90 56 40
        E 2 90 35 00
        E 0 90 3e 00
        E 0 90 34 49
        E 0 90 3e 3d
        E 1 90 53 00
        E 77 90 56 00
        E 5 90 4c 42
        E 77 90 34 00
        E 0 90 3e 00
        E 0 90 34 4d
        E 0 90 3c 42
        E 1 90 56 42
        E 2 90 4c 00
        E 77 90 51 40
        E 1 90 56 00
        E 77 90 54 3d
        E 2 90 51 00
        E 78 90 54 00
        E 1 90 4c 3b
        E 80 90 4c 00
        E 4 90 4a 3a
        E 78 90 45 38
        E 2 90 4a 00
        E 75 90 48 38
        E 2 90 34 00
        E 0 90 3c 00
        E 0 90 21 43
        E 0 90 2d 4f
        E 1 90 45 00
        E 77 90 48 00
        E 0 90 40 38
        E 80 90 40 00
        E 3 90 3e 38
        E 80 90 3e 00
        E 2 90 39 38
        E 78 90 3c 38
        E 2 90 39 00
        E 76 90 3b 38
        E 2 90 3c 00
        E 78 90 3b 00
        E 1 90 21 00
        E 0 90 2d 00
        E 0 90 45 39
        E 0 90 23 44
        E 0 90 2f 44
        E 80 90 45 00
        E 3 90 40 37
        E 75 90 44 37
        E 5 90 40 00
        E 75 90 44 00
        E 2 90 23 00
        E 0 90 2f 00
        E 0 90 47 37
        E 80 90 47 00
        E 1 90 51 37
        E 79 90 4c 37
        E 1 90 51 00
        E 78 90 50 37
        E 1 90 4c 00
        E 0 90 38 3c
        E 0 90 3b 3c
        E 0 90 40 46
        E 79 90 50 00
        E 2 90 53 37
        E 78 90 5d 38
        E 1 90 40 00
        E 0 90 44 42
        E 1 90 53 00
        E 78 90 5d 00
        E 0 90 58 39
        E 80 90 58 00
        E 1 90 44 00
        E 0 90 49 46
        E 1 90 5c 3b
        E 80 90 5c 00
        E 2 90 53 3b
        E 77 90 38 00
        E 0 90 3b 00
        E 0 90 49 00
        E 0 90 5c 3b
        E 0 90 3b 3c
        E 0 90 3f 3c
        E 0 90 47 46
        E 0 90 45 46
        E 3 90 53 00
        E 76 90 57 3b
        E 1 90 5c 00
        E 79 90 57 00
        E 3 90 5a 3b
        E 78 90 53 3a
        E 2 90 5a 00
        E 78 90 53 00
        E 1 90 50 39
        E 79 90 4b 38
        E 1 90 50 00
        E 79 90 3b 00
        E 0 90 3f 00
        E 0 90 47 00
        E 0 90 45 00
        E 0 90 4b 00
        E 0 90 2f 42
        E 0 90 3b 4d
        E 3 90 4e 33
        E 75 90 47 33
        E 5 90 4e 00
        E 75 90 47 00
        E 3 90 44 33
        E 77 90 3f 33
        E 3 90 44 00
        E 77 90 3f 00
        E 1 90 42 33
        E 79 90 3b 33
        E 1 90 42 00
        E 79 90 3b 00
        E 0 90 45 33
        E 2 90 2f 00
        E 0 90 3b 00
        E 0 90 28 42
        E 0 90 34 4d
        E 78 90 45 00
        E 4 90 40 33
        E 80 90 40 00
        E 0 90 44 33
        E 78 90 28 00
        E 0 90 34 00
        E 0 90 47 33
        E 2 90 44 00
        E 78 90 47 00
        E 0 90 51 33
        E 80 90 51 00
        E 1 90 4c 33
        E 79 90 50 33
        E 0 90 44 43
        E 0 90 3b 38
        E 1 90 4c 00
        E 79 90 50 00
        E 1 90 53 39
        E 77 90 5d 39
        E 2 90 44 00
        E 0 90 3b 00
        E 0 90 43 3a
        E 0 90 3a 31
        E 1 90 53 00
        E 77 90 5d 00
        E 4 90 58 39
        E 78 90 43 00
        E 0 90 3a 00
        E 0 90 5c 39
        E 0 90 44 3f
        E 0 90 3b 37
        E 2 90 58 00
        E 78 90 5c 00
        E 3 90 53 39
        E 77 90 44 00
        E 0 90 3b 00
        E 0 90 64 4c
        E 0 90 34 41
        E 0 90 38 41
        E 0 90 40 4a
        E 3 90 53 00
        E 237 90 64 00
        E 0 90 34 00
        E 0 90 38 00
        E 0 90 40 00
        E 720 90 21 63
        E 1 90 65 63
        E 80 90 65 00
        E 2 90 60 43
        E 77 90 64 59
        E 3 90 60 00
        E 77 90 21 00
        E 0 90 64 00
        E 2 90 5d 43
        E 79 90 63 52
        E 1 90 5d 00
        E 78 90 60 43
        E 1 90 63 00
        E 79 90 60 00
        E 0 90 40 54
        E 0 90 3c 46
        E 0 90 39 46
        E 2 90 62 4f
        E 80 90 62 00
        E 1 90 5d 3e
        E 75 90 61 4d
        E 5 90 5d 00
        E 75 90 61 00
        E 4 90 5d 3e
        E 78 90 60 4d
        E 2 90 5d 00
        E 38 90 40 00
        E 0 90 3c 00
        E 0 90 39 00
        E 0 90 39 43
        E 0 90 3c 43
        E 0 90 40 4f
        E 39 90 58 3e
        E 1 90 60 00
        E 79 90 58 00
        E 1 90 39 00
        E 0 90 3c 00
        E 0 90 40 00
        E 0 90 40 54
        E 0 90 3c 46
        E 0 90 39 46
        E 2 90 5f 4a
        E 80 90 5f 00
        E 0 90 58 43
        E 77 90 5e 4b
        E 3 90 58 00
        E 77 90 5e 00
        E 2 90 54 43
        E 78 90 5d 4b
        E 2 90 54 00
        E 77 90 58 43
        E 1 90 5d 00
        E 79 90 58 00
        E 2 90 40 00
        E 0 90 3c 00
        E 0 90 39 00
        E 0 90 39 4a
        E 0 90 3c 4a
        E 0 90 41 58
        E 2 90 5c 49
        E 78 90 54 3e
        E 2 90 5c 00
        E 77 90 5b 46
        E 1 90 54 00
        E 79 90 5b 00
        E 0 90 54 3e
        E 80 90 54 00
        E 2 90 5a 43
        E 78 90 51 3e
        E 2 90 5a 00
        E 78 90 51 00
        E 0 90 59 46
        E 1 90 39 00
        E 0 90 3c 00
        E 0 90 41 00
        E 0 90 39 46
        E 0 90 3c 46
        E 0 90 40 54
        E 79 90 59 00
        E 0 90 54 43
        E 80 90 54 00
        E 2 90 58 46
        E 80 90 58 00
        E 1 90 51 43
        E 80 90 51 00
        E 0 90 57 46
        E 79 90 54 43
        E 1 90 57 00
        E 76 90 56 46
        E 2 90 39 00
        E 0 90 3c 00
        E 0 90 40 00
        E 0 90 34 43
        E 0 90 39 43
        E 0 90 3c 4f
        E 1 90 54 00
        E 77 90 56 00
        E 1 90 51 3e
        E 80 90 51 00
        E 4 90 55 43
        E 76 90 51 3e
        E 4 90 55 00
        E 76 90 51 00
        E 0 90 54 43
        E 79 90 4c 3e
        E 1 90 54 00
        E 79 90 4c 00
        E 2 90 34 00
        E 0 90 39 00
        E 0 90 3c 00
        E 0 90 53 43
        E 0 90 39 43
        E 0 90 3c 43
        E 0 90 40 4f
        E 79 90 4c 3e
        E 1 90 53 00
        E 79 90 4c 00
        E 4 90 52 43
        E 76 90 48 3e
        E 4 90 52 00
        E 76 90 48 00
        E 0 90 51 43
        E 80 90 51 00
        E 2 90 4c 3e
        E 80 90 4c 00
        E 1 90 50 43
        E 79 90 48 3e
        E 1 90 50 00
        E 77 90 4f 43
        E 2 90 48 00
        E 78 90 4f 00
        E 3 90 48 3e
        E 78 90 4e 43
        E 2 90 48 00
        E 78 90 4e 00
        E 2 90 45 3e
        E 76 90 4d 35
        E 2 90 39 00
        E 0 90 3c 00
        E 0 90 40 00
        E 0 90 1f 45
        E 2 90 45 00
        E 76 90 4d 00
        E 4 90 48 31
        E 79 90 4c 35
        E 1 90 48 00
        E 76 90 45 31
        E 2 90 1f 00
        E 1 90 4c 00
        E 77 90 45 00
        E 4 90 4b 35
        E 78 90 48 31
        E 2 90 4b 00
        E 78 90 48 00
        E 0 90 2b 3a
        E 0 90 34 45
        E 1 90 4a 35
        E 80 90 4a 00
        E 2 90 45 31
        E 78 90 49 35
        E 2 90 45 00
        E 77 90 45 31
        E 1 90 49 00
        E 77 90 48 35
        E 2 90 45 00
        E 40 90 2b 00
        E 0 90 34 00
        E 0 90 2b 32
        E 0 90 34 3d
        E 38 90 48 00
        E 4 90 40 31
        E 78 90 2b 00
        E 0 90 34 00
        E 0 90 2b 3c
        E 0 90 34 46
        E 1 90 47 35
        E 1 90 40 00
        E 78 90 40 31
        E 1 90 47 00
        E 79 90 40 00
        E 1 90 46 33
        E 80 90 46 00
        E 1 90 3c 30
        E 76 90 45 32
        E 4 90 3c 00
        E 76 90 45 00
        E 0 90 40 2d
        E 80 90 40 00
        E 2 90 34 00
        E 0 90 35 3e
        E 1 90 44 31
        E 80 90 44 00
        E 1 90 3c 2c
        E 77 90 43 2f
        E 3 90 3c 00
        E 77 90 43 00
        E 3 90 3c 2c
        E 80 90 3c 00
        E 1 90 42 2d
        E 79 90 39 2a
        E 1 90 42 00
        E 76 90 41 2d
        E 1 90 35 00
        E 0 90 2b 3a
        E 0 90 34 3a
        E 2 90 39 00
        E 77 90 41 00
        E 2 90 3c 2a
        E 79 90 40 2d
        E 1 90 3c 00
        E 77 90 39 2a
        E 2 90 40 00
        E 78 90 39 00
        E 2 90 3f 2c
        E 78 90 3c 28
        E 2 90 3f 00
        E 78 90 3c 00
        E 2 90 2b 00
        E 0 90 34 00
        E 0 90 30 3a
        E 2 90 3e 2a
        E 76 90 39 27
        E 4 90 3e 00
        E 76 90 39 00
        E 4 90 3d 2a
        E 80 90 3d 00
        E 0 90 39 27
        E 80 90 39 00
        E 0 90 3c 28
        E 80 90 3c 00
        E 1 90 34 26
        E 77 90 2b 00
        E 0 90 30 00
        E 0 90 29 3a
        E 2 90 3b 28
        E 1 90 34 00
        E 78 90 35 27
        E 1 90 3b 00
        E 77 90 39 2d
        E 2 90 35 00
        E 77 90 30 2a
        E 1 90 39 00
        E 79 90 30 00
        E 1 90 38 2f
        E 80 90 38 00
        E 3 90 35 2d
        E 78 90 29 00
        E 0 90 28 3a
        E 2 90 35 00
        E 1 90 39 32
        E 77 90 30 30
        E 3 90 39 00
        E 76 90 3b 35
        E 1 90 30 00
        E 79 90 3b 00
        E 3 90 34 32
        E 79 90 3c 38
        E 1 90 34 00
        E 78 90 30 35
        E 1 90 3c 00
        E 79 90 28 00
        E 0 90 30 00
        E 0 90 3c 39
        E 0 90 26 3f
        E 80 90 3c 00
        E 3 90 35 39
        E 77 90 3b 39
        E 3 90 35 00
        E 73 90 3b 00
        E 4 90 26 00
        E 3 90 3b 39
        E 76 90 48 39
        E 4 90 3b 00
        E 76 90 48 00
        E 2 90 41 39
        E 79 90 47 38
        E 0 90 41 3f
        E 0 90 39 3f
        E 1 90 41 00
        E 74 90 47 00
        E 5 90 47 39
        E 80 90 41 00
        E 0 90 39 00
        E 0 90 47 00
        E 0 90 31 3e
        E 3 90 54 3a
        E 77 90 4d 3b
        E 3 90 54 00
        E 77 90 31 00
        E 0 90 4d 00
        E 0 90 53 3b
        E 0 90 32 3f
        E 75 90 53 00
        E 5 90 53 3c
        E 80 90 32 00
        E 0 90 53 00
        E 0 90 33 45
        E 0 90 42 3a
        E 0 90 39 3a
        E 1 90 60 3d
        E 80 90 60 00
        E 1 90 5a 3d
        E 76 90 5f 3c
        E 4 90 5a 00
        E 76 90 5f 00
        E 3 90 53 3b
        E 78 90 54 3b
        E 2 90 53 00
        E 78 90 54 00
        E 0 90 4e 3a
        E 80 90 4e 00
        E 1 90 33 00
        E 0 90 42 00
        E 0 90 39 00
        E 0 90 27 48
        E 2 90 53 38
        E 80 90 53 00
        E 1 90 47 38
        E 79 90 48 38
        E 1 90 47 00
        E 79 90 48 00
        E 1 90 42 38
        E 78 90 47 38
        E 2 90 42 00
        E 78 90 47 00
        E 2 90 3b 38
        E 77 90 27 00
        E 0 90 28 49
        E 3 90 3b 00
        E 0 90 4a 3b
        E 78 90 43 3b
        E 2 90 4a 00
        E 77 90 49 3c
        E 1 90 43 00
        E 74 90 49 00
        E 5 90 28 00
        E 0 90 49 3d
        E 78 90 56 3d
        E 2 90 49 00
        E 78 90 56 00
        E 4 90 4d 40
        E 78 90 55 42
        E 0 90 43 43
        E 0 90 3a 4f
        E 2 90 4d 00
        E 73 90 55 00
        E 5 90 55 42
        E 80 90 43 00
        E 0 90 3a 00
        E 0 90 55 00
        E 0 90 33 4f
        E 1 90 62 43
        E 80 90 62 00
        E 1 90 5b 44
        E 78 90 33 00
        E 0 90 34 4f
        E 2 90 5b 00
        E 0 90 61 44
        E 80 90 61 00
        E 1 90 55 45
        E 75 90 63 45
        E 2 90 34 00
        E 0 90 35 51
        E 0 90 46 44
        E 0 90 3a 44
        E 0 90 3e 44
        E 3 90 55 00
        E 75 90 63 00
        E 2 90 5e 45
        E 80 90 5e 00
        E 1 90 62 46
        E 79 90 56 47
        E 1 90 62 00
        E 79 90 56 00
        E 0 90 57 47
        E 80 90 57 00
        E 2 90 52 48
        E 78 90 35 00
        E 0 90 46 00
        E 0 90 3a 00
        E 0 90 3e 00
        E 0 90 29 46
        E 0 90 35 52
        E 1 90 56 49
        E 1 90 52 00
        E 78 90 4a 49
        E 1 90 56 00
        E 79 90 4a 00
        E 1 90 4b 4b
        E 79 90 46 4e
        E 1 90 4b 00
        E 79 90 46 00
        E 2 90 4a 4e
        E 76 90 3e 4f
        E 4 90 4a 00
        E 76 90 3e 00
        E 0 90 4c 4e
        E 2 90 29 00
        E 0 90 35 00
        E 0 90 1d 50
        E 0 90 29 60
        E 78 90 4c 00
        E 5 90 45 48
        E 75 90 4b 4e
        E 5 90 45 00
        E 75 90 4b 00
        E 2 90 1d 00
        E 0 90 29 00
        E 0 90 3f 48
        E 78 90 4c 4e
        E 2 90 3f 00
        E 78 90 4c 00
        E 2 90 45 48
        E 80 90 45 00
        E 0 90 4b 51
        E 0 90 35 59
        E 0 90 41 59
        E 80 90 4b 00
        E 0 90 4b 4b
        E 80 90 4b 00
        E 0 90 58 56
        E 79 90 51 4f
        E 1 90 58 00
        E 79 90 51 00
        E 1 90 57 56
        E 40 90 35 00
        E 0 90 41 00
        E 0 90 35 59
        E 0 90 41 59
        E 40 90 57 00
        E 0 90 57 50
        E 80 90 35 00
        E 0 90 41 00
        E 0 90 57 00
        E 0 90 35 59
        E 0 90 41 59
        E 3 90 64 56
        E 80 90 64 00
        E 0 90 5d 50
        E 77 90 63 56
        E 3 90 5d 00
        E 77 90 63 00
        E 0 90 57 51
        E 79 90 58 56
        E 1 90 57 00
        E 79 90 58 00
        E 4 90 51 51
        E 77 90 35 00
        E 0 90 41 00
        E 0 90 35 4b
        E 0 90 3c 4b
        E 0 90 43 5a
        E 2 90 57 56
        E 1 90 51 00
        E 77 90 4b 50
        E 2 90 57 00
        E 78 90 4b 00
        E 2 90 58 56
        E 79 90 51 56
        E 1 90 58 00
        E 78 90 57 56
        E 1 90 51 00
        E 72 90 57 00
        E 7 90 57 50
        E 80 90 35 00
        E 0 90 3c 00
        E 0 90 43 00
        E 0 90 57 00
        E 0 90 35 5e
        E 0 90 41 5e
        E 2 90 64 56
        E 77 90 5d 50
        E 3 90 64 00
        E 76 90 63 56
        E 1 90 5d 00
        E 79 90 63 00
        E 3 90 57 56
        E 80 90 57 00
        E 1 90 58 56
        E 79 90 51 50
        E 1 90 58 00
        E 76 90 57 52
        E 2 90 35 00
        E 0 90 41 00
        E 0 90 30 5a
        E 0 90 3c 5a
        E 1 90 51 00
        E 77 90 57 00
        E 3 90 4b 4e
        E 79 90 58 52
        E 1 90 4b 00
        E 79 90 58 00
        E 3 90 51 52
        E 77 90 57 52
        E 3 90 51 00
        E 71 90 57 00
        E 6 90 57 4e
        E 79 90 64 50
        E 1 90 30 00
        E 0 90 3c 00
        E 0 90 57 00
        E 0 90 35 5c
        E 0 90 41 5c
        E 78 90 5d 44
        E 1 90 64 00
        E 79 90 5d 00
        E 1 90 63 46
        E 80 90 63 00
        E 1 90 57 3e
        E 80 90 57 00
        E 1 90 64 42
        E 77 90 5d 3c
        E 3 90 64 00
        E 77 90 5d 00
        E 2 90 63 3e
        E 78 90 57 3a
        E 2 90 63 00
        E 78 90 57 00
        E 5 90 64 3b
        E 79 90 5d 35
        E 1 90 64 00
        E 75 90 63 37
        E 4 90 5d 00
        E 76 90 63 00
        E 0 90 57 31
        E 80 90 57 00
        E 0 90 29 3a
        E 2 90 35 00
        E 0 90 41 00
        E 2 90 64 3c
        E 76 90 29 00
        E 0 90 2f 2d
        E 4 90 64 00
        E 1 90 5f 37
        E 75 90 2f 00
        E 3 90 2d 35
        E 1 90 63 3d
        E 1 90 5f 00
        E 76 90 33 2e
        E 2 90 2d 00
        E 1 90 63 00
        E 0 90 5d 38
        E 76 90 64 3e
        E 1 90 33 00
        E 3 90 5d 00
        E 0 90 2d 37
        E 76 90 64 00
        E 4 90 2d 00
        E 0 90 5f 38
        E 0 90 33 31
        E 79 90 63 3f
        E 1 90 5f 00
        E 0 90 33 00
        E 0 90 2f 38
        E 79 90 63 00
        E 0 90 5d 39
        E 0 90 35 31
        E 1 90 2f 00
        E 76 90 2f 38
        E 3 90 5d 00
        E 0 90 35 00
        E 2 90 64 40
        E 75 90 2f 00
        E 0 90 5f 3c
        E 1 90 35 32
        E 4 90 64 00
        E 75 90 5f 00
        E 1 90 35 00
        E 4 90 63 42
        E 0 90 33 39
        E 77 90 39 32
        E 3 90 63 00
        E 0 90 33 00
        E 0 90 5d 3c
        E 77 90 39 00
        E 1 90 64 43
        E 1 90 33 3a
        E 1 90 5d 00
        E 78 90 64 00
        E 1 90 33 00
        E 1 90 5f 3c
        E 0 90 39 32
        E 78 90 63 44
        E 2 90 5f 00
        E 0 90 39 00
        E 0 90 35 3a
        E 75 90 5d 3e
        E 2 90 3b 33
        E 1 90 63 00
        E 2 90 35 00
        E 75 90 5d 00
        E 2 90 3b 00
        E 0 90 35 3c
        E 3 90 64 45
        E 77 90 35 00
        E 1 90 5f 3f
        E 1 90 3b 33
        E 1 90 64 00
        E 76 90 63 46
        E 2 90 5f 00
        E 1 90 3b 00
        E 0 90 39 3d
        E 77 90 63 00
        E 0 90 5d 40
        E 1 90 3f 34
        E 2 90 39 00
        E 77 90 5d 00
        E 1 90 3f 00
        E 1 90 64 48
        E 1 90 39 3d
        E 77 90 3f 37
        E 2 90 64 00
        E 1 90 39 00
        E 1 90 5f 42
        E 76 90 3f 00
        E 1 90 3b 3e
        E 2 90 63 49
        E 1 90 5f 00
        E 75 90 41 35
        E 2 90 3b 00
        E 2 90 63 00
        E 1 90 5d 43
        E 75 90 41 00
        E 2 90 64 4a
        E 2 90 3b 3e
        E 1 90 5d 00
        E 76 90 41 38
        E 1 90 64 00
        E 2 90 3b 00
        E 1 90 5f 43
        E 75 90 3f 3f
        E 1 90 41 00
        E 2 90 63 4b
        E 2 90 5f 00
        E 75 90 3f 00
        E 1 90 45 38
        E 2 90 63 00
        E 1 90 5d 43
        E 76 90 64 4d
        E 1 90 45 00
        E 2 90 3f 40
        E 1 90 5d 00
        E 76 90 64 00
        E 3 90 3f 00
        E 1 90 5f 45
        E 0 90 45 39
        E 77 90 41 40
        E 3 90 5f 00
        E 0 90 45 00
        E 0 90 63 4e
        E 77 90 41 00
        E 0 90 47 3a
        E 3 90 63 00
        E 1 90 5d 45
        E 76 90 47 00
        E 1 90 41 42
        E 3 90 5d 00
        E 0 90 64 4f
        E 76 90 5f 45
        E 1 90 41 00
        E 2 90 47 3a
        E 1 90 64 00
        E 75 90 63 50
        E 1 90 5f 00
        E 2 90 45 43
        E 1 90 47 00
        E 76 90 63 00
        E 1 90 5d 45
        E 1 90 4b 3a
        E 1 90 45 00
        E 78 90 5d 00
        E 0 90 64 51
        E 1 90 4b 00
        E 3 90 45 43
        E 76 90 64 00
        E 0 90 4b 3a
        E 4 90 45 00
        E 0 90 5f 46
        E 76 90 4b 00
        E 4 90 5f 00
        E 0 90 63 52
        E 0 90 47 44
        E 76 90 5d 4a
        E 2 90 4d 3c
        E 2 90 63 00
        E 0 90 47 00
        E 76 90 5d 00
        E 0 90 64 54
        E 2 90 4d 00
        E 0 90 47 45
        E 78 90 64 00
        E 1 90 4d 3e
        E 1 90 47 00
        E 2 90 5f 4e
        E 77 90 4d 00
        E 0 90 63 56
        E 2 90 4b 45
        E 1 90 5f 00
        E 76 90 5d 4e
        E 1 90 63 00
        E 2 90 4b 00
        E 0 90 51 3e
        E 77 90 5d 00
        E 3 90 51 00
        E 0 90 4b 46
        E 1 90 64 58
        E 77 90 51 3f
        E 2 90 4b 00
        E 0 90 5f 50
        E 1 90 64 00
        E 75 90 4d 48
        E 2 90 51 00
        E 0 90 63 59
        E 2 90 5f 00
        E 76 90 4d 00
        E 2 90 63 00
        E 0 90 5d 51
        E 1 90 53 3f
        E 78 90 45 59
        E 0 90 4c 59
        E 1 90 5d 00
        E 0 90 40 59
        E 1 90 53 00
        E 0 90 65 59
        E 0 90 48 59
        E 80 90 65 00
        E 0 90 60 52
        E 80 90 60 00
        E 2 90 64 59
        E 76 90 45 00
        E 0 90 4c 00
        E 1 90 40 00
        E 1 90 48 00
        E 1 90 5d 52
        E 1 90 64 00
        E 79 90 5d 00
        E 0 90 62 4f
        E 1 90 56 4f
        E 77 90 5d 48
        E 2 90 62 00
        E 0 90 51 45
        E 1 90 56 00
        E 77 90 5d 00
        E 0 90 54 4f
        E 1 90 60 4f
        E 1 90 51 00
        E 77 90 4c 46
        E 1 90 54 00
        E 1 90 60 00
        E 2 90 58 4b
        E 76 90 4c 00
        E 1 90 53 4f
        E 1 90 5f 4f
        E 2 90 58 00
        E 76 90 58 4b
        E 1 90 53 00
        E 1 90 5f 00
        E 0 90 4c 47
        E 78 90 58 00
        E 1 90 5d 4f
        E 1 90 4c 00
        E 2 90 51 4f
        E 77 90 5d 00
        E 1 90 54 48
        E 2 90 51 00
        E 0 90 48 46
        E 78 90 54 00
        E 1 90 59 4f
        E 0 90 4d 4f
        E 1 90 48 00
        E 77 90 54 49
        E 2 90 59 00
        E 0 90 4d 00
        E 1 90 48 46
        E 77 90 54 00
        E 2 90 58 4f
        E 1 90 48 00
        E 0 90 4c 4f
        E 76 90 51 48
        E 2 90 45 46
        E 1 90 58 00
        E 1 90 4c 00
        E 75 90 56 4f
        E 0 90 4a 4f
        E 1 90 51 00
        E 2 90 45 00
        E 77 90 56 00
        E 0 90 4a 00
        E 0 90 51 49
        E 1 90 45 48
        E 79 90 51 00
        E 0 90 54 4f
        E 1 90 45 00
        E 0 90 48 4f
        E 79 90 54 00
        E 1 90 48 00
        E 1 90 4c 48
        E 2 90 40 46
        E 77 90 53 4f
        E 0 90 47 4f
        E 1 90 4c 00
        E 2 90 40 00
        E 77 90 53 00
        E 0 90 47 00
        E 0 90 40 47
        E 2 90 4c 48
        E 78 90 40 00
        E 1 90 45 4f
        E 1 90 4c 00
        E 2 90 51 4f
        E 76 90 48 48
        E 1 90 45 00
        E 3 90 51 00
        E 0 90 3c 47
        E 76 90 48 00
        E 0 90 41 4f
        E 3 90 4d 4f
        E 1 90 3c 00
        E 76 90 41 00
        E 0 90 3c 47
        E 2 90 48 48
        E 1 90 4d 00
        E 77 90 3c 00
        E 2 90 48 00
        E 2 90 4c 4f
        E 0 90 40 4f
        E 75 90 45 48
        E 1 90 39 47
        E 4 90 4c 00
        E 0 90 40 00
        E 75 90 45 00
        E 1 90 39 00
        E 0 90 4a 4f
        E 4 90 3e 4f
        E 76 90 4a 00
        E 1 90 45 48
        E 2 90 39 47
        E 1 90 3e 00
        E 75 90 3c 4f
        E 2 90 45 00
        E 2 90 39 00
        E 0 90 48 4f
        E 76 90 3c 00
        E 3 90 34 47
        E 1 90 48 00
        E 0 90 40 49
        E 76 90 47 4f
        E 1 90 3b 4f
        E 2 90 34 00
        E 1 90 40 00
        E 76 90 47 00
        E 1 90 3b 00
        E 1 90 40 48
        E 0 90 34 46
        E 79 90 39 4f
        E 1 90 40 00
        E 0 90 34 00
        E 0 90 45 4f
        E 79 90 39 00
        E 1 90 45 00
        E 2 90 30 46
        E 1 90 3c 48
        E 77 90 3b 51
        E 0 90 47 60
        E 0 90 40 51
        E 0 90 45 60
        E 0 90 28 49
        E 0 90 34 56
        E 2 90 30 00
        E 1 90 3c 00
        E 477 90 3b 00
        E 0 90 47 00
        E 0 90 40 00
        E 0 90 45 00
        E 0 90 28 00
        E 0 90 34 00
        E 0 90 40 51
        E 0 90 4c 60
        E 0 90 3e 51
        E 0 90 44 60
        E 0 90 47 60
        E 0 90 1c 49
        E 0 90 28 56
        E 478 90 5d 64
        E 2 90 40 00
        E 0 90 4c 00
        E 0 90 3e 00
        E 0 90 44 00
        E 0 90 47 00
        E 0 90 1c 00
        E 0 90 28 00
        E 3 90 21 65
        E 69 90 5d 00
        E 10 90 58 52
        E 39 90 28 4d
        E 2 90 21 00
        E 39 90 58 00
        E 0 90 5c 5d
        E 76 90 30 4d
        E 3 90 28 00
        E 0 90 54 54
        E 1 90 5c 00
        E 79 90 54 00
        E 0 90 5b 5d
        E 37 90 30 00
        E 2 90 28 4d
        E 40 90 58 52
        E 1 90 5b 00
        E 77 90 5a 5d
        E 2 90 28 00
        E 0 90 58 00
        E 2 90 21 58
        E 76 90 5a 00
        E 0 90 54 53
        E 44 90 21 00
        E 0 90 28 4d
        E 36 90 54 00
        E 4 90 59 5d
        E 76 90 54 53
        E 4 90 28 00
        E 0 90 59 00
        E 1 90 30 4d
        E 75 90 54 00
        E 1 90 58 5d
        E 44 90 30 00
        E 0 90 28 4d
        E 36 90 58 00
        E 0 90 51 53
        E 79 90 57 5d
        E 0 90 21 61
        E 1 90 51 00
        E 4 90 28 00
        E 75 90 57 00
        E 3 90 54 52
        E 37 90 21 00
        E 3 90 28 4d
        E 38 90 56 5d
        E 2 90 54 00
        E 78 90 56 00
        E 2 90 28 00
        E 1 90 51 52
        E 1 90 30 4d
        E 78 90 55 5d
        E 1 90 51 00
        E 39 90 28 4d
        E 2 90 30 00
        E 38 90 55 00
        E 0 90 51 52
        E 80 90 28 00
        E 0 90 51 00
        E 0 90 21 59
        E 2 90 54 5d
        E 78 90 4c 52
        E 2 90 54 00
        E 38 90 21 00
        E 0 90 28 4d
        E 40 90 4c 00
        E 1 90 53 5d
        E 77 90 30 4d
        E 2 90 28 00
        E 0 90 4c 52
        E 1 90 53 00
        E 76 90 52 5d
        E 3 90 4c 00
        E 38 90 30 00
        E 3 90 28 4d
        E 36 90 52 00
        E 1 90 48 52
        E 79 90 51 5d
        E 1 90 48 00
        E 3 90 28 00
        E 1 90 21 65
        E 75 90 51 00
        E 4 90 4c 51
        E 41 90 21 00
        E 0 90 28 4d
        E 39 90 4c 00
        E 1 90 50 5d
        E 75 90 30 4d
        E 3 90 48 52
        E 2 90 28 00
        E 0 90 50 00
        E 76 90 4f 5d
        E 2 90 48 00
        E 37 90 30 00
        E 2 90 28 4d
        E 39 90 4f 00
        E 1 90 4c 52
        E 78 90 4e 5d
        E 2 90 28 00
        E 0 90 4c 00
        E 0 90 1c 65
        E 78 90 4e 00
        E 3 90 48 52
        E 39 90 1c 00
        E 0 90 28 4d
        E 39 90 4d 5d
        E 2 90 48 00
        E 77 90 30 4d
        E 1 90 4d 00
        E 1 90 28 00
        E 1 90 48 52
        E 79 90 4c 5d
        E 1 90 48 00
        E 37 90 30 00
        E 1 90 28 4d
        E 41 90 4c 00
        E 1 90 45 52
        E 78 90 28 00
        E 2 90 45 00
        E 1 90 4b 5d
        E 0 90 21 60
        E 80 90 4b 00
        E 0 90 48 52
        E 36 90 28 4d
        E 4 90 21 00
        E 40 90 48 00
        E 0 90 4a 5d
        E 76 90 28 00
        E 3 90 45 52
        E 1 90 4a 00
        E 1 90 30 4d
        E 75 90 49 5d
        E 3 90 45 00
        E 39 90 28 4d
        E 3 90 30 00
        E 35 90 49 00
        E 5 90 45 52
        E 77 90 28 00
        E 1 90 30 53
        E 1 90 48 5d
        E 1 90 45 00
        E 75 90 40 50
        E 4 90 48 00
        E 38 90 28 49
        E 1 90 30 00
        E 37 90 40 00
        E 1 90 47 5c
        E 80 90 47 00
        E 1 90 28 00
        E 0 90 40 4f
        E 2 90 30 47
        E 76 90 46 5a
        E 2 90 40 00
        E 41 90 28 46
        E 1 90 30 00
        E 36 90 46 00
        E 5 90 3c 4f
        E 77 90 45 59
        E 1 90 28 00
        E 0 90 21 4e
        E 2 90 3c 00
        E 77 90 45 00
        E 2 90 40 4d
        E 38 90 28 44
        E 1 90 21 00
        E 40 90 44 58
        E 1 90 40 00
        E 78 90 28 00
        E 1 90 44 00
        E 1 90 3c 4d
        E 0 90 30 43
        E 79 90 43 56
        E 1 90 3c 00
        E 40 90 30 00
        E 1 90 28 42
        E 38 90 43 00
        E 2 90 40 4b
        E 76 90 42 55
        E 2 90 21 48
        E 2 90 28 00
        E 0 90 40 00
        E 76 90 42 00
        E 4 90 3c 4a
        E 38 90 21 00
        E 1 90 28 3f
        E 41 90 3c 00
        E 0 90 41 54
        E 77 90 3c 49
        E 2 90 28 00
        E 0 90 30 3e
        E 1 90 41 00
        E 75 90 40 51
        E 2 90 3c 00
        E 42 90 30 00
        E 1 90 28 3d
        E 35 90 40 00
        E 0 90 39 48
        E 80 90 39 00
        E 1 90 21 45
        E 4 90 28 00
        E 0 90 3f 4f
        E 80 90 3f 00
        E 0 90 3c 46
        E 36 90 21 00
        E 2 90 28 3c
        E 40 90 3e 4e
        E 2 90 3c 00
        E 75 90 39 44
        E 3 90 28 00
        E 0 90 3e 00
        E 2 90 30 3b
        E 75 90 39 00
        E 0 90 3d 4b
        E 44 90 28 3a
        E 1 90 30 00
        E 35 90 3d 00
        E 1 90 39 43
        E 80 90 39 00
        E 1 90 3c 4a
        E 0 90 21 3f
        E 2 90 28 00
        E 78 90 3c 00
        E 0 90 34 3f
        E 40 90 21 00
        E 2 90 28 34
        E 38 90 34 00
        E 2 90 3b 48
        E 79 90 30 33
        E 1 90 28 00
        E 0 90 3b 00
        E 0 90 34 3c
        E 79 90 3a 44
        E 1 90 34 00
        E 38 90 28 32
        E 1 90 30 00
        E 40 90 3a 00
        E 2 90 30 3a
        E 77 90 28 00
        E 1 90 39 64
        E 2 90 30 00
        E 0 90 2d 59
        E 78 90 39 00
        E 2 90 34 59
        E 32 90 2d 00
        E 44 90 38 64
        E 2 90 2c 54
        E 2 90 34 00
        E 76 90 38 00
        E 0 90 30 5b
        E 34 90 2c 00
        E 46 90 30 00
        E 0 90 37 64
        E 0 90 2b 58
        E 80 90 37 00
        E 1 90 34 59
        E 31 90 2b 00
        E 48 90 36 64
        E 1 90 34 00
        E 1 90 2a 59
        E 78 90 36 00
        E 0 90 30 5a
        E 34 90 2a 00
        E 46 90 30 00
        E 3 90 29 53
        E 1 90 35 64
        E 79 90 30 5a
        E 1 90 35 00
        E 31 90 29 00
        E 47 90 28 54
        E 1 90 30 00
        E 1 90 34 64
        E 77 90 2d 5a
        E 3 90 34 00
        E 30 90 28 00
        E 47 90 2d 00
        E 0 90 33 64
        E 3 90 27 59
        E 77 90 33 00
        E 3 90 30 58
        E 32 90 27 00
        E 43 90 32 64
        E 3 90 26 54
        E 2 90 30 00
        E 75 90 32 00
        E 4 90 2d 58
        E 31 90 26 00
        E 46 90 31 64
        E 0 90 25 54
        E 3 90 2d 00
        E 77 90 31 00
        E 2 90 2d 58
        E 30 90 25 00
        E 48 90 30 64
        E 2 90 2d 00
        E 0 90 24 59
        E 78 90 30 00
        E 3 90 28 58
        E 31 90 24 00
        E 46 90 2f 64
        E 0 90 23 53
        E 3 90 28 00
        E 77 90 2f 00
        E 0 90 28 58
        E 32 90 23 00
        E 48 90 28 00
        E 4 90 2e 64
        E 0 90 22 53
        E 77 90 28 58
        E 3 90 2e 00
        E 32 90 22 00
        E 45 90 28 00
        E 0 90 2d 79
        E 0 90 21 68
        E 480 90 2d 00
        E 0 90 21 00
        E 0 90 39 55
        E 0 90 3c 55
        E 0 90 45 65
        E 0 90 40 65
        E 0 90 21 4c
        E 0 90 28 5a
        E 0 90 2d 5a
        E 360 90 39 00
        E 0 90 3c 00
        E 0 90 45 00
        E 0 90 40 00
        E 0 90 21 00
        E 0 90 28 00
        E 0 90 2d 00
        E 0 90 39 51
        E 0 90 40 60
        E 0 90 3c 51
        E 0 90 45 60
        E 0 90 21 49
        E 0 90 28 56
        E 0 90 2d 56
        E 120 90 39 00
        E 0 90 40 00
        E 0 90 3c 00
        E 0 90 45 00
        E 0 90 21 00
        E 0 90 28 00
        E 0 90 2d 00
        E 0 90 39 55
        E 0 90 40 65
        E 0 90 3c 55
        E 0 90 45 65
        E 0 90 21 4c
        E 0 90 28 5a
        E 0 90 2d 5a
        E 480 90 39 00
        E 0 90 40 00
        E 0 90 3c 00
        E 0 90 45 00
        E 0 90 21 00
        E 0 90 28 00
        E 0 90 2d 00
        E 0 90 39 52
        E 0 90 41 61
        E 0 90 3e 52
        E 0 90 45 61
        E 0 90 21 4a
        E 0 90 26 58
        E 0 90 2d 58
        E 480 90 39 00
        E 0 90 41 00
        E 0 90 3e 00
        E 0 90 45 00
        E 0 90 21 00
        E 0 90 26 00
        E 0 90 2d 00
        E 0 90 39 55
        E 0 90 40 65
        E 0 90 3c 55
        E 0 90 45 65
        E 0 90 21 4c
        E 0 90 28 5a
        E 0 90 2d 5a
        E 960 90 39 00
        E 0 90 40 00
        E 0 90 3c 00
        E 0 90 45 00
        E 0 90 21 00
        E 0 90 28 00
        E 0 90 2d 00
        E 0 90 39 54
        E 0 90 3e 63
        E 0 90 3b 54
        E 0 90 45 63
        E 0 90 21 4a
        E 0 90 29 58
        E 0 90 2d 58
        E 960 90 39 00
        E 0 90 3e 00
        E 0 90 3b 00
        E 0 90 45 00
        E 0 90 21 00
        E 0 90 29 00
        E 0 90 2d 00
        E 0 90 39 55
        E 0 90 40 65
        E 0 90 3c 55
        E 0 90 45 65
        E 0 90 21 4c
        E 0 90 28 5a
        E 0 90 2d 5a
        E 959 90 2d 46
        E 1 90 21 44
        E 118 90 2f 48
        E 0 90 23 44
        E 25 90 2d 00
        E 1 90 21 00
        E 95 90 24 45
        E 3 90 30 48
        E 20 90 2f 00
        E 0 90 23 00
        E 99 90 26 45
        E 1 90 32 49
        E 21 90 24 00
        E 3 90 30 00
        E 95 90 34 4a
        E 1 90 28 46
        E 23 90 26 00
        E 1 90 32 00
        E 94 90 2a 48
        E 1 90 36 4a
        E 24 90 34 00
        E 1 90 28 00
        E 94 90 2c 48
        E 3 90 38 4a
        E 21 90 2a 00
        E 1 90 36 00
        E 93 90 2d 49
        E 5 90 39 4a
        E 21 90 2c 00
        E 3 90 38 00
        E 94 90 3b 4b
        E 1 90 2f 49
        E 20 90 2d 00
        E 5 90 39 00
        E 93 90 30 4a
        E 1 90 3c 4e
        E 24 90 3b 00
        E 1 90 2f 00
        E 93 90 32 4a
        E 2 90 3e 4e
        E 23 90 30 00
        E 1 90 3c 00
        E 93 90 40 4f
        E 5 90 34 4a
        E 20 90 32 00
        E 2 90 3e 00
        E 96 90 36 4b
        E 1 90 42 50
        E 20 90 40 00
        E 5 90 34 00
        E 94 90 38 4b
        E 2 90 44 50
        E 22 90 36 00
        E 1 90 42 00
        E 95 90 45 51
        E 2 90 39 4e
        E 22 90 38 00
        E 2 90 44 00
        E 92 90 47 51
        E 2 90 3b 4e
        E 24 90 45 00
        E 2 90 39 00
        E 91 90 48 51
        E 1 90 3c 4f
        E 24 90 47 00
        E 2 90 3b 00
        E 94 90 3e 50
        E 4 90 4a 52
        E 19 90 48 00
        E 1 90 3c 00
        E 96 90 40 50
        E 3 90 4c 54
        E 21 90 3e 00
        E 4 90 4a 00
        E 91 90 4e 54
        E 3 90 42 51
        E 22 90 40 00
        E 3 90 4c 00
        E 92 90 50 55
        E 3 90 44 51
        E 21 90 4e 00
        E 3 90 42 00
        E 96 90 45 51
        E 2 90 51 55
        E 19 90 50 00
        E 3 90 44 00
        E 95 90 53 56
        E 2 90 47 51
        E 23 90 45 00
        E 2 90 51 00
        E 93 90 48 52
        E 2 90 54 58
        E 22 90 53 00
        E 2 90 47 00
        E 92 90 56 58
        E 3 90 4a 54
        E 23 90 48 00
        E 2 90 54 00
        E 93 90 58 59
        E 0 90 4c 54
        E 23 90 56 00
        E 3 90 4a 00
        E 93 90 5a 5a
        E 2 90 4e 55
        E 23 90 58 00
        E 0 90 4c 00
        E 95 90 5c 5a
        E 2 90 50 55
        E 22 90 5a 00
        E 2 90 4e 00
        E 96 90 21 00
        E 0 90 28 00
        E 0 90 2d 00
        E 0 90 39 00
        E 0 90 3c 00
        E 0 90 40 00
        E 0 90 45 00
        E 0 90 5d 61
        E 0 90 51 5d
        E 22 90 5c 00
        E 2 90 50 00
        E 216 90 5d 00
        E 0 90 51 00
        <X 1 0 0 0 6 Fine
          /wZGaW5l
        >
        E 0 b0 7b 00
        CCINTERP 32
        CHASE_CC_TAKEOFFS 1
        GUID {DFEBAE77-068B-1843-87C0-2F8233BBBB21}
        IGNTEMPO 0 120 4 4
        SRCCOLOR 532
        VELLANE 64 100 0
        CFGEDITVIEW 0 0.004204 26 12 0 -1 0 0 0 0.5
        KEYSNAP 0
        TRACKSEL -252
        EVTFILTER 0 -1 -1 -1 -1 0 0 0 0 -1 -1 -1 -1 0 -1 0 -1 -1
        CFGEDIT 1 1 0 1 0 0 1 1 1 1 1 0.125 598 332 1598 915 0 0 0 0 0 0 0 0 0 0.5 0 0 1 64
      >
    >
  >
  <TRACK {EB20B0C2-F121-904F-A2B0-AA9FD2A5975C}
    NAME "Bass 1: Raw"
    PEAKCOL 16576
    BEAT -1
    AUTOMODE 0
    VOLPAN 0.34264637489056 0 -1 -1 1
    MUTESOLO 1 0 0
    IPHASE 0
    PLAYOFFS 0 1
    ISBUS 0 0
    BUSCOMP 0 0 0 0 0
    SHOWINMIX 0 0.6667 0.5 0 0.5 0 -1 0
    FREEMODE 0
    SEL 0
    REC 0 5088 1 0 0 0 0
    VU 2
    TRACKHEIGHT 0 0 0 0 0 0
    INQ 0 0 0 0.5 100 0 0 100
    NCHAN 6
    FX 1
    TRACKID {EB20B0C2-F121-904F-A2B0-AA9FD2A5975C}
    PERF 0
    MIDIOUT -1
    MAINSEND 1 0
    <FXCHAIN
      WNDRECT 335 154 1105 598
      SHOW 0
      LASTSEL 0
      DOCKED 0
      BYPASS 0 0 0
      <VST "VST3i: Triangle3MonoSyn (CabbageAudio    ) (6 out)" Triangle3MonoSynth.vst3 0 "" 97607883{ABCDEF019182FAEB4361626230303131} ""
        y2DRBe5e7f4AAAAABgAAAAEAAAAAAAAAAgAAAAAAAAAEAAAAAAAAAAgAAAAAAAAAEAAAAAAAAAAgAAAAAAAAAKsDAAABAAAA//8QAA==
        mwMAAAEAAABWQzIhVgMAADw/eG1sIHZlcnNpb249IjEuMCIgZW5jb2Rpbmc9IlVURi04Ij8+IDxDQUJCQUdFX1BSRVNFVFM+PFBSRVNFVDAgUHJlc2V0TmFtZT0iQ0FC
        QkFHRV9QUkVTRVRTIDAiIGluc3RhbmNlTmFtZT0iIiB0cmFja0luZGV4PSI2IiBwbHVnaW5JbmRleD0iMCIgcGx1Z2luVXVpZD0iNjdmNmFhNjViNzI2NDcxYjk4NGIx
        NjQ0ZmNjNTk0ZWMiIGZpcnN0X3RhYl9idWdfd29ya2Fyb3VuZF90YWI9IjAuMCIgczg4X3RhYj0iMC4wIiBwb3NpdGlvbl90YWI9IjAuMCIgbG9nX3RhYj0iMS4wIiBT
        ODhfa25vYl8xPSIwLjAiIFM4OF9rbm9iXzI9IjAuMCIgUzg4X2tub2JfMz0iMC4wIiBTODhfa25vYl80PSIwLjAiIFM4OF9rbm9iXzU9IjAuMCIgUzg4X2tub2JfNj0i
        MC4wIiBTODhfa25vYl83PSIwLjAiIFM4OF9rbm9iXzg9IjAuMCIgUzg4X3BpdGNoYmVuZD0iMC4wIiBTODhfbW9kd2hlZWw9IjAuMCIgcG9zaXRpb25FbmFibGVkPSIw
        LjAiIHBvc2l0aW9uTWF4QW1wV2hlbkNsb3NlPSIwLjk5OTk5OTk0MDM5NTM1NTIiIHBvc2l0aW9uUmVmZXJlbmNlRGlzdGFuY2U9IjAuMDk5OTk5OTk0MDM5NTM1NTIi
        IHBvc2l0aW9uUm9sbG9mZkZhY3Rvcj0iMC4wMDk5OTk5OTk3NzY0ODI1ODIiIHBvc2l0aW9uT3Bjb2RlQ29tYm9Cb3hJbmRleD0iNC4wIiBwb3NpdGlvbk9wY29kZT0i
        cmF5X1haIiBwb3NpdGlvblhTY2FsZT0iMS4wMDAxODMxMDU0Njg3NSIgcG9zaXRpb25ZU2NhbGU9Ii0wLjAwMDA2MTAzNTE1NjI1IiBwb3NpdGlvblpTY2FsZT0iLTEw
        LjAiIHBvc2l0aW9uWE9mZnNldD0iMC4wMDAxMjIwNzAzMTI1IiBwb3NpdGlvbllPZmZzZXQ9IjAuMCIgcG9zaXRpb25aT2Zmc2V0PSI1MC4wIi8+PC9DQUJCQUdFX1BS
        RVNFVFM+AAAAAAAAAAAASlVDRVByaXZhdGVEYXRhAAEBQnlwYXNzAAEBAwAdAAAAAAAAAEpVQ0VQcml2YXRlRGF0YQAAAAAAAAAA
        AAAQAAAA
      >
      FLOATPOS 361 81 1000 570
      FXID {9343CED1-F5DB-294D-886F-E9A8C30BBD64}
      WAK 0 0
    >
    <ITEM
      POSITION 18.313703
      SNAPOFFS 0
      LENGTH 161.3026364249998
      LOOP 1
      ALLTAKES 0
      FADEIN 1 0 0 1 0 0 0
      FADEOUT 1 0 0 1 0 0 0
      MUTE 0 0
      SEL 0
      IGUID {876894C5-C509-C84A-864C-FD2BD2A31943}
      IID 61
      NAME "09-Triangle3MonoSynth-Recorded MIDI"
      VOLPAN 1 0 1 -1
      SOFFS 18.313703 23.9999999999978
      PLAYRATE 1 1 0 -1 0 0.0025
      CHANMODE 0
      GUID {8A1A188A-291A-1146-8C6E-5C0808E845B6}
      RECPASS 1
      <SOURCE MIDI
        HASDATA 1 960 QN
        CCINTERP 32
        POOLEDEVTS {63629441-9042-D44D-B230-56063757A92B}
        E 26796 90 26 55
        E 1332 90 29 4d
        E 33 80 26 00
        E 1029 90 26 46
        E 5 80 29 00
        E 471 90 29 4d
        E 20 80 26 00
        E 901 90 26 4d
        E 4 80 29 00
        E 1474 80 26 00
        E 8 90 24 52
        E 943 90 21 4c
        E 31 80 24 00
        E 489 90 24 4f
        E 32 80 21 00
        E 926 80 24 00
        E 6 90 26 4d
        E 1407 80 26 00
        E 3 90 29 4f
        E 931 80 29 00
        E 28 90 26 3b
        E 529 90 29 4b
        E 2 80 26 00
        E 940 80 29 00
        E 24 90 26 4d
        E 1439 80 26 00
        E 2 90 24 4b
        E 934 90 21 48
        E 20 80 24 00
        E 500 90 24 4b
        E 18 80 21 00
        E 973 80 24 00
        E 2 90 26 48
        E 1439 90 29 58
        E 13 80 26 00
        E 891 80 29 00
        E 8 90 26 47
        E 501 90 29 4f
        E 5 80 26 00
        E 966 90 26 4d
        E 19 80 29 00
        E 1465 90 24 5c
        E 11 80 26 00
        E 879 90 21 51
        E 10 80 24 00
        E 484 90 24 5d
        E 20 80 21 00
        E 929 80 24 00
        E 34 90 26 4d
        E 1417 90 29 4e
        E 5 80 26 00
        E 905 80 29 00
        E 14 90 26 46
        E 529 80 26 00
        E 15 90 29 4b
        E 925 80 29 00
        E 2 90 26 49
        E 1451 90 24 59
        E 16 80 26 00
        E 919 90 21 4b
        E 16 80 24 00
        E 460 90 24 5a
        E 35 80 21 00
        E 886 80 24 00
        E 19 90 26 56
        E 1431 90 29 52
        E 25 80 26 00
        E 936 90 26 47
        E 19 80 29 00
        E 430 90 29 4d
        E 20 80 26 00
        E 988 90 26 4e
        E 16 80 29 00
        E 1462 90 24 5c
        E 24 80 26 00
        E 853 80 24 00
        E 4 90 21 49
        E 496 90 24 56
        E 23 80 21 00
        E 954 80 24 00
        E 12 90 26 4d
        E 1422 90 29 53
        E 14 80 26 00
        E 916 80 29 00
        E 9 90 26 45
        E 499 90 29 53
        E 18 80 26 00
        E 984 90 26 4c
        E 35 80 29 00
        E 1422 90 24 5b
        E 9 80 26 00
        E 916 90 21 49
        E 10 80 24 00
        E 470 90 24 5e
        E 22 80 21 00
        E 920 90 26 5c
        E 35 80 24 00
        E 1805 80 26 00
        E 5789 90 26 4d
        E 3792 80 26 00
        E 3643 90 26 58
        E 1777 90 29 55
        E 11 80 26 00
        E 807 80 29 00
        E 25 90 26 44
        E 575 90 29 4e
        E 22 80 26 00
        E 928 90 26 4d
        E 19 80 29 00
        E 1368 80 26 00
        E 73 90 24 4e
        E 921 80 24 00
        E 16 90 21 48
        E 524 90 24 4f
        E 11 80 21 00
        E 903 80 24 00
        E 19 90 26 4b
        E 1360 80 26 00
        E 20 90 29 51
        E 982 80 29 00
        E 36 90 26 41
        E 482 80 26 00
        E 20 90 29 4b
        E 949 90 26 4c
        E 9 80 29 00
        E 1410 90 24 54
        E 7 80 26 00
        E 965 80 24 00
        E 16 90 21 48
        E 506 90 24 4d
        E 18 80 21 00
        E 941 80 24 00
        E 7 90 26 4e
        E 1367 80 26 00
        E 9 90 29 56
        E 973 80 29 00
        E 7 90 26 46
        E 527 80 26 00
        E 2 90 29 4d
        E 921 90 26 4b
        E 13 80 29 00
        E 1444 90 24 53
        E 8 80 26 00
        E 953 90 21 4c
        E 8 80 24 00
        E 462 90 24 51
        E 17 80 21 00
        E 915 80 24 00
        E 15 90 26 4c
        E 1377 80 26 00
        E 29 90 29 4e
        E 947 80 29 00
        E 3 90 26 3e
        E 517 80 26 00
        E 4 90 29 49
        E 948 90 26 4c
        E 21 80 29 00
        E 1484 90 24 4e
        E 2 80 26 00
        E 893 80 24 00
        E 10 90 21 4d
        E 488 90 24 4f
        E 13 80 21 00
        E 880 80 24 00
        E 35 90 26 4c
        E 1480 90 29 53
        E 6 80 26 00
        E 905 80 29 00
        E 31 90 26 44
        E 548 90 29 4e
        E 10 80 26 00
        E 931 90 26 4e
        E 3 80 29 00
        E 1387 90 24 62
        E 12 80 26 00
        E 920 80 24 00
        E 8 90 21 48
        E 500 90 24 56
        E 15 80 21 00
        E 977 90 26 4f
        E 6 80 24 00
        E 1415 80 26 00
        E 2 90 29 4f
        E 912 80 29 00
        E 31 90 26 44
        E 509 80 26 00
        E 2 90 29 4c
        E 961 90 26 4c
        E 10 80 29 00
        E 1291 80 26 00
        E 102 90 24 4b
        E 986 90 21 48
        E 4 80 24 00
        E 517 90 24 55
        E 36 80 21 00
        E 903 90 26 4e
        E 1 80 24 00
        E 1424 90 29 5e
        E 8 80 26 00
        E 920 90 26 48
        E 24 80 29 00
        E 485 90 29 52
        E 8 80 26 00
        E 977 90 26 4e
        E 30 80 29 00
        E 1392 80 26 00
        E 13 90 24 5c
        E 926 90 21 4e
        E 25 80 24 00
        E 460 90 24 5c
        E 32 80 21 00
        E 937 90 26 55
        E 19 80 24 00
        E 1378 80 26 00
        E 3 90 29 51
        E 968 90 26 48
        E 14 80 29 00
        E 523 90 29 54
        E 27 80 26 00
        E 948 90 26 4e
        E 34 80 29 00
        E 1387 90 24 63
        E 5 80 26 00
        E 956 90 21 4e
        E 19 80 24 00
        E 478 90 24 60
        E 44 80 21 00
        E 924 90 26 55
        E 6 80 24 00
        E 1368 90 29 5e
        E 2 80 26 00
        E 958 80 29 00
        E 2 90 26 44
        E 469 90 29 4e
        E 8 80 26 00
        E 1004 90 26 4b
        E 13 80 29 00
        E 1395 90 24 61
        E 5 80 26 00
        E 909 90 21 4f
        E 17 80 24 00
        E 474 90 24 54
        E 31 80 21 00
        E 963 90 26 53
        E 22 80 24 00
        E 1376 90 29 52
        E 8 80 26 00
        E 975 90 26 48
        E 8 80 29 00
        E 459 90 29 4f
        E 10 80 26 00
        E 987 90 26 4e
        E 32 80 29 00
        E 1408 90 24 65
        E 23 80 26 00
        E 921 90 21 4e
        E 19 80 24 00
        E 444 90 24 65
        E 28 80 21 00
        E 928 80 24 00
        E 7 90 26 4f
        E 1479 90 29 59
        E 9 80 26 00
        E 909 80 29 00
        E 1 90 26 47
        E 537 90 29 59
        E 11 80 26 00
        E 919 90 26 55
        E 3 80 29 00
        E 1425 80 26 00
        E 25 90 24 63
        E 938 90 21 52
        E 13 80 24 00
        E 492 90 24 59
        E 42 80 21 00
        E 915 90 26 4f
        E 9 80 24 00
        E 1459 90 29 5b
        E 27 80 26 00
        E 904 80 29 00
        E 9 90 26 49
        E 498 90 29 56
        E 15 80 26 00
        E 931 90 26 4e
        E 20 80 29 00
        E 1432 80 26 00
        E 8 90 24 62
        E 916 80 24 00
        E 6 90 21 49
        E 485 90 24 60
        E 28 80 21 00
        E 957 80 24 00
        E 13 90 26 4e
        E 1389 90 29 5c
        E 10 80 26 00
        E 945 90 26 48
        E 7 80 29 00
        E 509 90 29 51
        E 21 80 26 00
        E 921 90 26 4d
        E 27 80 29 00
        E 1385 90 24 65
        E 2 80 26 00
        E 958 90 21 58
        E 9 80 24 00
        E 467 90 24 65
        E 9 80 21 00
        E 934 80 24 00
        E 17 90 26 52
        E 1427 80 26 00
        E 2 90 29 59
        E 953 80 29 00
        E 14 90 26 4a
        E 470 80 26 00
        E 12 90 29 4e
        E 969 90 26 4f
        E 14 80 29 00
        E 1433 80 26 00
        E 2 90 24 5a
        E 921 90 21 4e
        E 31 80 24 00
        E 457 90 24 58
        E 27 80 21 00
        E 919 80 24 00
        E 26 90 26 50
        E 1005 80 26 00
        E 2911 90 26 47
        E 1011 80 26 00
        E 1459 90 2c 49
        E 522 80 2c 00
        E 40 90 2b 4b
        E 962 80 2b 00
        E 19 90 29 55
        E 1333 80 29 00
        E 100 90 26 4c
        E 1511 80 26 00
        E 4217 90 26 4d
        E 2237 80 26 00
        E 3709 90 2c 48
        E 464 80 2c 00
        E 38 90 2b 4c
        E 905 80 2b 00
        E 30 90 29 4c
        E 1370 80 29 00
        E 15 90 26 50
        E 2992 80 26 00
        E 3429 90 26 58
        E 2082 90 29 50
        E 183 80 26 00
        E 283 90 26 03
        E 180 80 26 00
        E 340 90 26 2d
        E 121 80 26 00
        E 1135 90 24 46
        E 80 80 24 00
        E 140 90 26 46
        E 1312 90 24 4c
        E 4 80 26 00
        E 82 80 29 00
        E 808 90 21 49
        E 20 80 24 00
        E 468 90 24 5b
        E 33 80 21 00
        E 812 80 24 00
        E 15 90 26 4d
        E 1454 90 29 54
        E 11 80 26 00
        E 934 80 29 00
        E 17 90 26 41
        E 487 90 29 4c
        E 9 80 26 00
        E 950 90 26 4e
        E 20 80 29 00
        E 1415 90 24 4e
        E 6 80 26 00
        E 934 80 24 00
        E 4 90 21 47
        E 486 90 24 53
        E 27 80 21 00
        E 992 80 24 00
        E 4 90 26 51
        E 1418 90 29 59
        E 13 80 26 00
        E 979 90 26 44
        E 11 80 29 00
        E 463 90 29 4e
        E 17 80 26 00
        E 964 90 26 4e
        E 35 80 29 00
        E 1402 90 24 56
        E 14 80 26 00
        E 941 80 24 00
        E 2 90 21 4a
        E 479 90 24 5b
        E 18 80 21 00
        E 906 80 24 00
        E 16 90 26 53
        E 1384 80 26 00
        E 8 90 29 52
        E 1011 90 26 4a
        E 3 80 29 00
        E 468 90 29 4e
        E 8 80 26 00
        E 940 90 26 4f
        E 41 80 29 00
        E 1406 90 24 5b
        E 5 80 26 00
        E 954 90 21 4a
        E 22 80 24 00
        E 446 90 24 53
        E 17 80 21 00
        E 943 80 24 00
        E 5 90 26 51
        E 1456 80 26 00
        E 8 90 29 58
        E 976 80 29 00
        E 7 90 26 44
        E 468 90 29 4f
        E 3 80 26 00
        E 978 90 26 4c
        E 19 80 29 00
        E 1418 90 24 56
        E 14 80 26 00
        E 921 90 21 49
        E 14 80 24 00
        E 466 90 24 5c
        E 29 80 21 00
        E 971 90 26 52
        E 12 80 24 00
        E 1400 90 29 58
        E 14 80 26 00
        E 930 90 26 48
        E 12 80 29 00
        E 485 90 29 4f
        E 5 80 26 00
        E 913 90 26 4e
        E 20 80 29 00
        E 1480 90 24 5e
        E 26 80 26 00
        E 890 90 21 4e
        E 46 80 24 00
        E 442 90 24 56
        E 35 80 21 00
        E 914 90 26 55
        E 2 80 24 00
        E 1439 90 29 61
        E 14 80 26 00
        E 919 90 26 49
        E 2 80 29 00
        E 458 90 29 4e
        E 5 80 26 00
        E 995 90 26 51
        E 17 80 29 00
        E 1491 90 24 5d
        E 15 80 26 00
        E 922 90 21 4e
        E 22 80 24 00
        E 465 90 24 52
        E 31 80 21 00
        E 913 90 26 53
        E 21 80 24 00
        E 1419 90 29 5d
        E 22 80 26 00
        E 947 90 26 45
        E 27 80 29 00
        E 504 80 26 00
        E 2 90 29 54
        E 932 90 26 50
        E 26 80 29 00
        E 1370 90 24 60
        E 15 80 26 00
        E 943 90 21 48
        E 58 80 24 00
        E 431 90 24 5c
        E 45 80 21 00
        E 910 90 26 51
        E 4 80 24 00
        E 1409 90 29 60
        E 15 80 26 00
        E 919 90 26 48
        E 11 80 29 00
        E 492 80 26 00
        E 2 90 29 52
        E 944 90 26 4e
        E 29 80 29 00
        E 1491 90 24 5a
        E 2 80 26 00
        E 903 90 21 4b
        E 22 80 24 00
        E 466 90 24 53
        E 29 80 21 00
        E 938 90 26 4e
        E 16 80 24 00
        E 1376 80 26 00
        E 7 90 29 53
        E 925 80 29 00
        E 15 90 26 43
        E 536 90 29 4f
        E 15 80 26 00
        E 962 90 26 4e
        E 24 80 29 00
        E 1434 90 24 5b
        E 30 80 26 00
        E 893 90 21 4a
        E 36 80 24 00
        E 444 90 24 5e
        E 27 80 21 00
        E 944 90 26 53
        E 5 80 24 00
        E 1421 80 26 00
        E 3 90 29 5d
        E 937 80 29 00
        E 11 90 26 43
        E 500 80 26 00
        E 4 90 29 52
        E 933 90 26 50
        E 19 80 29 00
        E 1477 90 24 59
        E 20 80 26 00
        E 915 90 21 4c
        E 2 80 24 00
        E 467 90 24 61
        E 51 80 21 00
        E 898 80 24 00
        E 13 90 26 4f
        E 1448 90 29 4f
        E 3 80 26 00
        E 908 80 29 00
        E 7 90 26 43
        E 528 80 26 00
        E 14 90 29 4e
        E 920 90 26 51
        E 26 80 29 00
        E 1423 90 24 63
        E 10 80 26 00
        E 921 90 21 4c
        E 8 80 24 00
        E 466 90 24 60
        E 45 80 21 00
        E 928 90 26 50
        E 13 80 24 00
        E 1451 90 29 53
        E 15 80 26 00
        E 963 80 29 00
        E 2 90 26 47
        E 498 90 29 4e
        E 4 80 26 00
        E 931 90 26 4e
        E 25 80 29 00
        E 1379 80 26 00
        E 20 90 24 52
        E 944 90 21 4c
        E 16 80 24 00
        E 434 90 24 53
        E 36 80 21 00
        E 945 90 26 4e
        E 9 80 24 00
        E 1467 90 29 4f
        E 12 80 26 00
        E 886 90 26 46
        E 2 80 29 00
        E 548 80 26 00
        E 2 90 29 52
        E 925 90 26 4f
        E 7 80 29 00
        E 1410 90 24 63
        E 19 80 26 00
        E 944 90 21 4e
        E 30 80 24 00
        E 459 90 24 55
        E 28 80 21 00
        E 903 80 24 00
        E 3 90 26 54
        E 1459 90 29 5a
        E 3 80 26 00
        E 990 80 29 00
        E 7 90 26 47
        E 498 80 26 00
        E 2 90 29 52
        E 947 90 26 4f
        E 17 80 29 00
        E 1441 90 24 5e
        E 19 80 26 00
        E 916 90 21 4c
        E 55 80 24 00
        E 386 90 24 59
        E 34 80 21 00
        E 909 90 26 54
        E 17 80 24 00
        E 1441 90 29 53
        E 16 80 26 00
        E 988 90 26 48
        E 20 80 29 00
        E 459 90 29 4f
        E 9 80 26 00
        E 924 90 26 50
        E 24 80 29 00
        E 1353 90 24 53
        E 31 80 26 00
        E 947 90 21 4a
        E 27 80 24 00
        E 415 90 24 59
        E 40 80 21 00
        E 889 80 24 00
        E 5146 b0 7b 00
        CCINTERP 32
        CHASE_CC_TAKEOFFS 1
        GUID {35C3EBF6-2FDC-FC43-A8B2-5829D313FD14}
        IGNTEMPO 0 120 4 4
        SRCCOLOR 64
        VELLANE -1 100 0
      >
    >
  >
  <TRACK {BEEB672F-1889-154A-91A9-D366F22F9E40}
    NAME "Bass 1: Edited"
    PEAKCOL 16576
    BEAT -1
    AUTOMODE 0
    VOLPAN 0.34264637489056 0 -1 -1 1
    MUTESOLO 1 0 0
    IPHASE 0
    PLAYOFFS 0 1
    ISBUS 0 0
    BUSCOMP 0 0 0 0 0
    SHOWINMIX 0 0.6667 0.5 0 0.5 0 -1 0
    FREEMODE 0
    SEL 0
    REC 0 5088 1 0 0 0 0
    VU 2
    TRACKHEIGHT 0 0 0 0 0 0
    INQ 0 0 0 0.5 100 0 0 100
    NCHAN 6
    FX 1
    TRACKID {BEEB672F-1889-154A-91A9-D366F22F9E40}
    PERF 0
    MIDIOUT -1
    MAINSEND 1 0
    <FXCHAIN
      WNDRECT 335 154 1105 598
      SHOW 0
      LASTSEL 0
      DOCKED 0
      BYPASS 0 0 0
      <VST "VST3i: Triangle3MonoSyn (CabbageAudio    ) (6 out)" Triangle3MonoSynth.vst3 0 "" 97607883{ABCDEF019182FAEB4361626230303131} ""
        y2DRBe5e7f4AAAAABgAAAAEAAAAAAAAAAgAAAAAAAAAEAAAAAAAAAAgAAAAAAAAAEAAAAAAAAAAgAAAAAAAAAKwDAAABAAAA//8QAA==
        nAMAAAEAAABWQzIhVwMAADw/eG1sIHZlcnNpb249IjEuMCIgZW5jb2Rpbmc9IlVURi04Ij8+IDxDQUJCQUdFX1BSRVNFVFM+PFBSRVNFVDAgUHJlc2V0TmFtZT0iQ0FC
        QkFHRV9QUkVTRVRTIDAiIGluc3RhbmNlTmFtZT0iIiB0cmFja0luZGV4PSIxMCIgcGx1Z2luSW5kZXg9IjAiIHBsdWdpblV1aWQ9IjU5NDA1MDU4NDA5MjQxYjhiOGI1
        ZjRmNjRiMTRkOTZjIiBmaXJzdF90YWJfYnVnX3dvcmthcm91bmRfdGFiPSIwLjAiIHM4OF90YWI9IjAuMCIgcG9zaXRpb25fdGFiPSIwLjAiIGxvZ190YWI9IjEuMCIg
        Uzg4X2tub2JfMT0iMC4wIiBTODhfa25vYl8yPSIwLjAiIFM4OF9rbm9iXzM9IjAuMCIgUzg4X2tub2JfND0iMC4wIiBTODhfa25vYl81PSIwLjAiIFM4OF9rbm9iXzY9
        IjAuMCIgUzg4X2tub2JfNz0iMC4wIiBTODhfa25vYl84PSIwLjAiIFM4OF9waXRjaGJlbmQ9IjAuMCIgUzg4X21vZHdoZWVsPSIwLjAiIHBvc2l0aW9uRW5hYmxlZD0i
        MC4wIiBwb3NpdGlvbk1heEFtcFdoZW5DbG9zZT0iMC45OTk5OTk5NDAzOTUzNTUyIiBwb3NpdGlvblJlZmVyZW5jZURpc3RhbmNlPSIwLjA5OTk5OTk5NDAzOTUzNTUy
        IiBwb3NpdGlvblJvbGxvZmZGYWN0b3I9IjAuMDA5OTk5OTk5Nzc2NDgyNTgyIiBwb3NpdGlvbk9wY29kZUNvbWJvQm94SW5kZXg9IjQuMCIgcG9zaXRpb25PcGNvZGU9
        InJheV9YWiIgcG9zaXRpb25YU2NhbGU9IjEuMDAwMTgzMTA1NDY4NzUiIHBvc2l0aW9uWVNjYWxlPSItMC4wMDAwNjEwMzUxNTYyNSIgcG9zaXRpb25aU2NhbGU9Ii0x
        MC4wIiBwb3NpdGlvblhPZmZzZXQ9IjAuMDAwMTIyMDcwMzEyNSIgcG9zaXRpb25ZT2Zmc2V0PSIwLjAiIHBvc2l0aW9uWk9mZnNldD0iNTAuMCIvPjwvQ0FCQkFHRV9Q
        UkVTRVRTPgAAAAAAAAAAAEpVQ0VQcml2YXRlRGF0YQABAUJ5cGFzcwABAQMAHQAAAAAAAABKVUNFUHJpdmF0ZURhdGEAAAAAAAAAAA==
        AAAQAAAA
      >
      FLOATPOS 361 81 1000 570
      FXID {D87A9B73-0491-2746-B3E5-B5EF75E2A9F5}
      WAK 0 0
    >
    <ITEM
      POSITION 7.253796
      SNAPOFFS 0
      LENGTH 35.550173
      LOOP 1
      ALLTAKES 0
      FADEIN 1 0 0 1 0 0 0
      FADEOUT 1 0 0 1 0 0 0
      MUTE 0 0
      SEL 0
      IGUID {E6F63342-E0D9-ED44-BADB-E2D603E2D8E7}
      IID 73
      NAME "09-Triangle3MonoSynth-Recorded MIDI"
      VOLPAN 1 0 1 -1
      SOFFS 0 0
      PLAYRATE 1 1 0 -1 0 0.0025
      CHANMODE 0
      GUID {AB485A94-8ABF-CD49-9CA4-B52CD315ED6D}
      RECPASS 1
      <SOURCE MIDI
        HASDATA 1 960 QN
        CCINTERP 32
        POOLEDEVTS {161E6D8A-378C-1D4A-B857-5D54BBF07FD8}
        E 0 90 26 51
        E 1417 90 29 59
        E 13 80 26 00
        E 979 90 26 44
        E 11 80 29 00
        E 463 90 29 4e
        E 17 80 26 00
        E 964 90 26 4e
        E 35 80 29 00
        E 1402 90 24 56
        E 14 80 26 00
        E 941 80 24 00
        E 2 90 21 4a
        E 479 90 24 5b
        E 18 80 21 00
        E 906 80 24 00
        E 16 90 26 53
        E 3 80 26 00
        E 0 b0 7b 00
        CCINTERP 32
        CHASE_CC_TAKEOFFS 1
        GUID {6D0AF598-12BA-384D-BBE3-6AFDCB329C69}
        IGNTEMPO 0 120 4 4
        SRCCOLOR 81
        VELLANE -1 100 0
      >
    >
    <ITEM
      POSITION 50.309249
      SNAPOFFS 0
      LENGTH 18.917046
      LOOP 1
      ALLTAKES 0
      FADEIN 1 0 0 1 0 0 0
      FADEOUT 1 0 0 1 0 0 0
      MUTE 0 0
      SEL 0
      IGUID {180E6B65-B672-E547-A6F0-4FC2839BA78D}
      IID 75
      NAME "09-Triangle3MonoSynth-Recorded MIDI"
      VOLPAN 1 0 1 -1
      SOFFS 0 0
      PLAYRATE 1 1 0 -1 0 0.0025
      CHANMODE 0
      GUID {F0F48093-5434-864B-AD14-ED5AE15896ED}
      RECPASS 1
      <SOURCE MIDI
        HASDATA 1 960 QN
        CCINTERP 32
        POOLEDEVTS {C2F67DDA-D109-EC46-AAFE-24E2DBE5C31C}
        E 0 90 26 51
        E 1417 90 29 59
        E 13 80 26 00
        E 979 90 26 44
        E 11 80 29 00
        E 463 90 29 4e
        E 17 80 26 00
        E 964 90 26 4e
        E 35 80 29 00
        E 1402 90 24 56
        E 14 80 26 00
        E 941 80 24 00
        E 2 90 21 4a
        E 479 90 24 5b
        E 18 80 21 00
        E 906 80 24 00
        E 16 90 26 53
        E 3 80 26 00
        E 0 b0 7b 00
        CCINTERP 32
        CHASE_CC_TAKEOFFS 1
        GUID {40CC1988-6552-8846-AC6A-3BF7F95ED975}
        IGNTEMPO 0 120 4 4
        SRCCOLOR 83
        VELLANE -1 100 0
      >
    >
    <ITEM
      POSITION 72.993088
      SNAPOFFS 0
      LENGTH 11.272901
      LOOP 1
      ALLTAKES 0
      FADEIN 1 0 0 1 0 0 0
      FADEOUT 1 0 0 1 0 0 0
      MUTE 0 0
      SEL 0
      IGUID {4BAB4A4B-36E8-824F-B62D-6E260585963B}
      IID 113
      NAME "09-Triangle3MonoSynth-Recorded MIDI"
      VOLPAN 1 0 1 -1
      SOFFS 0 0
      PLAYRATE 1 1 0 -1 0 0.0025
      CHANMODE 0
      GUID {5E2C83C2-BE87-7142-AA3C-E5F615BA1DAC}
      RECPASS 1
      <SOURCE MIDI
        HASDATA 1 960 QN
        CCINTERP 32
        POOLEDEVTS {963A9555-E4C8-F346-9B5D-7781E299E9D1}
        E 0 90 26 51
        E 1417 90 29 59
        E 13 80 26 00
        E 979 90 26 44
        E 11 80 29 00
        E 463 90 29 4e
        E 17 80 26 00
        E 964 90 26 4e
        E 35 80 29 00
        E 1402 90 24 56
        E 14 80 26 00
        E 941 80 24 00
        E 2 90 21 4a
        E 479 90 24 5b
        E 18 80 21 00
        E 906 80 24 00
        E 16 90 26 53
        E 3 80 26 00
        E 0 b0 7b 00
        CCINTERP 32
        CHASE_CC_TAKEOFFS 1
        GUID {ADE27A8C-D5A9-B64B-90BF-7085F0AEBA45}
        IGNTEMPO 0 120 4 4
        SRCCOLOR 123
        VELLANE -1 100 0
      >
    >
    <ITEM
      POSITION 88.0995161125
      SNAPOFFS 0
      LENGTH 11.30100156249999
      LOOP 1
      ALLTAKES 0
      FADEIN 1 0 0 1 0 0 0
      FADEOUT 1 0 0 1 0 0 0
      MUTE 0 0
      SEL 0
      IGUID {18CFBE84-901C-604C-B6EE-31F494DCCBC1}
      IID 111
      NAME "09-Triangle3MonoSynth-Recorded MIDI"
      VOLPAN 1 0 1 -1
      SOFFS 0 0
      PLAYRATE 1 1 0 -1 0 0.0025
      CHANMODE 0
      GUID {C2972A4E-F43E-B747-934B-B7580FC000F4}
      RECPASS 1
      <SOURCE MIDI
        HASDATA 1 960 QN
        CCINTERP 32
        POOLEDEVTS {DD9B83D0-DD31-9642-9463-1C8ECFD5E1B0}
        E 0 90 26 51
        E 1417 90 29 59
        E 13 80 26 00
        E 979 90 26 44
        E 11 80 29 00
        E 463 90 29 4e
        E 17 80 26 00
        E 964 90 26 4e
        E 35 80 29 00
        E 1402 90 24 56
        E 14 80 26 00
        E 941 80 24 00
        E 2 90 21 4a
        E 479 90 24 5b
        E 18 80 21 00
        E 906 80 24 00
        E 16 90 26 53
        E 3 80 26 00
        E 0 b0 7b 00
        CCINTERP 32
        CHASE_CC_TAKEOFFS 1
        GUID {C18B8523-B5B7-1647-9BE3-8BFDCA882242}
        IGNTEMPO 0 120 4 4
        SRCCOLOR 121
        VELLANE -1 100 0
      >
    >
    <ITEM
      POSITION 117.018077675
      SNAPOFFS 0
      LENGTH 1.421016
      LOOP 1
      ALLTAKES 0
      FADEIN 1 0 0 1 0 0 0
      FADEOUT 1 0 0 1 0 0 0
      MUTE 0 0
      SEL 0
      IGUID {EDB0CAA8-86B8-7947-8A61-C03F914F35FB}
      IID 108
      NAME "10-Triangle3MonoSynth-Recorded MIDI-glued"
      VOLPAN 1 0 1 -1
      SOFFS 2.368574 4.99999999999974
      PLAYRATE 1 1 0 -1 0 0.0025
      CHANMODE 0
      GUID {4D024634-F43F-E640-AD2A-29F2F2063C84}
      <SOURCE MIDI
        HASDATA 1 960 QN
        CCINTERP 32
        POOLEDEVTS {FF38C30D-F9C6-AD4D-BFFB-68ECA5EA7B2B}
        E 0 90 26 53
        E 4792 90 2c 4c
        E 8 80 26 00
        E 566 80 2c 00
        E 2 90 2b 59
        E 909 90 29 61
        E 2 80 2b 00
        E 1401 80 29 00
        E 0 b0 7b 00
        CCINTERP 32
        CHASE_CC_TAKEOFFS 1
        GUID {F6F53191-3ABF-174E-9483-6C9F1EF57EEC}
        IGNTEMPO 0 120 4 4
        SRCCOLOR 118
        VELLANE -1 100 0
        CFGEDITVIEW -3840 0.101302 83 12 0 -1 0 0 0 0.5
        KEYSNAP 0
        TRACKSEL 0
        EVTFILTER 0 -1 -1 -1 -1 0 0 0 0 -1 -1 -1 -1 0 -1 0 -1 -1
        CFGEDIT 1 1 0 1 0 0 1 1 1 1 1 0.125 872 190 1920 821 0 0 0 0 0 0 0 0 0 0.5 0 0 1 64
      >
    >
    <ITEM
      POSITION 118.439093675
      SNAPOFFS 0
      LENGTH 11.357878
      LOOP 1
      ALLTAKES 0
      FADEIN 1 0 0 1 0 0 0
      FADEOUT 1 0 0 1 0 0 0
      MUTE 0 0
      SEL 0
      IGUID {3415B6C4-BF3B-8D42-9116-DCC1524B65B1}
      IID 75
      NAME "09-Triangle3MonoSynth-Recorded MIDI"
      VOLPAN 1 0 1 -1
      SOFFS 0 0
      PLAYRATE 1 1 0 -1 0 0.0025
      CHANMODE 0
      GUID {A44F1E76-A2A4-8745-90C8-6D1C6293A955}
      RECPASS 1
      <SOURCE MIDI
        HASDATA 1 960 QN
        CCINTERP 32
        POOLEDEVTS {00808B79-A2AB-C44D-B58E-96D6CEDF8FF9}
        E 0 90 26 51
        E 1417 90 29 59
        E 13 80 26 00
        E 979 90 26 44
        E 11 80 29 00
        E 463 90 29 4e
        E 17 80 26 00
        E 964 90 26 4e
        E 35 80 29 00
        E 1402 90 24 56
        E 14 80 26 00
        E 941 80 24 00
        E 2 90 21 4a
        E 479 90 24 5b
        E 18 80 21 00
        E 906 80 24 00
        E 16 90 26 53
        E 3 80 26 00
        E 0 b0 7b 00
        CCINTERP 32
        CHASE_CC_TAKEOFFS 1
        GUID {40CC1988-6552-8846-AC6A-3BF7F95ED975}
        IGNTEMPO 0 120 4 4
        SRCCOLOR 83
        VELLANE -1 100 0
      >
    >
    <ITEM
      POSITION 133.544043675
      SNAPOFFS 0
      LENGTH 11.25966458333332
      LOOP 1
      ALLTAKES 0
      FADEIN 1 0 0 1 0 0 0
      FADEOUT 1 0 0 1 0 0 0
      MUTE 0 0
      SEL 0
      IGUID {11A399D7-A46B-7347-A2A4-70DB84888F8E}
      IID 75
      NAME "09-Triangle3MonoSynth-Recorded MIDI"
      VOLPAN 1 0 1 -1
      SOFFS 0 0
      PLAYRATE 1 1 0 -1 0 0.0025
      CHANMODE 0
      GUID {05221223-F857-5C41-B16C-6B881EDE4C56}
      RECPASS 1
      <SOURCE MIDI
        HASDATA 1 960 QN
        CCINTERP 32
        POOLEDEVTS {B8F14C53-3947-E048-A69B-73E1D85B32B4}
        E 0 90 26 51
        E 1417 90 29 59
        E 13 80 26 00
        E 979 90 26 44
        E 11 80 29 00
        E 463 90 29 4e
        E 17 80 26 00
        E 964 90 26 4e
        E 35 80 29 00
        E 1402 90 24 56
        E 14 80 26 00
        E 941 80 24 00
        E 2 90 21 4a
        E 479 90 24 5b
        E 18 80 21 00
        E 906 80 24 00
        E 16 90 26 53
        E 3 80 26 00
        E 0 b0 7b 00
        CCINTERP 32
        CHASE_CC_TAKEOFFS 1
        GUID {40CC1988-6552-8846-AC6A-3BF7F95ED975}
        IGNTEMPO 0 120 4 4
        SRCCOLOR 83
        VELLANE -1 100 0
      >
    >
    <ITEM
      POSITION 148.58564025833331
      SNAPOFFS 0
      LENGTH 3.751091
      LOOP 1
      ALLTAKES 0
      FADEIN 1 0 0 1 0 0 0
      FADEOUT 1 0 0 1 0 0 0
      MUTE 0 0
      SEL 0
      IGUID {8B0AC8B3-4E73-334A-BC59-08E98045DF5F}
      IID 75
      NAME "09-Triangle3MonoSynth-Recorded MIDI"
      VOLPAN 1 0 1 -1
      SOFFS 0 0
      PLAYRATE 1 1 0 -1 0 0.0025
      CHANMODE 0
      GUID {AFFE0833-E51B-6547-9601-25EEEDF7F419}
      RECPASS 1
      <SOURCE MIDI
        HASDATA 1 960 QN
        CCINTERP 32
        POOLEDEVTS {7A1BEAD1-D2BF-7B42-B445-05170D9BE094}
        E 0 90 26 51
        E 1417 90 29 59
        E 13 80 26 00
        E 979 90 26 44
        E 11 80 29 00
        E 463 90 29 4e
        E 17 80 26 00
        E 964 90 26 4e
        E 35 80 29 00
        E 1402 90 24 56
        E 14 80 26 00
        E 941 80 24 00
        E 2 90 21 4a
        E 479 90 24 5b
        E 18 80 21 00
        E 906 80 24 00
        E 16 90 26 53
        E 3 80 26 00
        E 0 b0 7b 00
        CCINTERP 32
        CHASE_CC_TAKEOFFS 1
        GUID {40CC1988-6552-8846-AC6A-3BF7F95ED975}
        IGNTEMPO 0 120 4 4
        SRCCOLOR 83
        VELLANE -1 100 0
      >
    >
    <ITEM
      POSITION 156.11995425833328
      SNAPOFFS 0
      LENGTH 3.765321
      LOOP 1
      ALLTAKES 0
      FADEIN 1 0 0 1 0 0 0
      FADEOUT 1 0 0 1 0 0 0
      MUTE 0 0
      SEL 0
      IGUID {F5D943AC-A955-3044-AFF3-260870B783A6}
      IID 75
      NAME "09-Triangle3MonoSynth-Recorded MIDI"
      VOLPAN 1 0 1 -1
      SOFFS 0 0
      PLAYRATE 1 1 0 -1 0 0.0025
      CHANMODE 0
      GUID {F931CB6C-5663-1846-852B-AB25E1682E8E}
      RECPASS 1
      <SOURCE MIDI
        HASDATA 1 960 QN
        CCINTERP 32
        POOLEDEVTS {B54CDFD7-1C50-6942-B07D-556FF6A8C74E}
        E 0 90 26 51
        E 1417 90 29 59
        E 13 80 26 00
        E 979 90 26 44
        E 11 80 29 00
        E 463 90 29 4e
        E 17 80 26 00
        E 964 90 26 4e
        E 35 80 29 00
        E 1402 90 24 56
        E 14 80 26 00
        E 941 80 24 00
        E 2 90 21 4a
        E 479 90 24 5b
        E 18 80 21 00
        E 906 80 24 00
        E 16 90 26 53
        E 3 80 26 00
        E 0 b0 7b 00
        CCINTERP 32
        CHASE_CC_TAKEOFFS 1
        GUID {40CC1988-6552-8846-AC6A-3BF7F95ED975}
        IGNTEMPO 0 120 4 4
        SRCCOLOR 83
        VELLANE -1 100 0
      >
    >
    <ITEM
      POSITION 163.66171525833323
      SNAPOFFS 0
      LENGTH 3.774153
      LOOP 1
      ALLTAKES 0
      FADEIN 1 0 0 1 0 0 0
      FADEOUT 1 0 0 1 0 0 0
      MUTE 0 0
      SEL 0
      IGUID {2C9CCBF8-BB7A-E04F-B386-00F62557DEFB}
      IID 75
      NAME "09-Triangle3MonoSynth-Recorded MIDI"
      VOLPAN 1 0 1 -1
      SOFFS 0 0
      PLAYRATE 1 1 0 -1 0 0.0025
      CHANMODE 0
      GUID {F2539C52-E963-B146-A805-557D7C9F0EBC}
      RECPASS 1
      <SOURCE MIDI
        HASDATA 1 960 QN
        CCINTERP 32
        POOLEDEVTS {D59AD5D4-59A5-1441-AEF2-4A6DB7FA4896}
        E 0 90 26 51
        E 1417 90 29 59
        E 13 80 26 00
        E 979 90 26 44
        E 11 80 29 00
        E 463 90 29 4e
        E 17 80 26 00
        E 964 90 26 4e
        E 35 80 29 00
        E 1402 90 24 56
        E 14 80 26 00
        E 941 80 24 00
        E 2 90 21 4a
        E 479 90 24 5b
        E 18 80 21 00
        E 906 80 24 00
        E 16 90 26 53
        E 3 80 26 00
        E 0 b0 7b 00
        CCINTERP 32
        CHASE_CC_TAKEOFFS 1
        GUID {40CC1988-6552-8846-AC6A-3BF7F95ED975}
        IGNTEMPO 0 120 4 4
        SRCCOLOR 83
        VELLANE -1 100 0
      >
    >
    <ITEM
      POSITION 171.16522925833317
      SNAPOFFS 0
      LENGTH 3.6760635
      LOOP 1
      ALLTAKES 0
      FADEIN 1 0 0 1 0 0 0
      FADEOUT 1 0 0 1 0 0 0
      MUTE 0 0
      SEL 0
      IGUID {CBFEE141-91C5-D44C-817E-6ED863039EC0}
      IID 75
      NAME "09-Triangle3MonoSynth-Recorded MIDI"
      VOLPAN 1 0 1 -1
      SOFFS 0 0
      PLAYRATE 1 1 0 -1 0 0.0025
      CHANMODE 0
      GUID {F7750B24-70E9-9543-80EC-E986BA80DF7D}
      RECPASS 1
      <SOURCE MIDI
        HASDATA 1 960 QN
        CCINTERP 32
        POOLEDEVTS {4FAC0DB3-822C-EB48-8DA8-E9FB5A5AFC0C}
        E 0 90 26 51
        E 1417 90 29 59
        E 13 80 26 00
        E 979 90 26 44
        E 11 80 29 00
        E 463 90 29 4e
        E 17 80 26 00
        E 964 90 26 4e
        E 35 80 29 00
        E 1402 90 24 56
        E 14 80 26 00
        E 941 80 24 00
        E 2 90 21 4a
        E 479 90 24 5b
        E 18 80 21 00
        E 906 80 24 00
        E 16 90 26 53
        E 3 80 26 00
        E 0 b0 7b 00
        CCINTERP 32
        CHASE_CC_TAKEOFFS 1
        GUID {40CC1988-6552-8846-AC6A-3BF7F95ED975}
        IGNTEMPO 0 120 4 4
        SRCCOLOR 83
        VELLANE -1 100 0
      >
    >
  >
  <TRACK {D5618667-16FD-8D4B-9C14-2C5E81676231}
    NAME "Bass 2: Raw"
    PEAKCOL 16576
    BEAT -1
    AUTOMODE 0
    VOLPAN 0.34264637489056 0 -1 -1 1
    MUTESOLO 1 0 0
    IPHASE 0
    PLAYOFFS 0 1
    ISBUS 0 0
    BUSCOMP 0 0 0 0 0
    SHOWINMIX 0 0.6667 0.5 0 0.5 0 -1 0
    FREEMODE 0
    SEL 0
    REC 0 5088 1 0 0 0 0
    VU 2
    TRACKHEIGHT 0 0 0 0 0 0
    INQ 0 0 0 0.5 100 0 0 100
    NCHAN 6
    FX 1
    TRACKID {D5618667-16FD-8D4B-9C14-2C5E81676231}
    PERF 0
    MIDIOUT -1
    MAINSEND 1 0
    <FXCHAIN
      WNDRECT 335 154 1105 598
      SHOW 0
      LASTSEL 0
      DOCKED 0
      BYPASS 0 0 0
      <VST "VST3i: Triangle3MonoSyn (CabbageAudio    ) (6 out)" Triangle3MonoSynth.vst3 0 "" 97607883{ABCDEF019182FAEB4361626230303131} ""
        y2DRBe5e7f4AAAAABgAAAAEAAAAAAAAAAgAAAAAAAAAEAAAAAAAAAAgAAAAAAAAAEAAAAAAAAAAgAAAAAAAAAKsDAAABAAAA//8QAA==
        mwMAAAEAAABWQzIhVgMAADw/eG1sIHZlcnNpb249IjEuMCIgZW5jb2Rpbmc9IlVURi04Ij8+IDxDQUJCQUdFX1BSRVNFVFM+PFBSRVNFVDAgUHJlc2V0TmFtZT0iQ0FC
        QkFHRV9QUkVTRVRTIDAiIGluc3RhbmNlTmFtZT0iIiB0cmFja0luZGV4PSI5IiBwbHVnaW5JbmRleD0iMCIgcGx1Z2luVXVpZD0iYTMyZGFiZjMzMDdhNDJlZTlkZjU0
        YjAzOGI5ZGMzN2MiIGZpcnN0X3RhYl9idWdfd29ya2Fyb3VuZF90YWI9IjAuMCIgczg4X3RhYj0iMC4wIiBwb3NpdGlvbl90YWI9IjAuMCIgbG9nX3RhYj0iMS4wIiBT
        ODhfa25vYl8xPSIwLjAiIFM4OF9rbm9iXzI9IjAuMCIgUzg4X2tub2JfMz0iMC4wIiBTODhfa25vYl80PSIwLjAiIFM4OF9rbm9iXzU9IjAuMCIgUzg4X2tub2JfNj0i
        MC4wIiBTODhfa25vYl83PSIwLjAiIFM4OF9rbm9iXzg9IjAuMCIgUzg4X3BpdGNoYmVuZD0iMC4wIiBTODhfbW9kd2hlZWw9IjAuMCIgcG9zaXRpb25FbmFibGVkPSIw
        LjAiIHBvc2l0aW9uTWF4QW1wV2hlbkNsb3NlPSIwLjk5OTk5OTk0MDM5NTM1NTIiIHBvc2l0aW9uUmVmZXJlbmNlRGlzdGFuY2U9IjAuMDk5OTk5OTk0MDM5NTM1NTIi
        IHBvc2l0aW9uUm9sbG9mZkZhY3Rvcj0iMC4wMDk5OTk5OTk3NzY0ODI1ODIiIHBvc2l0aW9uT3Bjb2RlQ29tYm9Cb3hJbmRleD0iNC4wIiBwb3NpdGlvbk9wY29kZT0i
        cmF5X1haIiBwb3NpdGlvblhTY2FsZT0iMS4wMDAxODMxMDU0Njg3NSIgcG9zaXRpb25ZU2NhbGU9Ii0wLjAwMDA2MTAzNTE1NjI1IiBwb3NpdGlvblpTY2FsZT0iLTEw
        LjAiIHBvc2l0aW9uWE9mZnNldD0iMC4wMDAxMjIwNzAzMTI1IiBwb3NpdGlvbllPZmZzZXQ9IjAuMCIgcG9zaXRpb25aT2Zmc2V0PSI1MC4wIi8+PC9DQUJCQUdFX1BS
        RVNFVFM+AAAAAAAAAAAASlVDRVByaXZhdGVEYXRhAAEBQnlwYXNzAAEBAwAdAAAAAAAAAEpVQ0VQcml2YXRlRGF0YQAAAAAAAAAA
        AAAQAAAA
      >
      FLOATPOS 361 81 1000 570
      FXID {4B5B959F-C3CD-6042-9AEC-85DD8C6101F0}
      WAK 0 0
    >
    <ITEM
      POSITION 0
      SNAPOFFS 0
      LENGTH 182.64678240833317
      LOOP 1
      ALLTAKES 0
      FADEIN 1 0 0 1 0 0 0
      FADEOUT 1 0 0 1 0 0 0
      MUTE 0 0
      SEL 0
      IGUID {CBDB3969-9859-AA4B-A16A-276700AE60A4}
      IID 64
      NAME "10-Triangle3MonoSynth-Recorded MIDI"
      VOLPAN 1 0 1 -1
      SOFFS 0 0
      PLAYRATE 1 1 0 -1 0 0.0025
      CHANMODE 0
      TAKECOLOR 18310833 B
      GUID {241CD26A-CA64-2F45-9DEA-29C847597851}
      RECPASS 2
      <SOURCE MIDI
        HASDATA 1 960 QN
        CCINTERP 32
        POOLEDEVTS {B8C8A317-975C-5940-82F4-62D4A0C8BCB7}
        E 11497 90 26 4b
        E 1407 90 29 4d
        E 45 80 26 00
        E 858 80 29 00
        E 2 90 2c 43
        E 591 80 2c 00
        E 3 90 2b 52
        E 878 90 29 4b
        E 68 80 2b 00
        E 1391 90 26 4c
        E 45 80 29 00
        E 882 90 21 49
        E 22 80 26 00
        E 507 90 24 51
        E 40 80 21 00
        E 893 90 26 4e
        E 3 80 24 00
        E 1513 90 29 4d
        E 51 80 26 00
        E 851 80 29 00
        E 11 90 2c 48
        E 528 90 2b 62
        E 2 80 2c 00
        E 911 90 29 4e
        E 10 80 2b 00
        E 1363 90 26 4b
        E 46 80 29 00
        E 845 90 21 49
        E 48 80 26 00
        E 471 90 24 4b
        E 3 80 21 00
        E 941 80 24 00
        E 5 90 26 4e
        E 1475 90 29 54
        E 31 80 26 00
        E 964 90 2c 4e
        E 41 80 29 00
        E 483 80 2c 00
        E 6 90 2b 4f
        E 926 90 29 4e
        E 59 80 2b 00
        E 1378 90 26 4d
        E 44 80 29 00
        E 848 90 21 49
        E 46 80 26 00
        E 507 90 24 4d
        E 33 80 21 00
        E 930 90 26 4e
        E 5 80 24 00
        E 1443 90 29 4f
        E 33 80 26 00
        E 955 90 2c 47
        E 16 80 29 00
        E 542 80 2c 00
        E 6 90 2b 58
        E 936 90 29 4e
        E 41 80 2b 00
        E 1306 90 26 4d
        E 15 80 29 00
        E 867 90 21 4b
        E 40 80 26 00
        E 503 90 24 4a
        E 15 80 21 00
        E 905 80 24 00
        E 25 90 26 49
        E 1464 90 29 56
        E 15 80 26 00
        E 863 90 2c 4a
        E 34 80 29 00
        E 533 80 2c 00
        E 2 90 2b 55
        E 950 90 29 4d
        E 15 80 2b 00
        E 1432 90 26 4d
        E 26 80 29 00
        E 861 90 21 48
        E 29 80 26 00
        E 494 90 24 4d
        E 17 80 21 00
        E 983 90 26 4b
        E 23 80 24 00
        E 1401 90 29 55
        E 49 80 26 00
        E 900 90 2c 42
        E 39 80 29 00
        E 545 90 2b 53
        E 4 80 2c 00
        E 916 90 29 4c
        E 27 80 2b 00
        E 1320 90 26 4b
        E 44 80 29 00
        E 857 90 21 45
        E 62 80 26 00
        E 474 80 21 00
        E 3 90 24 4c
        E 973 90 26 4d
        E 24 80 24 00
        E 1490 90 29 4f
        E 60 80 26 00
        E 918 90 2c 42
        E 60 80 29 00
        E 532 80 2c 00
        E 22 90 2b 4b
        E 891 90 29 4a
        E 54 80 2b 00
        E 1326 90 26 4a
        E 46 80 29 00
        E 851 90 21 3f
        E 49 80 26 00
        E 456 90 24 4b
        E 37 80 21 00
        E 877 90 26 4d
        E 5 80 24 00
        E 1457 90 29 58
        E 6 80 26 00
        E 868 90 2c 4b
        E 3 80 29 00
        E 563 80 2c 00
        E 5 90 2b 4b
        E 958 90 29 4e
        E 26 80 2b 00
        E 1445 90 26 4d
        E 20 80 29 00
        E 543 90 24 48
        E 21 80 26 00
        E 379 80 24 00
        E 10 90 1f 4a
        E 742 90 23 3f
        E 6 80 1f 00
        E 699 80 23 00
        E 282 90 26 5c
        E 817 80 26 00
        E 14138 90 26 4d
        E 1322 80 26 00
        E 41 90 29 48
        E 974 80 29 00
        E 6 90 2c 47
        E 559 80 2c 00
        E 2 90 2b 4b
        E 637 80 2b 00
        E 291 90 29 48
        E 1457 90 26 46
        E 19 80 29 00
        E 988 80 26 00
        E 3 90 21 42
        E 549 90 24 4b
        E 33 80 21 00
        E 944 90 26 4a
        E 3 80 24 00
        E 1386 80 26 00
        E 17 90 29 4b
        E 816 80 29 00
        E 12 90 2c 44
        E 600 80 2c 00
        E 26 90 2b 4d
        E 890 90 29 4e
        E 16 80 2b 00
        E 1455 90 26 53
        E 16 80 29 00
        E 888 80 26 00
        E 15 90 21 47
        E 548 90 24 4c
        E 15 80 21 00
        E 907 80 24 00
        E 31 90 26 4a
        E 1376 80 26 00
        E 51 90 29 49
        E 904 90 2c 40
        E 4 80 29 00
        E 535 90 2b 4e
        E 7 80 2c 00
        E 919 90 29 4e
        E 26 80 2b 00
        E 1436 90 26 4e
        E 19 80 29 00
        E 861 90 21 46
        E 11 80 26 00
        E 537 90 24 4c
        E 9 80 21 00
        E 968 80 24 00
        E 2 90 26 4d
        E 1425 80 26 00
        E 13 90 29 49
        E 977 90 2b 4b
        E 87 80 2b 00
        E 275 90 2c 05
        E 124 80 29 00
        E 250 80 2c 00
        E 36 90 2b 4c
        E 638 80 2b 00
        E 111 90 29 2c
        E 34 90 2b 48
        E 72 80 2b 00
        E 1251 80 29 00
        E 2 90 26 4e
        E 914 80 26 00
        E 9 90 21 49
        E 471 80 21 00
        E 7 90 24 4b
        E 951 80 24 00
        E 6 90 26 4f
        E 1404 80 26 00
        E 9 90 29 4c
        E 983 90 2b 47
        E 3 80 29 00
        E 557 90 2c 46
        E 16 80 2b 00
        E 644 80 2c 00
        E 139 90 29 4b
        E 1614 90 24 48
        E 63 80 29 00
        E 185 80 24 00
        E 100 90 29 24
        E 180 90 26 4a
        E 55 80 29 00
        E 311 80 26 00
        E 47 90 21 4d
        E 484 90 24 4d
        E 26 80 21 00
        E 816 80 24 00
        E 36 90 26 50
        E 1430 80 26 00
        E 11 90 29 4d
        E 953 90 2c 45
        E 33 80 29 00
        E 531 80 2c 00
        E 10 90 2b 4d
        E 887 90 29 4d
        E 8 80 2b 00
        E 1402 90 26 4b
        E 6 80 29 00
        E 935 80 26 00
        E 8 90 21 46
        E 508 80 21 00
        E 11 90 24 4c
        E 1011 80 24 00
        E 2 90 26 4c
        E 1327 90 29 4d
        E 10 80 26 00
        E 937 90 2c 44
        E 3 80 29 00
        E 556 80 2c 00
        E 18 90 2b 4c
        E 922 90 29 4d
        E 6 80 2b 00
        E 1472 90 26 40
        E 12 80 29 00
        E 883 90 21 3c
        E 33 80 26 00
        E 503 80 21 00
        E 2 90 24 4d
        E 1031 90 26 4d
        E 22 80 24 00
        E 1328 80 26 00
        E 9 90 29 4c
        E 951 90 2d 3e
        E 81 80 2d 00
        E 160 90 2c 45
        E 171 80 29 00
        E 210 80 2c 00
        E 20 90 29 34
        E 159 90 2b 01
        E 36 80 29 00
        E 225 80 2b 00
        E 136 90 29 44
        E 539 90 26 47
        E 43 80 29 00
        E 1941 80 26 00
        E 31 90 24 4a
        E 521 80 24 00
        E 14 90 21 4c
        E 378 80 21 00
        E 26 90 24 4b
        E 778 80 24 00
        E 21 90 26 4e
        E 1273 90 29 4d
        E 12 80 26 00
        E 877 90 2c 4a
        E 10 80 29 00
        E 519 80 2c 00
        E 14 90 2b 4f
        E 903 90 29 4d
        E 7 80 2b 00
        E 1477 80 29 00
        E 2 90 26 4c
        E 891 90 21 49
        E 13 80 26 00
        E 510 80 21 00
        E 7 90 24 4e
        E 990 80 24 00
        E 8 90 26 4e
        E 1347 90 29 4e
        E 23 80 26 00
        E 940 90 2c 46
        E 11 80 29 00
        E 562 80 2c 00
        E 4 90 2b 4d
        E 934 80 2b 00
        E 2 90 29 53
        E 1391 80 29 00
        E 14 90 26 51
        E 915 90 21 49
        E 27 80 26 00
        E 496 80 21 00
        E 4 90 24 50
        E 1011 80 24 00
        E 13 90 26 50
        E 1419 90 29 5b
        E 36 80 26 00
        E 937 90 2b 4a
        E 4 80 29 00
        E 552 90 2c 48
        E 2 80 2b 00
        E 719 80 2c 00
        E 82 90 29 58
        E 1446 90 26 4e
        E 12 80 29 00
        E 974 80 26 00
        E 5 90 24 3c
        E 462 80 24 00
        E 5 90 21 3c
        E 50 90 23 31
        E 102 80 23 00
        E 324 90 24 46
        E 39 80 21 00
        E 503 80 24 00
        E 23 90 26 5b
        E 1370 90 29 5d
        E 23 80 26 00
        E 903 90 2c 4a
        E 5 80 29 00
        E 555 80 2c 00
        E 29 90 2b 4e
        E 874 80 2b 00
        E 8 90 29 5d
        E 1470 90 26 4d
        E 2 80 29 00
        E 890 90 21 4b
        E 33 80 26 00
        E 505 80 21 00
        E 12 90 24 4b
        E 911 80 24 00
        E 21 90 26 4f
        E 1429 90 29 4d
        E 8 80 26 00
        E 921 90 2c 49
        E 16 80 29 00
        E 583 80 2c 00
        E 18 90 2b 52
        E 867 90 29 58
        E 9 80 2b 00
        E 1418 80 29 00
        E 4 90 26 59
        E 973 90 24 4f
        E 8 80 26 00
        E 599 80 24 00
        E 2 90 21 4c
        E 945 90 26 4d
        E 3 80 21 00
        E 1298 90 29 5b
        E 6 80 26 00
        E 888 90 2c 4b
        E 3 80 29 00
        E 550 80 2c 00
        E 12 90 2b 4f
        E 930 80 2b 00
        E 6 90 29 55
        E 1493 90 26 50
        E 3 80 29 00
        E 924 90 21 4b
        E 21 80 26 00
        E 514 80 21 00
        E 9 90 24 4e
        E 912 90 26 55
        E 3 80 24 00
        E 1415 90 29 62
        E 32 80 26 00
        E 933 90 2c 4a
        E 1 80 29 00
        E 535 80 2c 00
        E 18 90 2b 4c
        E 942 90 29 58
        E 6 80 2b 00
        E 1383 90 26 4f
        E 16 80 29 00
        E 1027 90 21 49
        E 3 80 26 00
        E 526 90 24 52
        E 14 80 21 00
        E 945 80 24 00
        E 5 90 26 51
        E 1286 90 29 5d
        E 44 80 26 00
        E 956 90 2c 4a
        E 7 80 29 00
        E 562 80 2c 00
        E 5 90 2b 4e
        E 918 90 29 4e
        E 2 80 2b 00
        E 1406 90 26 4a
        E 4 80 29 00
        E 1039 90 21 37
        E 24 80 26 00
        E 506 90 24 51
        E 115 80 21 00
        E 828 90 26 4c
        E 14 80 24 00
        E 1364 80 26 00
        E 16 90 29 5c
        E 909 80 29 00
        E 4 90 2c 46
        E 591 80 2c 00
        E 10 90 2b 4c
        E 856 90 29 58
        E 22 80 2b 00
        E 1365 90 26 4e
        E 2 80 29 00
        E 987 90 21 4a
        E 16 80 26 00
        E 472 80 21 00
        E 11 90 24 46
        E 936 80 24 00
        E 1 90 26 4e
        E 1383 90 29 4e
        E 42 80 26 00
        E 938 90 2c 47
        E 22 80 29 00
        E 418 80 2c 00
        E 49 90 2b 46
        E 911 80 2b 00
        E 2 90 29 53
        E 1392 80 29 00
        E 2 90 26 51
        E 993 90 21 4b
        E 26 80 26 00
        E 508 80 21 00
        E 3 90 24 4d
        E 909 80 24 00
        E 28 90 26 4c
        E 1427 90 29 5a
        E 20 80 26 00
        E 965 90 2c 4a
        E 17 80 29 00
        E 524 80 2c 00
        E 8 90 2b 52
        E 862 80 2b 00
        E 10 90 29 5a
        E 1455 80 29 00
        E 12 90 26 51
        E 929 90 21 4c
        E 23 80 26 00
        E 540 90 24 51
        E 10 80 21 00
        E 883 80 24 00
        E 22 90 26 4f
        E 1447 90 29 63
        E 28 80 26 00
        E 875 90 2c 4b
        E 2 80 29 00
        E 591 80 2c 00
        E 21 90 2b 5c
        E 909 90 29 5b
        E 6 80 2b 00
        E 1433 80 29 00
        E 4 90 26 5e
        E 884 90 21 4a
        E 52 80 26 00
        E 480 90 24 52
        E 3 80 21 00
        E 951 80 24 00
        E 4 90 26 59
        E 1387 90 29 64
        E 33 80 26 00
        E 889 90 2c 4b
        E 3 80 29 00
        E 582 80 2c 00
        E 16 90 2b 50
        E 931 90 29 50
        E 16 80 2b 00
        E 1490 80 29 00
        E 3 90 26 4d
        E 946 90 21 4c
        E 25 80 26 00
        E 509 90 24 53
        E 33 80 21 00
        E 824 80 24 00
        E 12 90 26 54
        E 1411 90 29 5e
        E 42 80 26 00
        E 905 90 2c 4b
        E 6 80 29 00
        E 559 80 2c 00
        E 6 90 2b 53
        E 894 90 29 5b
        E 2 80 2b 00
        E 1485 90 26 5d
        E 2 80 29 00
        E 848 90 21 4a
        E 41 80 26 00
        E 467 90 24 52
        E 15 80 21 00
        E 949 80 24 00
        E 9 90 26 55
        E 1389 90 29 56
        E 36 80 26 00
        E 884 90 2c 4a
        E 16 80 29 00
        E 548 90 2b 56
        E 4 80 2c 00
        E 911 90 29 4f
        E 13 80 2b 00
        E 1457 90 26 47
        E 2 80 29 00
        E 944 90 21 4a
        E 36 80 26 00
        E 505 90 24 52
        E 23 80 21 00
        E 917 80 24 00
        E 8 90 26 4c
        E 1423 90 29 5e
        E 14 80 26 00
        E 880 90 2c 4a
        E 7 80 29 00
        E 630 90 2b 58
        E 4 80 2c 00
        E 861 90 29 53
        E 25 80 2b 00
        E 1400 90 26 4c
        E 12 80 29 00
        E 957 90 21 4a
        E 41 80 26 00
        E 471 80 21 00
        E 7 90 24 51
        E 928 80 24 00
        E 19 90 26 50
        E 1407 90 29 5e
        E 13 80 26 00
        E 910 90 2c 4b
        E 17 80 29 00
        E 508 80 2c 00
        E 33 90 2b 59
        E 939 90 29 55
        E 10 80 2b 00
        E 1443 90 26 4f
        E 4 80 29 00
        E 1030 80 26 00
        E 278 90 21 39
        E 297 80 21 00
        E 34 90 24 47
        E 734 80 24 00
        E 22 90 26 55
        E 1424 90 29 5a
        E 12 80 26 00
        E 888 90 2c 4a
        E 27 80 29 00
        E 518 80 2c 00
        E 22 90 2b 56
        E 895 90 29 5e
        E 3 80 2b 00
        E 1483 80 29 00
        E 7 90 26 61
        E 863 90 21 4d
        E 53 80 26 00
        E 471 80 21 00
        E 36 90 24 4f
        E 884 80 24 00
        E 7 90 26 54
        E 1492 90 29 61
        E 28 80 26 00
        E 898 90 2c 4d
        E 7 80 29 00
        E 533 80 2c 00
        E 26 90 2b 5e
        E 923 90 29 5e
        E 24 80 2b 00
        E 1433 80 29 00
        E 8 90 26 60
        E 900 90 21 50
        E 39 80 26 00
        E 483 90 24 5c
        E 8 80 21 00
        E 935 80 24 00
        E 7 90 26 53
        E 1466 90 29 67
        E 35 80 26 00
        E 897 90 2c 4c
        E 21 80 29 00
        E 553 80 2c 00
        E 2 90 2b 59
        E 909 90 29 61
        E 2 80 2b 00
        E 1456 80 29 00
        E 6 90 26 50
        E 856 90 21 4f
        E 47 80 26 00
        E 532 90 24 59
        E 2 80 21 00
        E 926 80 24 00
        E 9 90 26 4e
        E 1419 90 29 62
        E 27 80 26 00
        E 901 90 2c 4b
        E 26 80 29 00
        E 532 80 2c 00
        E 16 90 2b 5b
        E 881 90 29 62
        E 20 80 2b 00
        E 1421 90 26 55
        E 5 80 29 00
        E 960 90 21 4a
        E 33 80 26 00
        E 488 90 24 58
        E 6 80 21 00
        E 955 80 24 00
        E 8 90 26 59
        E 1409 90 29 65
        E 50 80 26 00
        E 797 90 2c 4f
        E 2 80 29 00
        E 562 80 2c 00
        E 21 90 2b 5a
        E 946 90 29 5a
        E 9 80 2b 00
        E 1476 90 26 55
        E 31 80 29 00
        E 912 80 26 00
        E 61 90 23 2d
        E 11 90 21 31
        E 146 80 23 00
        E 308 90 24 58
        E 399 80 21 00
        E 501 90 26 5b
        E 25 80 24 00
        E 1443 80 26 00
        E 4 90 29 61
        E 871 90 2c 4d
        E 33 80 29 00
        E 530 80 2c 00
        E 10 90 2b 56
        E 24 d0 02 00
        E 19 d0 00 00
        E 914 90 29 5b
        E 15 80 2b 00
        E 1429 80 29 00
        E 11 90 26 55
        E 950 90 21 30
        E 10 80 26 00
        E 11 90 23 30
        E 90 80 23 00
        E 376 90 24 53
        E 19 80 21 00
        E 898 80 24 00
        E 9 90 26 4f
        E 1397 90 29 64
        E 40 80 26 00
        E 862 80 29 00
        E 2 90 2c 4b
        E 535 80 2c 00
        E 31 90 2b 58
        E 952 90 29 5a
        E 13 80 2b 00
        E 1452 80 29 00
        E 12 90 26 60
        E 890 90 21 4c
        E 41 80 26 00
        E 560 90 24 51
        E 26 80 21 00
        E 885 80 24 00
        E 5 90 26 5a
        E 1387 90 29 62
        E 33 80 26 00
        E 906 90 2c 4c
        E 8 80 29 00
        E 467 80 2c 00
        E 33 90 2b 4e
        E 944 90 29 58
        E 9 80 2b 00
        E 1450 80 29 00
        E 4 90 26 58
        E 877 90 21 49
        E 29 80 26 00
        E 513 90 24 54
        E 20 80 21 00
        E 975 90 26 60
        E 10 80 24 00
        E 1396 90 29 53
        E 37 80 26 00
        E 933 90 2c 4a
        E 38 80 29 00
        E 471 80 2c 00
        E 25 90 2b 4e
        E 911 90 29 62
        E 13 80 2b 00
        E 1377 80 29 00
        E 9 90 26 55
        E 958 90 21 4c
        E 29 80 26 00
        E 520 90 24 54
        E 8 80 21 00
        E 963 90 26 5c
        E 20 80 24 00
        E 3511 80 26 00
        E 4709 b0 7b 00
        CCINTERP 32
        CHASE_CC_TAKEOFFS 1
        GUID {843CA811-4F4D-3647-A539-53E24ADCFF9D}
        IGNTEMPO 0 120 4 4
        SRCCOLOR 72
        VELLANE -1 100 0
      >
    >
  >
  <TRACK {EAA937B8-2351-AB4B-B28C-A4FB92196144}
    NAME "Bass 2: Edited"
    PEAKCOL 16576
    BEAT -1
    AUTOMODE 0
    VOLPAN 0.34264637489056 0 -1 -1 1
    MUTESOLO 1 0 0
    IPHASE 0
    PLAYOFFS 0 1
    ISBUS 0 0
    BUSCOMP 0 0 0 0 0
    SHOWINMIX 0 0.6667 0.5 0 0.5 0 -1 0
    FREEMODE 0
    SEL 0
    REC 0 5088 1 0 0 0 0
    VU 2
    TRACKHEIGHT 0 0 0 0 0 0
    INQ 0 0 0 0.5 100 0 0 100
    NCHAN 6
    FX 1
    TRACKID {EAA937B8-2351-AB4B-B28C-A4FB92196144}
    PERF 0
    MIDIOUT -1
    MAINSEND 1 0
    <FXCHAIN
      WNDRECT 335 154 1105 598
      SHOW 0
      LASTSEL 0
      DOCKED 0
      BYPASS 0 0 0
      <VST "VST3i: Triangle3MonoSyn (CabbageAudio    ) (6 out)" Triangle3MonoSynth.vst3 0 "" 97607883{ABCDEF019182FAEB4361626230303131} ""
        y2DRBe5e7f4AAAAABgAAAAEAAAAAAAAAAgAAAAAAAAAEAAAAAAAAAAgAAAAAAAAAEAAAAAAAAAAgAAAAAAAAAKwDAAABAAAA//8QAA==
        nAMAAAEAAABWQzIhVwMAADw/eG1sIHZlcnNpb249IjEuMCIgZW5jb2Rpbmc9IlVURi04Ij8+IDxDQUJCQUdFX1BSRVNFVFM+PFBSRVNFVDAgUHJlc2V0TmFtZT0iQ0FC
        QkFHRV9QUkVTRVRTIDAiIGluc3RhbmNlTmFtZT0iIiB0cmFja0luZGV4PSIxMSIgcGx1Z2luSW5kZXg9IjAiIHBsdWdpblV1aWQ9IjE1MjQ2Y2ZkN2I2NTQ0MTdiZWFl
        ZGU1OTMyMDM5N2E3IiBmaXJzdF90YWJfYnVnX3dvcmthcm91bmRfdGFiPSIwLjAiIHM4OF90YWI9IjAuMCIgcG9zaXRpb25fdGFiPSIwLjAiIGxvZ190YWI9IjEuMCIg
        Uzg4X2tub2JfMT0iMC4wIiBTODhfa25vYl8yPSIwLjAiIFM4OF9rbm9iXzM9IjAuMCIgUzg4X2tub2JfND0iMC4wIiBTODhfa25vYl81PSIwLjAiIFM4OF9rbm9iXzY9
        IjAuMCIgUzg4X2tub2JfNz0iMC4wIiBTODhfa25vYl84PSIwLjAiIFM4OF9waXRjaGJlbmQ9IjAuMCIgUzg4X21vZHdoZWVsPSIwLjAiIHBvc2l0aW9uRW5hYmxlZD0i
        MC4wIiBwb3NpdGlvbk1heEFtcFdoZW5DbG9zZT0iMC45OTk5OTk5NDAzOTUzNTUyIiBwb3NpdGlvblJlZmVyZW5jZURpc3RhbmNlPSIwLjA5OTk5OTk5NDAzOTUzNTUy
        IiBwb3NpdGlvblJvbGxvZmZGYWN0b3I9IjAuMDA5OTk5OTk5Nzc2NDgyNTgyIiBwb3NpdGlvbk9wY29kZUNvbWJvQm94SW5kZXg9IjQuMCIgcG9zaXRpb25PcGNvZGU9
        InJheV9YWiIgcG9zaXRpb25YU2NhbGU9IjEuMDAwMTgzMTA1NDY4NzUiIHBvc2l0aW9uWVNjYWxlPSItMC4wMDAwNjEwMzUxNTYyNSIgcG9zaXRpb25aU2NhbGU9Ii0x
        MC4wIiBwb3NpdGlvblhPZmZzZXQ9IjAuMDAwMTIyMDcwMzEyNSIgcG9zaXRpb25ZT2Zmc2V0PSIwLjAiIHBvc2l0aW9uWk9mZnNldD0iNTAuMCIvPjwvQ0FCQkFHRV9Q
        UkVTRVRTPgAAAAAAAAAAAEpVQ0VQcml2YXRlRGF0YQABAUJ5cGFzcwABAQMAHQAAAAAAAABKVUNFUHJpdmF0ZURhdGEAAAAAAAAAAA==
        AAAQAAAA
      >
      FLOATPOS 361 81 1000 570
      FXID {B7E9CA17-68DC-264B-BF64-7572A969BF65}
      WAK 0 0
    >
    <ITEM
      POSITION 69.226295
      SNAPOFFS 0
      LENGTH 3.766793
      LOOP 1
      ALLTAKES 0
      FADEIN 1 0 0 1 0 0 0
      FADEOUT 1 0 0 1 0 0 0
      MUTE 0 0
      SEL 0
      IGUID {E038BEDD-D5C2-4542-AFB6-B9FEF6F9EE89}
      IID 91
      NAME "10-Triangle3MonoSynth-Recorded MIDI-glued"
      VOLPAN 1 0 1 -1
      SOFFS 0 0
      PLAYRATE 1 1 0 -1 0 0.0025
      CHANMODE 0
      GUID {1FE54FC8-45CB-7A4C-8563-EC61724406D5}
      <SOURCE MIDI
        HASDATA 1 960 QN
        CCINTERP 32
        POOLEDEVTS {DB4DB902-5540-E04C-B669-163CB69EDE0A}
        E 0 90 26 53
        E 1418 90 29 67
        E 35 80 26 00
        E 897 90 2c 4c
        E 21 80 29 00
        E 553 80 2c 00
        E 2 90 2b 59
        E 909 90 29 61
        E 2 80 2b 00
        E 1456 80 29 00
        E 6 90 26 50
        E 856 90 21 4f
        E 47 80 26 00
        E 532 90 24 59
        E 2 80 21 00
        E 926 80 24 00
        E 9 90 26 4e
        E 9 80 26 00
        E 0 b0 7b 00
        CCINTERP 32
        CHASE_CC_TAKEOFFS 1
        GUID {DB0458CF-6B86-0F45-92AA-C5B662BDE219}
        IGNTEMPO 0 120 4 4
        SRCCOLOR 100
        VELLANE -1 100 0
      >
    >
    <ITEM
      POSITION 84.265989
      SNAPOFFS 0
      LENGTH 3.83352711250001
      LOOP 1
      ALLTAKES 0
      FADEIN 1 0 0 1 0 0 0
      FADEOUT 1 0 0 1 0 0 0
      MUTE 0 0
      SEL 0
      IGUID {8BA8F6C8-FCF1-E34B-A76F-2203391D1569}
      IID 91
      NAME "10-Triangle3MonoSynth-Recorded MIDI-glued"
      VOLPAN 1 0 1 -1
      SOFFS 0 0
      PLAYRATE 1 1 0 -1 0 0.0025
      CHANMODE 0
      GUID {2E2ADFC4-694C-9E4C-AC9E-DF55A337A134}
      <SOURCE MIDI
        HASDATA 1 960 QN
        CCINTERP 32
        POOLEDEVTS {98FD857B-EB15-4347-8E74-A95ED90BD08C}
        E 0 90 26 53
        E 1418 90 29 67
        E 35 80 26 00
        E 897 90 2c 4c
        E 21 80 29 00
        E 553 80 2c 00
        E 2 90 2b 59
        E 909 90 29 61
        E 2 80 2b 00
        E 1456 80 29 00
        E 6 90 26 50
        E 856 90 21 4f
        E 47 80 26 00
        E 532 90 24 59
        E 2 80 21 00
        E 926 80 24 00
        E 9 90 26 4e
        E 9 80 26 00
        E 0 b0 7b 00
        CCINTERP 32
        CHASE_CC_TAKEOFFS 1
        GUID {DB0458CF-6B86-0F45-92AA-C5B662BDE219}
        IGNTEMPO 0 120 4 4
        SRCCOLOR 100
        VELLANE -1 100 0
      >
    >
    <ITEM
      POSITION 99.400517675
      SNAPOFFS 0
      LENGTH 3.807593
      LOOP 1
      ALLTAKES 0
      FADEIN 1 0 0 1 0 0 0
      FADEOUT 1 0 0 1 0 0 0
      MUTE 0 0
      SEL 0
      IGUID {28BA4CE5-E3A3-C345-9B62-A8FC768E076F}
      IID 91
      NAME "10-Triangle3MonoSynth-Recorded MIDI-glued"
      VOLPAN 1 0 1 -1
      SOFFS 0 0
      PLAYRATE 1 1 0 -1 0 0.0025
      CHANMODE 0
      GUID {9BBFA558-E6AA-B04F-886A-742855A86C15}
      <SOURCE MIDI
        HASDATA 1 960 QN
        CCINTERP 32
        POOLEDEVTS {29046552-CA9E-6F41-B5E3-9ED8C1E1381F}
        E 0 90 26 53
        E 1418 90 29 67
        E 35 80 26 00
        E 897 90 2c 4c
        E 21 80 29 00
        E 553 80 2c 00
        E 2 90 2b 59
        E 909 90 29 61
        E 2 80 2b 00
        E 1456 80 29 00
        E 6 90 26 50
        E 856 90 21 4f
        E 47 80 26 00
        E 532 90 24 59
        E 2 80 21 00
        E 926 80 24 00
        E 9 90 26 4e
        E 9 80 26 00
        E 0 b0 7b 00
        CCINTERP 32
        CHASE_CC_TAKEOFFS 1
        GUID {DB0458CF-6B86-0F45-92AA-C5B662BDE219}
        IGNTEMPO 0 120 4 4
        SRCCOLOR 100
        VELLANE -1 100 0
      >
    >
    <ITEM
      POSITION 129.796971675
      SNAPOFFS 0
      LENGTH 3.747072
      LOOP 1
      ALLTAKES 0
      FADEIN 1 0 0 1 0 0 0
      FADEOUT 1 0 0 1 0 0 0
      MUTE 0 0
      SEL 0
      IGUID {AAD9F47C-5538-CB48-AF8E-654F5EE7F88E}
      IID 91
      NAME "10-Triangle3MonoSynth-Recorded MIDI-glued"
      VOLPAN 1 0 1 -1
      SOFFS 0 0
      PLAYRATE 1 1 0 -1 0 0.0025
      CHANMODE 0
      GUID {14DDA148-FDFE-1F41-B1B6-18C141B4AB78}
      <SOURCE MIDI
        HASDATA 1 960 QN
        CCINTERP 32
        POOLEDEVTS {E8E2DAA7-47D3-5C41-96D0-C0FFEDFF72E5}
        E 0 90 26 53
        E 1418 90 29 67
        E 35 80 26 00
        E 897 90 2c 4c
        E 21 80 29 00
        E 553 80 2c 00
        E 2 90 2b 59
        E 909 90 29 61
        E 2 80 2b 00
        E 1456 80 29 00
        E 6 90 26 50
        E 856 90 21 4f
        E 47 80 26 00
        E 532 90 24 59
        E 2 80 21 00
        E 926 80 24 00
        E 9 90 26 4e
        E 9 80 26 00
        E 0 b0 7b 00
        CCINTERP 32
        CHASE_CC_TAKEOFFS 1
        GUID {DB0458CF-6B86-0F45-92AA-C5B662BDE219}
        IGNTEMPO 0 120 4 4
        SRCCOLOR 100
        VELLANE -1 100 0
      >
    >
    <ITEM
      POSITION 144.80370825833333
      SNAPOFFS 0
      LENGTH 3.781932
      LOOP 1
      ALLTAKES 0
      FADEIN 1 0 0 1 0 0 0
      FADEOUT 1 0 0 1 0 0 0
      MUTE 0 0
      SEL 0
      IGUID {74023E7E-F098-BF4C-966A-819C17A29290}
      IID 91
      NAME "10-Triangle3MonoSynth-Recorded MIDI-glued"
      VOLPAN 1 0 1 -1
      SOFFS 0 0
      PLAYRATE 1 1 0 -1 0 0.0025
      CHANMODE 0
      GUID {11923CB9-5433-FA48-9251-6764F605F5F9}
      <SOURCE MIDI
        HASDATA 1 960 QN
        CCINTERP 32
        POOLEDEVTS {0DBDD2DE-64B8-2A49-A9D1-6A2264307B39}
        E 0 90 26 53
        E 1418 90 29 67
        E 35 80 26 00
        E 897 90 2c 4c
        E 21 80 29 00
        E 553 80 2c 00
        E 2 90 2b 59
        E 909 90 29 61
        E 2 80 2b 00
        E 1456 80 29 00
        E 6 90 26 50
        E 856 90 21 4f
        E 47 80 26 00
        E 532 90 24 59
        E 2 80 21 00
        E 926 80 24 00
        E 9 90 26 4e
        E 9 80 26 00
        E 0 b0 7b 00
        CCINTERP 32
        CHASE_CC_TAKEOFFS 1
        GUID {DB0458CF-6B86-0F45-92AA-C5B662BDE219}
        IGNTEMPO 0 120 4 4
        SRCCOLOR 100
        VELLANE -1 100 0
      >
    >
    <ITEM
      POSITION 152.33673125833332
      SNAPOFFS 0
      LENGTH 3.783223
      LOOP 1
      ALLTAKES 0
      FADEIN 1 0 0 1 0 0 0
      FADEOUT 1 0 0 1 0 0 0
      MUTE 0 0
      SEL 0
      IGUID {D01A8FC4-47BD-EF48-AFFB-E4FA4FE96834}
      IID 91
      NAME "10-Triangle3MonoSynth-Recorded MIDI-glued"
      VOLPAN 1 0 1 -1
      SOFFS 0 0
      PLAYRATE 1 1 0 -1 0 0.0025
      CHANMODE 0
      GUID {2BF562FE-4BA5-514A-9F3C-DF78A3C75D46}
      <SOURCE MIDI
        HASDATA 1 960 QN
        CCINTERP 32
        POOLEDEVTS {DC2B5313-2E89-E142-848C-5C434AC2DDF7}
        E 0 90 26 53
        E 1418 90 29 67
        E 35 80 26 00
        E 897 90 2c 4c
        E 21 80 29 00
        E 553 80 2c 00
        E 2 90 2b 59
        E 909 90 29 61
        E 2 80 2b 00
        E 1456 80 29 00
        E 6 90 26 50
        E 856 90 21 4f
        E 47 80 26 00
        E 532 90 24 59
        E 2 80 21 00
        E 926 80 24 00
        E 9 90 26 4e
        E 9 80 26 00
        E 0 b0 7b 00
        CCINTERP 32
        CHASE_CC_TAKEOFFS 1
        GUID {DB0458CF-6B86-0F45-92AA-C5B662BDE219}
        IGNTEMPO 0 120 4 4
        SRCCOLOR 100
        VELLANE -1 100 0
      >
    >
    <ITEM
      POSITION 159.88527525833325
      SNAPOFFS 0
      LENGTH 3.77644
      LOOP 1
      ALLTAKES 0
      FADEIN 1 0 0 1 0 0 0
      FADEOUT 1 0 0 1 0 0 0
      MUTE 0 0
      SEL 0
      IGUID {C90A27B1-89D5-0C4F-A8C3-E0975F377E7C}
      IID 91
      NAME "10-Triangle3MonoSynth-Recorded MIDI-glued"
      VOLPAN 1 0 1 -1
      SOFFS 0 0
      PLAYRATE 1 1 0 -1 0 0.0025
      CHANMODE 0
      GUID {8D80BA50-BA69-1D4C-81C3-54608D3A1C48}
      <SOURCE MIDI
        HASDATA 1 960 QN
        CCINTERP 32
        POOLEDEVTS {346E61B8-7057-2A47-BEFB-D1FD6E13B87A}
        E 0 90 26 53
        E 1418 90 29 67
        E 35 80 26 00
        E 897 90 2c 4c
        E 21 80 29 00
        E 553 80 2c 00
        E 2 90 2b 59
        E 909 90 29 61
        E 2 80 2b 00
        E 1456 80 29 00
        E 6 90 26 50
        E 856 90 21 4f
        E 47 80 26 00
        E 532 90 24 59
        E 2 80 21 00
        E 926 80 24 00
        E 9 90 26 4e
        E 9 80 26 00
        E 0 b0 7b 00
        CCINTERP 32
        CHASE_CC_TAKEOFFS 1
        GUID {DB0458CF-6B86-0F45-92AA-C5B662BDE219}
        IGNTEMPO 0 120 4 4
        SRCCOLOR 100
        VELLANE -1 100 0
      >
    >
    <ITEM
      POSITION 167.43586825833319
      SNAPOFFS 0
      LENGTH 3.729361
      LOOP 1
      ALLTAKES 0
      FADEIN 1 0 0 1 0 0 0
      FADEOUT 1 0 0 1 0 0 0
      MUTE 0 0
      SEL 0
      IGUID {D1ADE941-D085-FA42-9E51-44811895A173}
      IID 91
      NAME "10-Triangle3MonoSynth-Recorded MIDI-glued"
      VOLPAN 1 0 1 -1
      SOFFS 0 0
      PLAYRATE 1 1 0 -1 0 0.0025
      CHANMODE 0
      GUID {84FB93F8-61A3-A14F-A884-6BFED8A2D6F0}
      <SOURCE MIDI
        HASDATA 1 960 QN
        CCINTERP 32
        POOLEDEVTS {DB241A07-06DD-124E-BCC1-639CAEE01542}
        E 0 90 26 53
        E 1418 90 29 67
        E 35 80 26 00
        E 897 90 2c 4c
        E 21 80 29 00
        E 553 80 2c 00
        E 2 90 2b 59
        E 909 90 29 61
        E 2 80 2b 00
        E 1456 80 29 00
        E 6 90 26 50
        E 856 90 21 4f
        E 47 80 26 00
        E 532 90 24 59
        E 2 80 21 00
        E 926 80 24 00
        E 9 90 26 4e
        E 9 80 26 00
        E 0 b0 7b 00
        CCINTERP 32
        CHASE_CC_TAKEOFFS 1
        GUID {DB0458CF-6B86-0F45-92AA-C5B662BDE219}
        IGNTEMPO 0 120 4 4
        SRCCOLOR 100
        VELLANE -1 100 0
      >
    >
    <ITEM
      POSITION 174.84129275833317
      SNAPOFFS 0
      LENGTH 3.85515466666666
      LOOP 1
      ALLTAKES 0
      FADEIN 1 0 0 1 0 0 0
      FADEOUT 1 0 0 1 0 0 0
      MUTE 0 0
      SEL 0
      IGUID {E4A8CEF2-5B93-AA4E-ADB2-5DBAA6CEEDAA}
      IID 91
      NAME "10-Triangle3MonoSynth-Recorded MIDI-glued"
      VOLPAN 1 0 1 -1
      SOFFS 0 0
      PLAYRATE 1 1 0 -1 0 0.0025
      CHANMODE 0
      GUID {7664F124-EE1C-D540-93D2-C45D236E00FB}
      <SOURCE MIDI
        HASDATA 1 960 QN
        CCINTERP 32
        POOLEDEVTS {FA36503A-8000-814C-880A-7531D8362AC1}
        E 0 90 26 53
        E 1418 90 29 67
        E 35 80 26 00
        E 897 90 2c 4c
        E 21 80 29 00
        E 553 80 2c 00
        E 2 90 2b 59
        E 909 90 29 61
        E 2 80 2b 00
        E 1456 80 29 00
        E 6 90 26 50
        E 856 90 21 4f
        E 47 80 26 00
        E 532 90 24 59
        E 2 80 21 00
        E 926 80 24 00
        E 9 90 26 4e
        E 9 80 26 00
        E 0 b0 7b 00
        CCINTERP 32
        CHASE_CC_TAKEOFFS 1
        GUID {DB0458CF-6B86-0F45-92AA-C5B662BDE219}
        IGNTEMPO 0 120 4 4
        SRCCOLOR 100
        VELLANE -1 100 0
      >
    >
  >
  <TRACK {287E23CA-2C08-A949-BE0F-DF9C5A810CA0}
    NAME "11: Aux"
    PEAKCOL 16576
    BEAT -1
    AUTOMODE 0
    VOLPAN 0.70858445955218 0 -1 -1 1
    MUTESOLO 0 0 0
    IPHASE 0
    PLAYOFFS 0 1
    ISBUS 0 0
    BUSCOMP 0 0 0 0 0
    SHOWINMIX 1 0.6667 0.5 0 0.5 0 0 0
    FREEMODE 0
    SEL 0
    REC 0 0 0 0 0 0 0
    VU 2
    TRACKHEIGHT 0 0 0 0 0 0
    INQ 0 0 0 0.5 100 0 0 100
    NCHAN 6
    FX 1
    TRACKID {287E23CA-2C08-A949-BE0F-DF9C5A810CA0}
    PERF 0
    AUXRECV 0 0 1 0 0 0 0 2048 0 -1:U 4177951 -1 ''
    AUXRECV 0 0 0.20369801509098 0 0 0 0 4 4 -1:U 4177951 -1 ''
    AUXRECV 1 0 1 0 0 0 0 2048 0 -1:U 4177951 -1 ''
    AUXRECV 1 0 0.20369801509098 0 0 0 0 4 4 -1:U 4177951 -1 ''
    AUXRECV 2 0 1 0 0 0 0 2048 0 -1:U 4177951 -1 ''
    AUXRECV 2 0 0 0 0 0 0 4 4 -1:U 4177951 -1 ''
    AUXRECV 3 0 1 0 0 0 0 2048 0 -1:U 4177951 -1 ''
    AUXRECV 3 0 0 0 0 0 0 4 4 -1:U 4177951 -1 ''
    AUXRECV 4 0 1 0 0 0 0 2048 0 -1:U 4177951 -1 ''
    AUXRECV 4 0 0 0 0 0 0 4 4 -1:U 4177951 -1 ''
    AUXRECV 5 0 1 0 0 0 0 2048 0 -1:U 4177951 -1 ''
    AUXRECV 5 0 0 0 0 0 0 4 4 -1:U 4177951 -1 ''
    MIDIOUT -1
    MAINSEND 0 0
    <FXCHAIN
      WNDRECT 209 189 1231 598
      SHOW 0
      LASTSEL 0
      DOCKED 0
      BYPASS 0 0 0
      <VST "VST3: BusHead          (CabbageAudio    ) (6ch)" BusHead.vst3 0 "" 131310216{ABCDEF019182FAEB4361626230303033} ""
        iKLTB+5e7f4GAAAAAQAAAAAAAAACAAAAAAAAAAQAAAAAAAAACAAAAAAAAAAQAAAAAAAAACAAAAAAAAAABgAAAAEAAAAAAAAAAgAAAAAAAAAEAAAAAAAAAAgAAAAAAAAA
        EAAAAAAAAAAgAAAAAAAAACYBAAABAAAA//8QAA==
        FgEAAAEAAABWQzIh0QAAADw/eG1sIHZlcnNpb249IjEuMCIgZW5jb2Rpbmc9IlVURi04Ij8+IDxDQUJCQUdFX1BSRVNFVFM+PFBSRVNFVDAgUHJlc2V0TmFtZT0iQ0FC
        QkFHRV9QUkVTRVRTIDAiIGluc3RhbmNlTmFtZT0iMiIgdHJhY2tJbmRleD0iMSIgcGx1Z2luSW5kZXg9IjAiIHBsdWdpblV1aWQ9IjkwMDdiZWY0OWYzNzQ4NWY4YmY5
        YTcyOTE4NDBmMTM5Ii8+PC9DQUJCQUdFX1BSRVNFVFM+AAAAAAAAAAAASlVDRVByaXZhdGVEYXRhAAEBQnlwYXNzAAEBAwAdAAAAAAAAAEpVQ0VQcml2YXRlRGF0YQAA
        AAAAAAAA
        AEZhY3RvcnkgUHJlc2V0cwAQAAAA
      >
      PRESETNAME "Factory Presets"
      FLOATPOS 269 305 1000 570
      FXID {2818DC07-E9BA-D443-8A07-CADA1467F447}
      WAK 1 0
      BYPASS 0 0 0
      <VST "VST3: Reverb           (CabbageAudio    ) (6ch)" Reverb.vst3 0 "" 205275414{ABCDEF019182FAEB4361626230313030} ""
        FkE8DO5e7f4GAAAAAQAAAAAAAAACAAAAAAAAAAQAAAAAAAAACAAAAAAAAAAQAAAAAAAAACAAAAAAAAAABgAAAAEAAAAAAAAAAgAAAAAAAAAEAAAAAAAAAAgAAAAAAAAA
        EAAAAAAAAAAgAAAAAAAAAOYBAAABAAAA//8QAA==
        1gEAAAEAAABWQzIhkQEAADw/eG1sIHZlcnNpb249IjEuMCIgZW5jb2Rpbmc9IlVURi04Ij8+IDxDQUJCQUdFX1BSRVNFVFM+PFBSRVNFVDAgUHJlc2V0TmFtZT0iQ0FC
        QkFHRV9QUkVTRVRTIDAiIGluc3RhbmNlTmFtZT0iIiB0cmFja0luZGV4PSIxIiBwbHVnaW5JbmRleD0iMSIgcGx1Z2luVXVpZD0iOGQyNzFhYTE2YzQwNGUxODlmYTU5
        ODVjZTc0ODQ3NjciIGZpcnN0X3RhYl9idWdfd29ya2Fyb3VuZF90YWI9IjAuMCIgcmV2ZXJiX3RhYj0iMS4wIiBsb2dfdGFiPSIwLjAiIGVuYWJsZWQ9IjEuMCIgc2l6
        ZT0iMC45NDk5OTk5ODgwNzkwNzEiIGN1dG9mZkZyZXF1ZW5jeT0iMTQxNjAuMCIgdmFyaWF0aW9uRGVwdGg9IjAuMTAwMDAwMDAxNDkwMTE2MSIgZHJ5V2V0PSIxLjAi
        IHZvbHVtZT0iMS4wIi8+PC9DQUJCQUdFX1BSRVNFVFM+AAAAAAAAAAAASlVDRVByaXZhdGVEYXRhAAEBQnlwYXNzAAEBAwAdAAAAAAAAAEpVQ0VQcml2YXRlRGF0YQAA
        AAAAAAAA
        AAAQAAAA
      >
      FLOATPOS 680 341 1000 570
      FXID {BCD799E2-BD8C-1740-8E41-AFBFB9305844}
      WAK 0 0
    >
  >
  <TRACK {63E5B392-0533-4446-AD46-E347E98D1B2B}
    NAME Master
    PEAKCOL 16576
    BEAT -1
    AUTOMODE 0
    VOLPAN 1 0 -1 -1 1
    MUTESOLO 0 0 0
    IPHASE 0
    PLAYOFFS 0 1
    ISBUS 0 0
    BUSCOMP 0 0 0 0 0
    SHOWINMIX 1 0.6667 0.5 0 0.5 0 0 0
    FREEMODE 0
    SEL 0
    REC 0 0 0 0 0 0 0
    VU 2
    TRACKHEIGHT 0 0 0 0 0 0
    INQ 0 0 0 0.5 100 0 0 100
    NCHAN 6
    FX 1
    TRACKID {63E5B392-0533-4446-AD46-E347E98D1B2B}
    PERF 0
    AUXRECV 6 0 1 0 0 0 0 2048 0 -1:U 4177951 -1 ''
    AUXRECV 6 0 1 0 0 0 0 4 4 -1:U 4177951 -1 ''
    MIDIOUT -1
    MAINSEND 0 0
    <FXCHAIN
      WNDRECT 241 153 1065 722
      SHOW 0
      LASTSEL 0
      DOCKED 0
      BYPASS 0 0 0
      <VST "VST3: MasterHead       (CabbageAudio    ) (6ch)" MasterHead.vst3 0 "" 248753549{ABCDEF019182FAEB4361626230303034} ""
        ja3TDu5e7f4GAAAAAQAAAAAAAAACAAAAAAAAAAQAAAAAAAAACAAAAAAAAAAQAAAAAAAAACAAAAAAAAAABgAAAAEAAAAAAAAAAgAAAAAAAAAEAAAAAAAAAAgAAAAAAAAA
        EAAAAAAAAAAgAAAAAAAAACUBAAABAAAA//8QAA==
        FQEAAAEAAABWQzIh0AAAADw/eG1sIHZlcnNpb249IjEuMCIgZW5jb2Rpbmc9IlVURi04Ij8+IDxDQUJCQUdFX1BSRVNFVFM+PFBSRVNFVDAgUHJlc2V0TmFtZT0iQ0FC
        QkFHRV9QUkVTRVRTIDAiIGluc3RhbmNlTmFtZT0iIiB0cmFja0luZGV4PSIyIiBwbHVnaW5JbmRleD0iMCIgcGx1Z2luVXVpZD0iOTAwN2JlZjQ5ZjM3NDg1ZjhiZjlh
        NzI5MTg0MGYxMzkiLz48L0NBQkJBR0VfUFJFU0VUUz4AAAAAAAAAAABKVUNFUHJpdmF0ZURhdGEAAQFCeXBhc3MAAQEDAB0AAAAAAAAASlVDRVByaXZhdGVEYXRhAAAA
        AAAAAAA=
        AEZhY3RvcnkgUHJlc2V0cwAQAAAA
      >
      PRESETNAME "Factory Presets"
      FLOATPOS 227 481 1000 570
      FXID {C76EC94D-35FB-B742-82EA-931E33EDE5A9}
      WAK 0 0
    >
  >
  <TRACK {ED3BBFC5-F01A-7943-A293-98C96281065A}
    NAME "Output Routing"
    PEAKCOL 16576
    BEAT -1
    AUTOMODE 0
    VOLPAN 1 0 -1 -1 1
    MUTESOLO 0 0 0
    IPHASE 0
    PLAYOFFS 0 1
    ISBUS 0 0
    BUSCOMP 0 0 0 0 0
    SHOWINMIX 0 0.6667 0.5 0 0.5 0 -1 0
    FREEMODE 0
    SEL 0
    REC 0 0 1 0 0 0 0
    VU 2
    TRACKHEIGHT 0 0 0 0 0 0
    INQ 0 0 0 0.5 100 0 0 100
    NCHAN 6
    FX 1
    TRACKID {ED3BBFC5-F01A-7943-A293-98C96281065A}
    PERF 0
    AUXRECV 7 0 1 0 0 0 0 2048 0 -1:U 4177951 -1 ''
    AUXRECV 7 0 1 0 0 0 0 4 0 -1:U 4177951 -1 ''
    MIDIOUT -1
    MAINSEND 1 0
  >
  <TRACK {BC0226E9-A0B7-9F47-99B4-5A2474B80CDC}
    NAME DawService
    PEAKCOL 16576
    BEAT -1
    AUTOMODE 0
    VOLPAN 1 0 -1 -1 1
    MUTESOLO 0 0 0
    IPHASE 0
    PLAYOFFS 0 1
    ISBUS 0 0
    BUSCOMP 0 0 0 0 0
    SHOWINMIX 1 0.6667 0.5 0 0.5 0 -1 0
    FREEMODE 0
    SEL 0
    REC 0 0 1 0 0 0 0
    VU 2
    TRACKHEIGHT 0 0 0 0 0 0
    INQ 0 0 0 0.5 100 0 0 100
    NCHAN 2
    FX 1
    TRACKID {BC0226E9-A0B7-9F47-99B4-5A2474B80CDC}
    PERF 0
    MIDIOUT -1
    MAINSEND 0 0
    <FXCHAIN
      WNDRECT 32 589 403 458
      SHOW 0
      LASTSEL 0
      DOCKED 0
      BYPASS 0 0 0
      <VST "VST3: DawService       (CabbageAudio    )" DawService.vst3 0 "" 181643073{ABCDEF019182FAEB4361626230303030} ""
        QafTCu5e7f4CAAAAAQAAAAAAAAACAAAAAAAAAAIAAAABAAAAAAAAAAIAAAAAAAAAHwEAAAEAAAD//xAA
        DwEAAAEAAABWQzIhygAAADw/eG1sIHZlcnNpb249IjEuMCIgZW5jb2Rpbmc9IlVURi04Ij8+IDxDQUJCQUdFX1BSRVNFVFM+PFBSRVNFVDAgUHJlc2V0TmFtZT0iQ0FC
        QkFHRV9QUkVTRVRTIDAiIGRhd19yZXNldD0iMC4wIiBtb2RlLTE9IjEuMCIgbW9kZS0yPSIwLjAiIG1vZGUtMz0iMC4wIiBtb2RlLTQ9IjAuMCIgZGF3X3Nob3dfbG9n
        PSIwLjAiLz48L0NBQkJBR0VfUFJFU0VUUz4AAAAAAAAAAABKVUNFUHJpdmF0ZURhdGEAAQFCeXBhc3MAAQEDAB0AAAAAAAAASlVDRVByaXZhdGVEYXRhAAAAAAAAAAA=
        AAAQAAAA
      >
      FLOAT 1228 84 172 430
      FXID {120B7919-FA90-0F4B-8E0D-53DE4BF4FF8E}
      WAK 0 0
    >
  >
>
